<?xml version="1.0" encoding="UTF-8"?>
<svg id="Capa_1" xmlns="http://www.w3.org/2000/svg" version="1.1" viewBox="0 0 960 258">
  <!-- Generator: Adobe Illustrator 30.1.0, SVG Export Plug-In . SVG Version: 2.1.1 Build 136)  -->
  <path d="M960,135v4c-1.37,1.91-.96,4.42-2.19,6.92-14.68-.43-22.72,2.09-37.18.86-4.35-11.95-10.06-22.08-15.12-33.16-2.63-5.76-4.86-11.38-8.73-16.53l-17.82-.08c.39,6.23-.47,11.85.25,18.06,1.7,14.72,1.12,13.76,16.53,20.25-1.21,3.75-1,7.35-2.7,10.67l-60.77.03-2.14-10.63,15.68-6.58c-.18-3.31.92-7.74.93-11.08l.08-62.74c0-4.42-.98-10.35-2.81-13.96-2.61-5.15-9.48-5.41-13.89-8.06l2.13-10.89,40.36-.51c21.19-.27,48.22-4.28,65.63,10.08,5.49,4.98,9.14,11,9.52,18.73.79,16-9.3,30.12-24.07,36.25,7.97,14.79,15.41,28.7,24.84,41.85,3.41,2.7,8.05,4.45,11.5,6.54ZM896.03,78.85l8.83.69c10.48-8.66,14.84-28.32,4.41-38.6-7.24-7.13-20.69-3.33-28.95-2.51-2.65,16.67-.24,26.03-1.86,40.55l17.58-.13Z" fill="#fff"/>
  <path d="M645.39,147.21c-17.94-27.45-37.34-51.91-58.16-76.65-.31,10.73-1.02,20.28,0,30.38l.92,9.12c.57,5.69,1.21,11.15,1.73,17.09,6.15,4.11,12.84,6.33,20.21,7.56,0,4.18-.93,7.17-1.7,11.17l-57.06.13c-.91-3.88-2.35-7.11-2.37-10.91l14.07-5.34c2.67-1.01,2.2-6.88,1.91-9.61-.48-4.56.83-8.14.84-12.27l.09-45.81c0-3.12-1.35-5.71-1.01-9.22s.54-9.05-1.78-11.76c-3.71-4.33-9.41-5.25-14.08-8.18.4-3.67,1.35-7.25,2.25-10.81,7.88-.66,15.52.67,23.26-.57,5.82-.93,11.33-.65,17.36-.36,17.78,27.37,36.97,52.83,58.76,77.71,1.17-3.33-.01-7.09-.44-10.97-1.01-9.26.9-18.14-.83-27.41-1.15-6.15.71-14.56-3.18-19.62s-11.97-4.9-17.09-7.95c-.09-3.71.95-7.32,2.07-10.94l54.55.03c.91,3.16,3.42,7.76,1.84,10.64-3.45,3.65-9.72,3.14-13.84,5.9-1.54,2.48-2.85,29.36-2.67,30.41.65,3.9-.84,7.37-.86,11.13l-.32,64.4-24.47,2.69Z" fill="#fff"/>
  <path d="M469.12,114.02c.04,4.91,1.68,9.6,2.29,14.27,7.65,3.85,26.29,3.4,34.32,1.3l6.37-21.43c7.23-.72,14.04.21,20.89,1.6v36.25s-110.79,0-110.79,0c-.37-3.79-.78-6.75-2.39-10.5,5.26-2.2,10.05-4.3,16.3-5.81-1.01-3.74.75-7.13.75-10.8l-.02-64.9c0-14.8-5.17-17.13-16.89-20.95.88-3.71,2.11-7.23,2.24-10.91l73.25-.65c3.16-.03,32.13-1.15,32.27-.99,1.75,2.1,5.45,6.25,5.16,9.52-.89,10.08-3.75,19.26-5.56,29.57-6.48,1.03-12.55.52-19.08-.91l-4.71-20.32-8.58-1.19-25.05-.21c.79,4.1-.64,7.39-.67,11.13l-.27,28.71c5.67.57,31.94-.92,36.05-1.55,1.79-.28,4.83,3.84,4.61,5.68-.52,4.36-1.33,9.52-2.67,14.01-15.46.9-22.69-1.6-37.96-.93l.16,20.02Z" fill="#fff"/>
  <path d="M753.02,127.89c3.07,4.69,28.19,3.46,33.78,1.76l5.81-21.27c2.3-1.54,19.91.91,19.65.74.71.45,1.47,1.88,1.49,3.29l.28,29.6c.01,1.08-.6,3.97-2.1,3.97l-108.58.04-2.49-11,15.9-5.65c-.13-3.91.87-7.86.88-11.91l.18-62.48c.01-4.4-.97-10.38-2.85-14.02-2.4-4.64-9.13-5.27-13.6-7.83-.12-3.38,1.38-7.18,1.93-10.99l73.15-.68,27.14-.71c1.45-.04,3.19-1.54,4.61-.6.47.31,6.15,7.85,5.8,9.84-1.8,10.2-3.73,19.74-6.14,29.85-6.65.43-12.87.5-19.09-1.45l-4.3-20.04-8.54-1.18-24.89-.22c.46,3.08-.9,5.41-.91,8.14l-.17,31.73c11.39.58,24.5-.81,35.94-1.79,7.89,4.15,3.15,11.51,1.89,19.95-15.18.79-22.55-1.6-37.92-.99.12,10.13-1.15,25.29,3.15,33.9Z" fill="#fff"/>
  <path d="M391.14,138.31c-19.9,16.09-63.58,14.01-85.07-.51-1.07-12.74,1.92-15.63.67-28.35,7.16-1.38,14.34-2.1,21.74-1.1,1.7,7.2,2.88,13.81,5.8,20.37,10.25,5.49,22.24,5.75,32.95,1.56,4.61-7.67,6.27-16.62-2.1-22.63-13.7-9.82-32.46-11.71-46.34-23.39-16.47-13.85-15.95-38.32.48-52.13,20.83-17.52,55.62-16.91,78.36-3.72,2.8,1.63,5.09,5.11,4.33,8.45-1.9,8.32-3.44,16.06-5.77,24.12-6.84-.18-13.4.52-19.54-.38-2.61-6.44-1.11-14.61-5.35-20.23-6.43-8.53-26.7-4.52-28.43-2.52-3.09,3.58-2.92,8.53-2.92,13.24.04,27.19,64.47,19.61,64.05,62.34-.1,9.64-4.83,18.41-12.84,24.89Z" fill="#fff"/>
  <path d="M760.62,226.25c-.27,2.28-5.29.13-6.47-1.3l-10.75-13.12-.51,15c-2.4.42-4.32.44-6.86-.01v-26.66c1.97-.05,4.92-.94,6.24.6l11.51,13.47.27-14.13c2.48-.14,4.35-.2,7.07.04-.59,8.7.58,17.11-.49,26.12Z" fill="#fff"/>
  <path d="M638.02,226.59c-5.45.84-10.43.69-15.79.04l-.26-26.66c6.23.5,11.87-.53,17.98.35,6.15.88,10.19,7.63,9.99,13.09-.24,6.54-4.82,12.09-11.92,13.18ZM642.81,215.21c.75-3.19-.02-7.03-3.15-8.77s-6.87-1.51-10.65-1.32l.05,15.7c6.06,1.07,12.41.11,13.76-5.61Z" fill="#fff"/>
  <path d="M420.35,226.31c-8.39,3.94-9.87-6.46-12.25-7.07-1.33-.34-4.62-.82-5.02.5-.75,2.43.97,5.26-.59,6.87-1.12,1.15-3.59.35-5.44.22l-.06-26.83c8.44.83,21.05-3.21,22.98,7.6.81,4.57-1.1,8-5.03,10.64,1.98,2.52,3.55,4.77,5.42,8.07ZM412.39,211.89c1.41-1.55.83-4.67-.54-5.57-2.68-1.76-5.66-1.38-8.79-1.21-.07,3.16-.3,5.63.13,8.76,3.18.4,6.74.72,9.21-1.99Z" fill="#fff"/>
  <path d="M545.38,226.27c-8.13,4.06-9.21-5.96-12.32-7.02-1.29-.44-4.6-.78-4.98.46-.75,2.46.97,5.28-.6,6.89-1.12,1.15-3.58.36-5.44.22l-.06-26.82,15.06.11c4.24.03,7.67,4.31,8.06,7.33.64,4.98-.76,8.11-5.27,10.74,2.17,2.58,3.57,4.83,5.54,8.09ZM535.96,213.41c2.67-1.28,2.93-5.56.86-7.06-2.57-1.87-5.69-1.34-8.76-1.24-.1,3.18-.28,5.64.1,8.79,2.61.15,5.11.81,7.8-.48Z" fill="#fff"/>
  <path d="M826.35,226.31c-8.37,3.95-9.91-6.47-12.22-7.06-1.47-.38-4.64-.81-5.04.48-.76,2.47.96,5.26-.61,6.87-1.12,1.15-3.54.39-5.44.22l-.05-26.83c8.44.83,21.05-3.21,22.98,7.6.81,4.57-1.1,8-5.03,10.64,1.98,2.52,3.55,4.77,5.42,8.07ZM816.96,213.41c2.67-1.28,2.93-5.56.86-7.06-2.57-1.87-5.69-1.34-8.76-1.24-.1,3.18-.28,5.64.1,8.79,2.61.15,5.11.81,7.8-.48Z" fill="#fff"/>
  <path d="M677.86,215.92l-11.76.13c-.14,1.71-.24,3.2.07,4.88l13.69.1c.27,2.13.4,3.81-.15,6.01l-20.68-.03-.05-26.99h20.91c.17,1.8.25,3.21-.06,4.93l-13.74.09c-.14,1.74-.23,3.2.07,4.86l11.71.12c.24,1.82.32,3.15-.02,5.88Z" fill="#fff"/>
  <path d="M790.86,215.93l-11.77.14c-.14,1.7-.24,3.19.07,4.86l13.69.1c.27,2.13.4,3.81-.15,6.01l-20.68-.03-.05-26.99h20.91c.17,1.8.25,3.21-.06,4.93l-13.74.09c-.14,1.74-.23,3.2.07,4.86l11.71.12c.24,1.82.32,3.14-.01,5.89Z" fill="#fff"/>
  <path d="M351.86,215.92l-11.76.13c-.14,1.71-.24,3.2.07,4.88l13.69.1c.27,2.13.4,3.81-.15,6.01l-20.68-.03-.05-26.99h20.91c.17,1.8.25,3.21-.06,4.93l-13.74.09c-.14,1.74-.23,3.2.07,4.86l11.71.12c.24,1.82.32,3.15-.02,5.88Z" fill="#fff"/>
  <path d="M854.02,212.87c.27-1.47,5.14-1.41,5.56.36.68,2.83.94,6.96.15,9.82-4.82,5.28-14.34,5.54-19.8,1.37-4.07-3.11-5.98-6.65-6.06-10.96s1.77-8.31,5.44-11.27c6.18-4.99,15.28-3.88,21.01,1.52-1.25,2.21-2.62,3.27-4.47,4.49-2.99-3.44-7.68-4.31-11.32-2.04s-4.84,7.83-2.55,11.38,8.15,5.26,11.64,2.19c1.33-1.22-.13-3.99.4-6.85Z" fill="#fff"/>
  <path d="M447.35,215.77c-4.23.85-7.53-.11-11.26.32-.15,1.67-.24,3.16.07,4.84l12.79.15c1.65.02,2.04,1.55,2.13,2.44.14,1.37-.32,3.43-2.27,3.44l-18.78.06-.05-27h19.91c.17,1.79.25,3.21-.06,4.94l-13.74.09c-.14,1.73-.25,3.26.08,4.83,4.12.77,7.72-.55,11.56.51,2,.55,1.99,4.92-.38,5.39Z" fill="#fff"/>
  <path d="M723.35,215.77c-4.23.85-7.53-.11-11.26.32-.15,1.67-.24,3.16.07,4.84l12.79.15c1.65.02,2.04,1.55,2.13,2.44.14,1.37-.32,3.43-2.27,3.44l-18.78.06-.05-27h19.91c.17,1.79.25,3.21-.06,4.94l-13.74.09c-.14,1.73-.25,3.26.08,4.83,4.12.77,7.72-.55,11.56.51,2,.55,1.99,4.92-.38,5.39Z" fill="#fff"/>
  <path d="M590.45,221.68c-3.83-1.01-11.62-2.41-12.69.11l-2,4.71c-.54,1.28-4.13,1.06-6.88.04l11.59-26.3c2.33-.5,4.67-.38,7.29-.01l11.36,26.31c-2.6.99-4.47.61-6.28.32-1.49-.24-1.31-3.33-2.39-5.18ZM587.91,215.57l-3.99-8.29-3.94,8.56c3.54.28,5.59.67,7.93-.27Z" fill="#fff"/>
  <path d="M507.69,226.57c-1.64-.85-.88-4.89-3.03-5.18-3.48-.47-7.94-1.03-11.28.22-1.59.6-1.45,4.3-2.71,4.87-1.74.78-4.01,1.14-6.94,0l12.08-25.75c.72-1.54,5.37-.91,6.99-.32l11.44,26.16c-2.44.63-4.49,1.07-6.56,0ZM502.92,215.64c-1.67-2.94-1.55-5.65-4.15-8.34-1.38,3.41-1.83,5.92-3.84,8.51,3.51.4,5.63.59,8-.16Z" fill="#fff"/>
  <path d="M905.36,221.78c-3.32-1.26-8.58-1.27-11.94-.16-1.68.56-1.46,4.38-2.78,4.91-1.92.76-5.03,1.04-6.48-.04l11.59-25.79c1.23-1.2,5.36-1.13,7.01-.2l11.53,25.47c-1.06,1.78-3.74,1.04-5.41.93-1.82-.12-1.96-3.16-3.51-5.13ZM903.33,215.52c-1.81-3.36-2.55-5.39-3.79-8.61l-3.94,8.42c2.24,1.02,4.4,1.18,7.73.19Z" fill="#fff"/>
  <path d="M319.64,225.54c-5.49,3.14-12.67,1.66-17.76-1.16.58-2.43.78-4.06,1.81-5.65,3.98,2.81,13.39,4.85,13.41.81,0-1.03-.54-2.18-1.98-2.6l-7.62-2.23c-3.15-.92-5.14-3.41-5.49-6.31-.38-3.16,1.38-6.25,4.52-7.77,5.54-2.67,11.48-1.65,16.6.86-.87,2.37-.99,3.74-2.46,5.61-1.22-2.41-13.22-3.95-11.84,1.26,5.57,3.65,13.99,1.78,15.22,9.3.51,3.09-.87,5.86-4.41,7.89Z" fill="#fff"/>
  <path d="M383.43,218.02c1.99,1.84,3.27,3.08,4.48,4.53-6.71,6.2-17.08,6.4-22.83-.5-5.21-6.26-3.78-14.77,1.88-19.59s15.07-4.72,20.35,1.3c-1.23,2.03-2.51,3.1-3.9,4.18-3.41-4.03-8.61-3.76-12.09-.93s-3.53,9.5-.15,12.34c3.56,2.99,9.83,2.56,12.26-1.33Z" fill="#fff"/>
  <path d="M472.06,226.56c-2.18.95-3.83.61-6.01.24l-.07-21.73-8.84-.16c-.26-1.66-.22-3.11-.03-4.89h23.77c.19,1.79.23,3.23-.03,4.89l-8.86.15.06,21.5Z" fill="#fff"/>
  <path d="M877.08,226.59c-2.55.92-4.49.57-7.05.22l-.05-26.69c2.56-.19,4.51-.19,7.03,0l.07,26.48Z" fill="#fff"/>
  <path d="M561.65,225.53c-.04,2.17-4.75,1.75-6.54,1.23l-.14-26.65c2.61-.18,4.42-.2,7.14.01l-.45,25.41Z" fill="#fff"/>
  <path d="M566.01,192.47c-3.34,3.16-5.99,6.4-11.23,5.5,1.59-5.12,6.6-7.33,11.23-5.5Z" fill="#fff"/>
  <path d="M875,197c-1.78.76-3.11.76-4,0,1.61-1.85,2.76-4.29,5.13-4.89,1.4-.35,2.91,1.08,3.81,1.27-1.45,2.42-3.31,3.02-4.94,3.62Z" fill="#fff"/>
  <path d="M875,197c-1.08.5-4.76,2.64-4,0h4Z" fill="#fff"/>
  <g>
    <path d="M12,163c-.88-3.86-2.87-6.26-5.97-7.19-2.58-2.69-4.59-5.63-6.03-8.81v-4l4.28.59c-.33-3.11-2.28-4.23-2.33-6.57-.04-1.64,1.19-3.2,2.66-3.94.89-.44,1.44,1.92,3.15,2.05.6-2.33-.1-7.18,2.68-7.53,2.35-.3,5.05-.86,7.78-1.43,1.83.29.87,5.78-1.66,6.6,1.09,2.11,2.25.79,4.01.08,1.71,3.8-1.25,7.34-5.63,8.5-1.59,1.49-.24,2.21,1.43,1.16,1.15-.62,3.19-.88,3.58-.05,2.07,4.37-11.31,5.7-3.33,23.49-3.23.66-3.21-2-4.61-2.96ZM12.09,153.71c-.68-1.06-2.28-1.83-1.97-3.07s1.72-1.7,2.91-3.18c-2.2-.35-3.57-1.43-3.15-3.9.24-1.39,1.68-2.5,2.81-3.84-.41-1.06-2.5-2.35-1.36-3.76.82-1.01,1.13-2.2,2.71-3.41-.74-.86-2.29-.76-3.09-.08-1.81,1.55-.11,4.58-1.98,7.86-.45.79-1.88-.88-3.4.34,1.21,1.88,2.4,2.7,2.53,3.95.16,1.54-.25,2.81-1.94,3.92,4.26,1.28,2.08,6.66,5.93,5.18Z" fill="#fff"/>
    <path d="M137,0c4.18,4.03,5.67,10.19,2.67,15.65-1.38,2.52-3.77,3.58-6.17,3.57s-4.76-1.01-6.21-3.62c-3.01-5.4-1.18-12.32,3.71-15.6h6ZM136.81,14.34c1.74-4.16,1.64-8.12-.63-11.65-.84-1.3-3-.73-4.14-.23-2.35,1.02-4.11,9.9-1.1,13.81,1.57,2.04,4.86.48,5.87-1.92Z" fill="#fff"/>
    <path d="M4.2,159c.87.38.85.72-.06,1H0v-3c.75-.57,1.78-.95,2.55-1.04,2.01-.24,1.42,1.82,1.65,3.04Z" fill="#fff"/>
    <path d="M93.53,248.65c-2.07-.73,1.26-3.39,1.34-4.86-4.54,1.21-6.84,5.64-11.54,4.86-1.29-.21-1.6-1.99-1.22-2.95.34-.87,1.71-1.25,2.04-3.42-1.06-.8-8.93,6.41-11.14.64l3.03-3.97c-3.08.37-13.53,2.86-13.87-1.42-.05-.66,1.51-2.08,2.21-2.15,3.69-.38,4.92-2.72,6.72-5.31,1.65-2.37,6.13.47,7.48,1.94.94-1.72.06-3.22.57-5.11,3.98.22,6.89,2.5,9.55,5.23.85-1.7-.31-2.63-.48-3.98,1.35-1.51,3.06-1.38,5.03-.97,2.86.61,3.21,5.69,5.34,6.81,1.62-2.38,4.53-2.79,6.13-.76,4.34,5.52,10.12-4.47,15.74,1.65-2.06,2.74-5.53,1.4-7.9,2.83-3.15,1.9-6.84,3.1-9.72,5.19-2.66,1.94-4.45,7.24-9.31,5.75ZM98.75,240.68c.57.68-1.95,2.38-.22,3.48,1.49-2.64,4.31-4.3,5.42-7.09-3.31.36-4.75,1.81-6.85.52-1.19-.73-1.83-2.04-2.66-3.69-.82,2.1-1.12,3.59-2.9,3.29-4.61-.77-4.48-2.61-6-2.81-.92-.12-.99,4.93-11.34-2.4-.3,1.26.97,2.42-.05,2.8-.81.31-2.33-.47-2.25,1.98,3.11-1.13,6.21-.29,9.46.81-.6,2.04-2.41,1.88-2.17,3.61,3.23-.86,5.53-3.35,8.53-2.86,1.48.24.99,3.33,2.09,4.4,2.15-2.82,6.11-5.43,8.93-2.05Z" fill="#fff"/>
    <path d="M64,222c1.16,4.11,4.95,4.39,5.1,8.31-14.01-7.51-14.17-2.33-16.9-3.44-1.28-.52-1.46-3.35-2.7-3.01l-3.81,1.04c-3.27.89-6.6-2.19-9.24-5.02,2.78-2.04,5.52-1.28,8.7-2.33-1.46-.92-14.79-4.15-11.7-7.6,2.23-2.49,4.04,1.74,6.63-.6l-6.46-4.16c.92-2.5,3.33-1.65,4.87-2.59s-.24-4.33.74-5.18c1.84-1.61,3.55.58,4.43,2.77,1.66-.67,1.62-2.56,3.62-3.71,3.03,3.69,2.45,7.93,2.97,12.67,1.33-1.38.89-3.25,2.02-5.06,2.42-.68,4.75,1.23,4.76,3.89l.05,8.06c1.78.09,2.37-1.35,3.69-2.14.75,3.34,1.11,6.22,3.23,8.1ZM45,212c-1.62.37-4.34-1.04-5,1-.18,2.44,7.98.94,9.26,3.24.63,1.13,1.48,2.69-.73,3.41-1.77.58-3.95.12-4.63,2.28,3.41.61,5.82-1.07,9.19-1.08,1.34,1.83,2.88,4.32,5.57,2.86.76-.41.54-2.42-.17-2.66-.61-.21-2.28.15-2.95-.45-2.8-2.5-.76-6.19-1.93-9.64-1.29,1.7-.24,4.12-2.01,4.94-7.83-6.5-1.69-4.12-9.05-13-.84,1.09-.37,1.83-1.56,2.63,2.83.93,4.15,3.64,4.01,6.47Z" fill="#fff"/>
    <path d="M35,198c.95.69,3.78,2.34,2.73,3.58-1.22,1.44-3.3-1.06-4.67-.78-1.11.85-1.6.4-.95-.88-7.41-10.52-12.32-4.68-16.29-11.35,9.67-2.75-5.31-.98-7.01-8.18,1.67-.22,4.33-1.3,2.96-2l-3.76-1.9c-1.53-.77-1.2-2.61-.87-4.4,1.37.1,2.12,1.09,3.09.27-.42-1.66-1.21-2.76-.77-3.44s5.75-2.18,6.5-1.49l2.78,2.57c.5-1.3.61-4.22,2.21-3.96,2.83.45,2.64,4.34,1.02,6.49,2.42,7.21.6-1.55,4.03-4.13.75-.57,3.12-.24,3.61,1.03,1.43,3.78-.13,7.45-.69,11.55,1.58-.32,1.9-1.68,2.79-1.91.98-.25,2.05.82,2.24,1.5.29,1.06-7.43,11.26,1.06,17.42ZM23.29,190.67c1.37.57,2.47.78,4.79,1.48-.92-12.64-2.59-1.23-3.32-11.88-3.51-1.72-6.3-4.84-4.87-9.17-2.47,1.43-3.22-.41-4.75-.85-.49,2.13,1.56,2.22,1.68,3.4.06.6-.59,1.16-1.76,1.93,2.67.73,5.63,2.34,6.88,5.64.43,1.13-2.63,1.51-2.93,2.44,2.59.57,5.98,2.17,5.59,4.66-.09.59-2.99,1.68-1.31,2.37Z" fill="#fff"/>
    <path d="M85.03,86.1c.88.09.83.39-.02.86-3.46,3.9-7.03,8.28-11.49,11.52-3.48,2.52-5.73,4.77-6.52,8.52-.58,2.72-2.84,8.1.32,10.67,7.44,6.08,19.77-1.43,20.72,5.87.24,1.81-.95,3.44-2.89,4.51-.34-1.95.15-3.23-.35-4.94-4.57-.61-9,.65-13.75-.24-6.58-1.22-12.45-7.04-12.91-13.95-.44-6.54,1.86-14.25,7.08-17.61l11.01-7.08c1.84-1.19,2.46-3.22,5.17-2.51-.97-2.76-2.7-2.7-3.59-3.66-1.48,1.25-1.99.68-.88-.95-.19-11.38,12,2.52,8.1,8.98ZM80.71,83.11c-3.8,4.94-8.94,6.58-13.05,10.52-5.82,5.58-8.9,15.52-2.8,21.48-8.71-16.36,18.67-24.52,15.85-31.99Z" fill="#fff"/>
    <path d="M215.15,139c.85-2.29.39-4.7-.15-7,2.99-10.04,2.66-19.99-2.12-30.26-.34-.73,2.68-1.15,3.2-.37.4.6.53,1.63.87,2.37,4.67,9.85,2.87,19.25,1.38,29.23-.65,4.3.95,30.85-6.66,28.98,1.9-6.8,1.78-13.06.11-19.7-2.45-9.72-1.27-22.13-4.02-26.13-3.94-5.73-8.19-10.34-9.06-17.87-.15-1.31-1.46-2.69.24-3.85,4.28-2.93.97,6.45,10.59,18.09,6.39,7.74.98,21.9,5.62,26.51Z" fill="#fff"/>
    <path d="M225,195c.48.94.21,1.27-.81,1-1.55.34-2.94,2.03-4.68.06,3-2.9,4.25-5.81,4.5-9.06-2.34-1.57-1.69-3.61,1-4l3-8c-1.14-2.48.79-8.59,4.1-7.9,1.16-1.42,2.36-2.75,3.15-5.18,1.37.21,1.67,1.29,2.45,2.17.93-1.92.61-3.95,2.96-4.28l-1.18,11.87,3.54-3.92c.73-.81,2.65.14,4.08,1.23-3.4,9.84-5.03,20.93-17.42,20.74,1.05-3.79,4.77-3.72,5.19-7.31-5.01,2.87-8.01,7.57-9.88,12.56ZM228.16,185.06c4.15-4.81,6.07-10.19,6.63-16.2-2.23,5.54-5.61,10-6.63,16.2Z" fill="#fff"/>
    <path d="M206,91c1.7,1.64,3.36,4.1,5.65,2.15-6.81-17.66-18.57-31.47-32.97-42.9,4.33-1.06,6.27,3.05,9.09,4.94,8.66,5.79,20.96,22.76,25.18,32.84,1.65,3.93,3.99,6.99,7.06,9.36-4.36,4.26-16.71-2.13-18.69-5.77-8.06-14.88-19.71-25.51-32.04-37.65,11.66,5.83,19.06,16.34,27.4,25.33,2.66,4.66,5.24,9.05,9.32,11.7Z" fill="#fff"/>
    <path d="M94.58,175.34c4.17,5.33,23.35,9.06,29.13,3.71.87,1.93.02,3.23-1.35,4.42l-5.44,4.71c-.97-1.58-1.97-3.18-3.48-3.24-4.54-.19-4.68,2.03-7.57,2.11-1.93.05.22-1.47-.16-2.11-3.41-5.64-9.42-.74-10.85-.92-1.63-.21-.12-1.8-.37-2.79-.39-1.56-3.06-1.48-3.82-2.98-3.44-6.77,4.33-11.21,1.42-19.47,2.89.59,3.65,2.19,5.04,1.83,1.98-.52,2.86-1.89,3.57-4.05,3.57,2.36,4.51,5.7,7.81,5.64,1.27-.02,2.23-1.18,3.78-2.48,1.9,1.35,4.13,8.44,6.21,8.35s2.13-5.34,6.93-3.96c1.7.49,2.62,3.95.74,4.95-2.11,1.12-3.07,1.74-4.28,4.92-1.47-3.75-2.95-3.85-4.99-5.11-5.21-3.23-12.13-7.68-18.55-5.26-3.08,1.24-5.76,9.19-3.76,11.73Z" fill="#fff"/>
    <path d="M191.11,38.31c-.11.64-.35.62-.71.02-6.75-2.26-7.89-5.86-17.46-9.35,3.27-2.55,5.06-5.77,6.09-10.05-4.66,1.91-8.22,12.25-9.94,7.65.83-3.14,1.55-6.72.51-10.61-1.29,3.03-4.06,5.73-2.87,9.73-1.66.59-3.29-.99-4.77-2.25,4.11-1.62,4.15-5.52,5.73-8.77,1.25-2.59,2.94-4.53,1.04-7.58,2.23-.32,3.38.81,4.31,1.46,2.93,2.06-1.26,8.45.19,12.52l8.17-7.71c1.56-1.47,4.26.26,5.77,1.29-3.88-.29-8.09,12.96-8.16,14.39-.04.88,1.71,2.37,2.35,1.84,1.41-1.17,9.05-12.39,7.79-15.01,3.27,2.12,6.75,3.9,9.55,6.43.79.71-1.88,4.69-2.2,3.56l-1.05-3.66c-.23-.79-2.24-1.61-3.79-1.11-1.03.33-1.06,2.35-2.21,3.75-1.26,1.54,2.45,1.88,5.34,1.27-1.14,2.16-2.46,4.22-4.54,6.01-.58-1.82.09-4.13-1.66-4.92-1.34.48-3.26,2.89-3.39,4.77-.1,1.58,1.71,2.52,2.58,2.92,1.2.55,2.75-.56,4.76-1.03,1.42,2.05-1.45,2.7-1.45,4.44Z" fill="#fff"/>
    <path d="M206,199c1.79,1.78-3.1,6.96-5,5-1.28,1.19-1.95,2.52-2,4,1.41-1.33,1.92-.77,1,1-.78.63-2.27,2.28-1.45,3.69,5.99-5.17,11.25-12.1,18.66-15.82,8.19,6.86-11.94,19.92-16.28,23.05.81,2.44.15,2.8-1.86,1.14-4.73-.81-8.37,3.15-12,6.1-1.44-.33-1.27-2.02-.67-3.07.35-.63,1.32-1.11,1.61-2.1,1.47-.58,2.88-1.42,4.48-2.85-.76-16.12,5.2-13.81,15.78-25.85.96,2.77-1.43,4-2.26,5.7ZM199.43,217.43c3.55-3.36,5.37-6.79,9.42-8.59,2.38-2.81,6.73-3.58,7.15-8.03-4.14,4.87-17.51,11.78-16.57,16.62Z" fill="#fff"/>
    <path d="M153.08,236.18c1-3.93,16.15-9.94,19.81-9.38.42.06.77.57,1.11,1.19,2.63.36,5.16-.18,7.73-1,1.48,1.23,1.4,2.52-.61,1.92-5.44.57-9.53,4.48-14.28,6.06l-12.65,4.22c9.39,4.27,20.76-10.87,30.44-8.97-5.81,6.94-14.35,8.98-22.14,12.35-11.09,4.79-12.59-5.07-28.18-6.68-.61-.22-.48-2.25-.05-2.9,7.02-.94,16.31,6.43,18.81,3.19Z" fill="#fff"/>
    <path d="M134.07,174.89c-1.22.9-1.67.38-.88-.95-1.06-6.29,3.04-4.89,7.86-8.58-1.86-2.28-3.65-.56-5.59-.31-1.61.21-1.59,2.26-2.64,3.69-.96,1.32-3.12,2.11-3.83.32-.92-2.34-.63-6.46,1.95-6.9,2.23-.38,4.47,1.92,6.82.63,1.82-1,5.62-.75,6.22,1.07-.99,3.33-5.28,3.93-5.69,7.53,2.96-2.62,11.98-9.42,13.66-7.98.52.45,1.27,1.31,2.04,1.6q4.16,3.77,0,0c-.51-1.32-1.65-2.72-.11-4.76,4.2,7.71,14.88,2.89,11.98,10.8-.95,2.59-5.14,5.34-7.58,3.83l-7.13-4.41c-.56-.35-1.78,2-2.32,1.52-.69-.62-1.16-1.31-1.88-2.91-3.02,2.06-6.16,4.29-8.66,7.68-1.84,0-2.87-1.36-4.23-1.86Z" fill="#fff"/>
    <path d="M178,153c-2.06-1.32-3.72-2.65-5-4-1.27,1.11-1.77.59-1-1-2-1.2-3.66-2.53-5-4-1.38,1.13-1.92.57-1-1l-4-3.19c-.25,1.09-.96.82-2.14-.81-.37-1.81-2.07-3.34-1.22-5.32l30.16,23.56c3.12,2.44,7.76,2.71,10.15.42l-41.3-31.95,45.69,31.23c-4.45,6.49-12.44,6.55-17.73,1.51-1.76-1.68-5.76-5.18-7.61-5.44Z" fill="#fff"/>
    <path d="M28.29,83.11c-1.04-5.9-10.3-10.76-12.86-15.97l19.18,1.58c3.45-2.11-9.26-9.93-10.55-10.4,1.23.45-3.11.63-2.96-.82-.15,1.5,4.12-7.31,8.63-8.33,4.15-.94,6.9.69,9.61,3.5,7.15,7.42-1.75,12.76-5.94,21.35-1.36-.43-2.52-2.48-3.93-2.18-1.53.33-2.71,1.62-3.29,3.85-.44,1.72,2.87,1.95,4.79,2.48-.01,2.01-1.15,3.66-2.68,4.93ZM38.04,64.17c2.34-4.83.73-8.94-2.77-10.74s-7.07-2.7-9.65,1.65l12.42,9.09ZM25.64,71c-.84.23-2.63-.5-3.31.23-1.37,1.5.59,1.52,1.59,2.26,1.12.83,1-.15,1.72-2.5Z" fill="#fff"/>
    <path d="M208.13,131.99c1.15,7.84,1.82,15.46-1.26,23.39-2.32-3.2-1.64-6.74-1.93-10.4-.45-5.8-2.96-10.86-4.56-16.38-1.44-4.96-1.03-10.79-3.85-15.11-3.99-6.12-10.09-11.19-9.12-19.17,4.23,2.7,3.1,7.49,5.77,10.43,11.46,12.59,7.11,15.08,11.44,27.4,1.82-6.06-1.42-10.78-1.22-16.95,5.59,4.35,3.9,11.15,4.73,16.79Z" fill="#fff"/>
    <path d="M128,180.32c.73-.43,1.05-.19,1,.68.67,4.1-6.28,16.95,1.49,17.23,2.48.09,4.95-1.08,5.39-4.3,1.31-9.48,8.85-2.43,22.18-10.84,2.59-1.63,1.71-5.78,5.27-7.71,2.11,4.69-.1,9.45-4.65,11.35-1.92.8-1.06,3.74-2.15,4.93-1.5,1.65-3.26-1.8-4.58-1.57-3.82.69-8.26.54-11.46,2.43-2.18,1.72-1.64,5.56-3.19,7.96-4.29,1.22-8.66.8-13.05-.77-1.13-3.11.13-19.3,3.74-19.4Z" fill="#fff"/>
    <path d="M200,144l-1,6c-3.6-2.28-1.6-8.04-3.77-12.15-3.59-6.81-5.37-13.77-6.92-21.22-.7-3.38-11.47-8.83-12.24-18.19-.03-.33,1.21-1.56,1.46-1.37s1.12.73,1.25,1.15c1.96,6.19,6.22,10.08,10.35,14.68,3.75,4.18,2.74,13.21,6.5,18.27,1.91-6.79-2.02-11.63-2.61-18.51,5.82,3.29,7.33,29.01,6.98,31.35Z" fill="#fff"/>
    <path d="M181.19,80.85l-11.84-12.18c-.79-.81-.59-2.48.09-3.81,2.22,1.79,13.99,14.14,14.34,14.41,3.99,3.15,5.14,8.53,10.42,11.1-4.02-11.56-18.81-21.39-24.69-30.54,5.75,1.78,8.81,6.27,12.75,9.95,6.49,6.06,12.27,12.86,15.76,21.2.48,1.14-3.31,3.19-4.29,2.52-4.97-3.4-8.46-8.46-12.53-12.65Z" fill="#fff"/>
    <path d="M45.12,141.07c-.19-.85.12-1.14.95-.86,2.6-.33,4.04-1.9,6.19-4.98.44,3.55,8.75,11.8,9.19,11.78.73-.03,2.58-1.47,3.12-.87,1.75,1.92-1.43,3.98-1.41,5.91s1.86,4.34-1.04,4.91c-1.57-5.96-4.39-12.11-10.53-14.73-2.89-1.23-9.45,4.2-8.43,7.36,2.5,7.76,10.56,11.1,17.69,12.77-3.44,5.02-3.89-2.87-10.86,3.28.12-8.92-10.82-5.75-8.59-8.33,3.05-3.53-2.88-4.42-5.52-9.21,6.68-.68.76.32,9.25-7.04Z" fill="#fff"/>
    <path d="M128,31c.26,1.17-.74,1.83-3,2-.89.52-2.04.59-2.55,1.16-4.17,4.57,9.97,6.66,13.62,10.9,5.36,6.22,13.67,29.58-1.65,36.66-.66.31-1.98-1.94-1.45-2.22-.09.05,5.51-4.96,6.38-7.1,1.79-4.38.16-8.91-.35-13.3-1.03-8.72-6.35-14.7-14.84-17.25-3.7-1.11-7.09-5.56-4.36-9.05,1.88-2.41,5.75-1.73,8.2-1.8Z" fill="#fff"/>
    <path d="M247.12,143.12c1.77,2.83.26,5.46-3.12,4.88-3.42,2.04-3.81,6.71-4.11,11.11-2.63.03-1.84-2.08-1.91-4.16-1.25.25-1.49,1.61-2.45,1.66,1.89-.09-7.39-1.81-6.45-4.91.41-1.35,1.34-2.78,3.46-3.67l5.01,6.02c.84-1.72,1.22-4.22,1.46-6.06-.2-.95-.2-1.95,0-3-.87-.28-.86-.62,0-1,0-.33-.07-.68,0-1,1.08-2.58.55-5.36,0-8,1.05-3.52,1.88-7.16,4.31-9.82,1.15,1.66,3.53.65,4.05,2.18,1.88,5.53-.18,10.67-.24,15.75ZM242,139c.64-2.33-2.95,5,0,5h1c1.79-.71,1.55-4.13,0-5l2.76-11.2c-2.86,3.24-2.75,7.52-3.76,11.2Z" fill="#fff"/>
    <path d="M86.27,64.73c.36-1.49,1.93-1.55,1.73.27,2.8-1.63,4.83-1.6,6.09.1.81,1.11,1.73,1.53,3.45,2.98-3.45,2.93-6.58,5.9-10.54,5.92-.81.13-1.03-.17-.65-.89l-2.35-3.11-5,1c.83,1.26.05,2.31-2.34,3.14l.27,2.98.88.95c-.04.54.49,2.18-.03,2.79-5.46.77-8.91-2.65-10.77-6.85,1.49-3.63,3.16-7.15,7.66-7.79-2.16-5.23,6.4.07,11.61-1.48ZM73.44,76.69c.52-3.85,1.41-5.5,3-6.82,1.99-1.65,4.29,0,7.28-1.63-3.12-3.24-6.08-.26-9.04.38-2.43.53-4.77.89-4.56,3.79.11,1.48.86,4.63,3.32,4.28Z" fill="#fff"/>
    <path d="M178,179c1.5,1.37.88,1.99-1,1-1.78.97-2.6,2.86-4,5-3.05.35-6.28,2.79-9.75-.3,3.75-1.16,6.81-.64,8.77-3.2s3.41-5.7,2.98-9.58c1.84.06,2.95,1.38,4.22.98,1.41-.44,1.91-2.24,3.19-4.26,2.68,1.96,5.34,3.97,7.49,6.24,2.3-3.37,5.53-4.8,8.09-3.33,2.41,1.38,4.63,5.27,2.19,7.49-2.89,2.63-7.79,4.5-10.56,1.5-1.2-1.29-.1-3.96-1.7-4.81-1.25-.67-2.62-2.14-4.66-1.5s-4.19,2.98-5.26,4.78ZM197.46,173.32c-1.68-1.54-6.12,1.31-6.2,3.71-.09,2.6,3.42,2.06,4.8,1.59,1.59-.55,3.21-3.64,1.4-5.29Z" fill="#fff"/>
    <path d="M170.56,192.91c-1.48,1.3-1.28,2.72-3.35,3.49-.77-7.47-7.55-5.2-8.11-7.89-.61-2.93,12.48,1.68,13.73,1.86,2.72.39,15.35-.21,18.91-4.44.86-1.02.8-2.66,1.77-2.94,2.38-.68,6.36,6.65,5.47,3.59.94,3.21-6.8,1.7-9.6,5.77-.45.66.25,1.72.22,2.21s-1.16,1.76-1.63,1.42c-6.1-4.27-9.98,0-17.41-3.08Z" fill="#fff"/>
    <path d="M89.56,172.5c-4.91,5.58-10.3-.3-16.84,4.68-1.67-5.59-6.45-7.24-12.21-4.98,1.23-13.46,2.78-10.87,7.01-20.76,2.6,2.53,4.37,2.29,7.1,3.2-1.76,2.35-3.3,1.06-5.64,1.55-.96,2.71-4.71,6.41-3.79,9.78,4.95,7.92,16.06,5.36,24.37,6.52Z" fill="#fff"/>
    <path d="M46,98c-.28-1.73.55-2.37,1.44-2,2.56,1.07,4.1,8.03.96,13.34-6.36,10.75,10.69,12.81,10.48,20.69-.12,4.27,1.36,9.27,6.23,9.95,2.47.35,5.36-.54,7.06,2.26-3.61,2.93-7.51,1.77-10.59-.28-8.18-5.44-1.15-11.88-10.42-18.1-15.13-10.16,2.89-17.98-5.15-25.88Z" fill="#fff"/>
    <path d="M131,33.01c-2.17-1.09-.99-1.58,1-2.01,12.81.93,25.48,4.52,37,11.13,3.72,2.13,6.81,3.21,11.71,3.32-4.54,7.28-16.68,6.23-16.8,3.08-.04-1.13.15-3.51,1.63-2.27,1.27,1.06,1.38,2.89,3.04,2.92,1.06.02,3.38-.69,3.18-1.8-7.25-8.07-31.45-14.34-40.76-14.36Z" fill="#fff"/>
    <path d="M183.63,112.92c5.17,6.24,6.59,15.33,4.7,23.75-5.1-7.35-3.89-16.89-13.77-23.2-1.72-1.1-13.45-8.35-7.97-11.5,5.72,10.11,13.72,8.63,17.96,19.16,1.77-3.1-2.12-4.31-.93-8.2Z" fill="#fff"/>
    <path d="M232.1,167.1c-2.02,2.47-1.5,5.89-4.1,7.9l-3,8c.17,1.52-.9,2.68-1,4-8.97-2.47-1.51-20.71,4.06-25.17,1.17,1.15,1.75,1.54,2.1,1.29l1.68-1.19.26,5.16ZM224.53,174.02c-1.16.92-1.56,1.33-1.61,2.43-.26,5.29,3.42-4.04,1.61-2.43Z" fill="#fff"/>
    <path d="M171,88c-1.67,1.83-5.07-2.22-4-4,.13-2.08-1.78-2.99-3.15-4.88,4.78-1.9,15.83,17.45,19.08,12.36,2.26-3.53-15.6-16.47-16.39-20.73,5.37.92,23.83,19.89,18.63,23.49-6.03,4.18-11.94-5.49-14.18-6.25Z" fill="#fff"/>
    <path d="M109.82,19.98c-.89-.02-.87-.27-.04-.72,2.4-5.67,1.92-12.67-1.96-18.06,3.7-.12,6.87-.47,10.15-.1,4.66.53,6.21,4.9,6.32,8.82.15,5.43-2.8,8.83-8.14,9.53-2.25.3-4.35.53-6.33.53ZM121.06,9.55c-.64-4.08-1.85-7.21-7.69-6.62,1.68,4.01-.68,9.22,1.41,13.31.98,1.91,4.28.16,5.07-1.01s1.58-3.32,1.21-5.68Z" fill="#fff"/>
    <path d="M220,209q-1.78,2.36,0,0c2.01-.67,2.33-3.81,4.76-2.06-3.66,6.07-8.53,11.91-14.62,15.24-3.39,1.86-8.82,1.27-12.75,1.83-1.22-.94.78-2.77,1.67-2.95.95-.48,1.36-1.04,1.86-1.14,8.43-1.78,13.67-8.89,19.12-15.47,1.98,1.64.06,3.09-.04,4.55ZM214.4,216.32c1.17-1.42-.55-1.93-1.64-.67-.3.7-1.74,1.37-1.66,1.88.1.62,1.17.69,1.41.47.32-.32.71-.84,1.89-1.67Z" fill="#fff"/>
    <path d="M86.97,25.95c3.1-2.14-1.78-17.5-5.07-17.39,1.63-1.07,2.53-1.4,3.61-1.56s8.59,6.5,10.31,8.17c.27-4.42-1.53-7.86-4.85-9.64,2.14-1.38,3.66-1.86,6.07-1.36-3.22,3.06,4.37,13.77,2.71,18.48l-11.48-9.71c-.79,2.13,1.48,11.01,5.45,10.81-2.23,1.73-3.39,1.98-6.75,2.19Z" fill="#fff"/>
    <path d="M246.78,87.15c-2.01-4.91-12.52,3.87-18.84,4.04,2.98-4.93,5.9-8.68,9.15-12.98-1.64-.84-11.07,2.66-10.35,5.91-1.85-.95-1.44-2.65-2.64-4.91,1.77.59,16.73-3.77,16.76-7.93,1.45,1.53,1.83,3.41,1.6,4.41-2.02,3.7-4.6,6.29-6.44,10.3,3.1-.73,6.4-1.01,8.32-4.69.97,1.4,3.34,3,2.43,5.86Z" fill="#fff"/>
    <path d="M186.2,239.47c-7.96,4.62-24.91,15-32.32,5.73,11.42.52,18.58-6.75,28.17-8.37.63,1.77,2.07,2.03,4.14,2.64ZM177.03,241.27c-3.37.07-5.97,2.21-9.16,3.4,3.47.44,6.64-.75,9.16-3.4Z" fill="#fff"/>
    <path d="M176,224c-.9.32-.88.66.03,1.01.55-.18,2.17.08,1.83.57l-3.86,2.42c-4.1-.32-7.4,3.09-11.67,3.86-3.16.57-5.43,3.96-9.25,4.32-1.88-.1-4.02.15-5.17-1.92,10.94-4.09,5.45-5.65,17.39-10.1,3.14-1.17,9.57-4.89,10.7-.17ZM166.99,227.43c-3.16-.65-4.52.57-6.1,1.15,2.62,1.17,4.39-.21,6.1-1.15Z" fill="#fff"/>
    <path d="M128,250c-4.07,1.1-6.87,4.06-8.75,7.03-1.52-.2-3.6-2.4-3.12-3.35,1.13-2.26,11.24-8.94,11.35-8.98,7.61-2.26,15.9,2.96,19.88,8.64-4.44,2.47-6.14-1.16-8.82-2.74-2.46-1.46-5.86-1.08-7.01-4.59-1.42,1.29-2.65,2.37-3.54,3.98Z" fill="#fff"/>
    <path d="M18.89,113.77c.86-4.42-.44-6.39-3.1-8.54,2.67-.23,4.37.92,6.64,1.41-2.79,6.14.23,14.88-3.97,10.98-2.52-2.34-6.06-1.04-9.12-1.82-2.83-.73-5.48-1.79-6.99,1.36-1.29-2.38.88-13,1.15-13.13,1.2-.55,2.15.44,4.23,1.3-2.28,1.31-3.43,3.6-3.72,6.63,2.26-.12,4.46.68,5.62-.27,1.57-1.29-.63-2.8-2.17-3.78,2.25-2.06,4.15-.17,7.29.32-.21,1.65-2.15,1.77-3.17,4.3,2.68.85,5.2.27,7.32,1.24Z" fill="#fff"/>
    <path d="M206,91c-5.28-10.26-12.28-18.61-19.98-27.05-3.91-4.29-8.71-7.03-12.45-12.12,6.89,1.82,10.5,7.12,15.18,11.43,7.85,7.23,14.06,15.55,18.84,25.11.5,1,.55,2.26-.26,2.56-.43.16-.71.05-1.33.07Z" fill="#fff"/>
    <path d="M202.61,47.69c.1.82-.17.82-.74.1-1.9-.7-3.66-1.52-5.35-4.07,1.56-.74,2.58-.32,2.84-1.11.29-.89,1.12-2.84.54-4.08-1.65-.45-4.44.97-5.68,3.49-1.78-.52-2.94-2.14-3.82-3.69.24.16.48.18.71-.02,2.89-.79,7.36-.88,9.54-3.37,2.37-2.7.8-6.68,1.56-9.98,1.67-.02,5.1,2.73,4.32,4.24s-2.39,2.61-1.46,4.31c.46.83,2.42.89,3.17-.24.7-1.07.99-2.8,2.23-2.24.8.36,2.13,1.81,1.53,3.31-1.85,1.59-4.78,1.05-7.43,2.24-.98,3.76-2.78,7.65-1.95,11.11Z" fill="#fff"/>
    <path d="M250.1,98.68c-.76,4.68-5.41,6.68-8.85,7.3-3.95.71-8.49-1.07-10.08-5.03-1.43-3.56,1.05-5.76,2.76-7.53,2.48-2.57,5.41-2.51,9.12-2.47,4.1.05,7.92,2.37,7.05,7.72ZM247.36,95.32c-3.26-3.41-12.58-.89-14.17,3.51-.87,2.42,1.63,3.54,2.72,4.05,2.25,1.06,16-2.8,11.45-7.56Z" fill="#fff"/>
    <path d="M104.4,204.78c-.44,3.8,1.33,7.41-.9,11.2,3.27,1,3.18-3.19,4.39-2.96,3.74,1.04.65,4.06-.7,5.02-2.26,1.58-4.31.35-5.83-.84-3.03-2.38.17-4.18.05-6.52-.2-3.84-.34-7.51.03-11.43.19-1.98-2.9-4.19-.99-6.34,1.49-1.69,3.41-2.63,6.12-1.32,1.17.56,2.02,1.18,2.32,2.07.37,1.13.48,3.92-1.36,3.15-1.2-.5-1.51-2.36-2.02-2.84-.67-.62-2.96,1.46-2.35,2.06,2.22,2.2,1.68,5.21,1.27,8.75Z" fill="#fff"/>
    <path d="M52.6,48.96c-1.07,3.12-4.08,3.94-6.14,4.15-4.46.46-10.06-5.02-11.13-9.14-.6-2.31-.19-5.71,2.51-7.15,3.36-1.78,8.42-1.25,11.09,1.55,2.24,2.35,5.12,6.34,3.67,10.59ZM50.56,47.35c-.85-4.76-7.62-11.12-11.59-8.92-2.35,1.3-1.17,8.42,6.13,11.67,1.42.63,2.85,1.41,3.76.47.51-.53,1.98-1.65,1.7-3.22Z" fill="#fff"/>
    <path d="M147.56,216.78c1.12-.33,1.5-1.56,1.4-2.12-.09-.52-1.85-1.58-1.78-2.12.56-4.13,1.48-7.56-.23-11.65-.61-1.47,1.96-2.64,2.08-3.89.13-1.38-1.68-.99-2.51-1.01s-.94,2.5-2.24,2.94c-2.39-.22-1.28-3.57-.32-4.59,1.38-1.47,3.45-1.66,5.34-1.15,1.34.36,3.54,2.52,2.55,4.43-1.61,3.12-.14,5.7-.33,8.52-.24,3.49-.43,6.2.46,10.01.54,2.32-3.43,4.25-4.9,3.43-2.12-1.18-5.15-2.57-3.87-5.73,2.26-.05,2.74,2.76,4.36,2.93Z" fill="#fff"/>
    <path d="M101,98c-.56,1.59-.56,3.25,0,5,.95,3.13.79,7.9,5.72,8.26.47-2.02.41-3.84.28-5.26l-1-7c.34-1.79.82-4.45,3.86-5.3-3.35,12.18,4.32,19.06-1.68,21.18s-7.46-6.43-9.18-7.88c-.86-5.2-2.71-11.09,2.22-15.68,1.16,1.93.38,5.27-.22,6.68Z" fill="#fff"/>
    <path d="M148.37,4.29c-3.08,4.06,8.14,8.06,3.77,14.24-2.01,2.85-4.61,2.68-8.27,1.66-2.09-.58-2.04-1.75-1.95-3.68.06-1.37-.08-3,2.07-3.44-.17,1.99,1.28,6.43,3.33,5.68,6.05-2.2-4.05-8.77-2.93-12.81.53-1.93,1.65-5.04,4.39-4.37,1.7.41,3.85.76,5.01.98.32,2.3,1.07,6.4-1.21,6.44-1.05-.95-.54-3.17-1.05-4.01-.44-.72-2.37-1.75-3.16-.71Z" fill="#fff"/>
    <path d="M71.59,12.61c.9,1.85-.36,2.74-.36,4.1l5.1,9.98c.66,1.3,2.17,1.45,3.08,1.41,6.97-.29-1.63-14.76-4.69-16.53,2.2-1.28,3.56-1.57,5.12-2.65l-.45,3.73c-.48,3.99,4.48,8.35,4.47,13.31,0,2.5-4.24,5.02-6.28,4.64-6.76-1.24-5.89-12.49-12.2-14.63,2.28-1.65,3.5-1.93,6.22-3.37Z" fill="#fff"/>
    <path d="M138,132c2.29.36,5.14,5.29,3.19,7,.21,2.24-.43,4.45.48,7.09.41,1.2-1.3,2.87-2.2,2.94-2.63.2-5.51-6.75-9.47-7.03-.22,1.92-.98,1.86-1.29-.09l.29-.91c.55-.38.54-.6,0-1-1.43.98-1.96.4-1.08-1.09-1.41-.71-1.38-1.35.08-1.91-.24-1.16-.95-2.32-.98-3.55-.03-.93,1.06-1.39,1.98-1.45,1.24-1.03,3.4,1.8,2,3l3,5c.27-.84.6-.83,1,0-.01,1.18-.35,2.68.75,3.75.67.65,2.87,1.95,3.27.56l-5.28-14.01c2.25-1.04,3.53.33,4.26,1.71Z" fill="#fff"/>
    <path d="M57.24,44.68c-1.08-1.34-3.46-2.41-4-4.84,2.98.79,7.4,2.35,7.52-.74.19-5.13-8.04-1.01-12.15-5.15-1.21-1.22-2.13-3.33-1.07-5.4s3.56-2.1,5.01-4.51c1.36,2.07,4.37,2.67,4.48,6.23-2.77-.8-4.44-3.56-6.78-1.9-1.01.72,0,2.84.81,3.18,3.03,1.28,10.44-1.19,11.97,4.93,1.02,4.08-1.39,5.49-5.79,8.19Z" fill="#fff"/>
    <path d="M237.81,118.83c-6.24-1.73-3.6-5.9-4.77-9.53,2.52-.59,4.52-1.93,7.07-.82-1.75,1.12-6.08,4.08-4.68,5.78,6.23,4.85,7.84-10.22,14.31-6.44,3.37,1.98,4.78,5.24,2.21,8.28-.65.76-2.07.64-2.59.93-.85.46-3.47-.67-2.11-1.61l3.39-2.34c1.08-.75-.18-3.26-1.61-2.94-3.19.71-6.5,9.99-11.22,8.69Z" fill="#fff"/>
    <path d="M83,139c-.85-.4-1.43-2.13-1.84-2.86-.67-1.18.92-2.69,1.84-4.14,1.06-.19,2.13.36,3.11.46,1.61.16,2.68,1.66,1.51,3.4-.2.3-1.18-.43-1.47-.63-.43-.31-1.01-.16-1.2.32-.2.51.61,2.35,1.71,2.37,3.47.06,6.32-3.2,9.31-5.13.36-2.17-1.59-3.82-.72-5.53,1.18-1.15,2.5,1.32,3.25,1.62.67-.57.46-2.73.99-2.69s1.89,1.01,2.83,1.16c.16,1.75-.22,3.38,1.98,4.72-2.6.84-3.36-1.22-5.07-2.12-.5,1.82.06,3.8-1.38,4.88l-9.84,7.34c-1.6-1.37-2.93-2.18-5-3.16Z" fill="#fff"/>
    <path d="M99,107c.23,1.38.19,3.71-.67,4.76-.75.91-3.97,2.1-4.63.87-1.4-2.61-1.07-5.85-2.83-8.54-3.45-5.28-1.88-11.95,3.13-15.08-1.7,6.48-4.51,14.23,1.89,19.73-.26-6.58-4.17-11.27-.54-16.39.4-.56.84-1.23,1.22-1.35,5.13-1.61-5.22,9.61,2.44,16.01Z" fill="#fff"/>
    <path d="M121,95c-.83,1.93-.84,4.07,0,6-.44,2.73.91,4.73.8,6.85-.17,3.2-2.6,4.55-5.24,4.35-7.24-.55-5.47-10.17-5.5-16.11,0-1.09,1.09-1.69,1.48-2.1,3.26-3.43-2.17,9.46,3.65,15.14,4.28-1.5-.59-12.69,3.57-17.59,1.91.86,1.24,2.4,1.24,3.45Z" fill="#fff"/>
    <path d="M20.06,104.05c-1.56.29-2.94-1.41-4.06-1.68,2.37-.82,5.1-1.07,5.99-3.26.6-1.47-.48-2.13-1.11-2.35-5.82-2.01-6.99,7.27-14.23,3.13-2.53-1.44-1.86-4.4-.74-7.47.92-2.5,5.87-2.13,7.08.2-2.7.61-5.48.69-5.95,3.5-.15.88,1.64,2.13,2.25,1.77,4.95-2.96,6-5.4,10.15-4.92,2.2.26,3.73,2.51,4.41,4.81s-1.1,5.76-3.79,6.26Z" fill="#fff"/>
    <path d="M131,110c-.14-.7-.05-1.43.33-2.11.34-.6,1.4-.62,1.85-.97,1.95-1.32,4.78,4.63,2.9,6.01.8,2.1,1.76,3.07,2.85,2.9.72,1.78,1.14,1.17,1.26-1.82-.54.37-.99.64-1.15.51-1.17-.88-5.75-9.08-4.04-10.51-.64-1.23-2.04-2.76-.28-4.18,3.94,4.02,14.77,21.24,6.18,23.1-4.61,1-8.17-12.96-9.9-12.93Z" fill="#fff"/>
    <path d="M220.47,49.32c-3.47,1.29-7.32,5.06-7.41,8.68s4.36,2.81,6.57,5.32c-3.56,1.31-7.21-1.4-8.62-3.9-1.94-3.44-.19-7.09,2.71-9.73,3.31-3.02,8.92-6.01,12.04-2.36l5.29,6.2-6.11,4.35c.49-3.17,2.07-4.5,1.58-6.07-.73-2.32-2.72-3.72-6.05-2.49Z" fill="#fff"/>
    <path d="M114.13,124.87c-1.78,1.58-4.41-2.56-2.94-3.87-.65-1.65-2.53-3.15-1.77-5.31,2.59.6,3.61,2.13,4.76,3.24l1.45-.38,4.38,6.45c2.92,2.01,1.55,3.92,1.31,1.73-.05-.42.22-.87.57-1.33.02-4.52-3.98-7.24-5.66-11.68,3.68-1.96,10.35,15.67,10.35,15.74-.06,1.28-1.56,4.36-3.51,3.41-3.06-1.49-6.55-6.29-8.93-7.99Z" fill="#fff"/>
    <path d="M52.15,98.07c-1.31-1.43-.76-1.96.92-.92,6.88,6.97-4.51,15.92,1.14,19.48,5.62,3.54,9.9,8.13,10,15.19,1.28,1.27,3.36,1.17,4.2,3.85-4.29.67-6.76-3.06-6.99-7.12-.4-6.87-10.11-9.52-11.25-13.34-1.62-5.4,5.09-7.07,1.99-17.14Z" fill="#fff"/>
    <path d="M25.35,91.12c-.44-2.67-1.26-3.36-3.3-4.1l-10.65-3.87c-1.43,1.54.22,3.23,1.97,5.09-1.36,1.64-5.25-.59-5.16-2.28.19-3.62,2.19-6.93,3.69-10.29.83-1.85,6.05.24,4.84,1.82-.85,1.11-2.68.3-3.25.53s-.95,2.43-.17,2.65c7.31,2.07,12.06,5.69,14.62,3.27-.03,2.8-.28,4.89-2.58,7.18Z" fill="#fff"/>
    <path d="M172.17,113.88c4.17,2.31,6.18,9.8,8.02,15.4-6.06-1.51-9.29-12.73-15.77-15.56-3.65-1.59-8.35-2.66-9.31-7.7l9.39,5.53c3.35,1.97,6.1,3.17,7.99,6.7,1.56-1.92-1.18-2.38-.31-4.37Z" fill="#fff"/>
    <path d="M67,74c-.18.43-.73.66-1,1l-6,1.01c-4.64.34-6.12-12.96-5.83-15.8.41-4.01,4.34-5.71,7.45-8.14.82,2.29-.57,4.23-2.02,6.67-2.27,3.82-2.95,10.72.69,13.8,1.77,1.5,5.31-.26,6.7,1.46Z" fill="#fff"/>
    <path d="M111.19,121c.44,1.13,1.95,3.17,2.94,3.87-.29,2.21,1.82,3.41,2.07,6.92-6.7.48-14.85-12.09-18.21-17.41.93-6.42,11.75,13.85,13.78,13.04-1.03-4.61-4.66-6.7-6.83-10.49,3.29.03,3.72,3.5,6.25,4.05Z" fill="#fff"/>
    <path d="M167,84c1.43,1.23,1.96,3.31,4,4-.71,1.12,6.28,7.06,1.98,10.52-1.19.96-3.6.9-5.19-.13l-6.79-4.39c-1.43,1.64-3.9-1.18-3-2.98.03-1-.39-2.59,1.05-3.27,3.74,2.57,6.12,7.96,10.84,8.1s-4.5-11.23-8.64-12.83c1.94-1.93,4.46-.14,5.75.97Z" fill="#fff"/>
    <path d="M131,110c-.52,5.96,10.68,14.9,2.87,18.65-1.53.74-3.6.13-4.82-1.7l-8.97-13.46c.46-.53,1.12-1.49,1.43-1.43s.91.72,1.21,1.19l7.49,11.5c.79,1.21,2.25,1.52,3.02,1.24,4.68-1.71-12.06-21.19-2.23-15.99Z" fill="#fff"/>
    <path d="M141.19,139c-.23-2.44-2.08-4.91-3.19-7,.18-1.49-.45-3.02.37-5.02,2.15,4.94,4.54,9.61,7.69,14.73,4.52-7.21-5.5-18.85-.75-20.27,2.76,4.3,6.13,22.07,1.82,23.57-2.69.94-4.15-4.59-5.95-6.01Z" fill="#fff"/>
    <path d="M130.16,91.06c.78-1.27,1.16-.91,1.14,1.09,1.78.83,1.62,1.65-.3,1.85.14.96-.41,2.19.5,3.83,1.68,3.01-1.65,11.19-5.71,9.24-4.51-2.17-4.68-11.9-2.74-15.38,2.16,4.22.17,9.69,3.44,12.1,4.46-1.12,1.34-10.33.51-10.79-.87-.28-.86-.62,0-1,.06-.83-.32-1.64.31-3.09,1.03.89,1.78,1.69,2.85,2.15Z" fill="#fff"/>
    <path d="M139.85,223c-3.65-.88-8.18-.87-11.85.01h-6c-2.26-.86-4.74-.87-7,0-2.72-.94-6.64.54-8.55-3.94,7.11.95,13.47,1.25,20.5,1.1l17.19-.36c-.82,1.73-2.9,3.19-4.3,3.19Z" fill="#fff"/>
    <path d="M244,148c1.41-1.36,2.13-3.21,3.12-4.88.22-.37.91-.55.88-1.12,1.19-1.29,2.19-2.62,3-4,.34-2.01.69-4.01,1.04-6-.86-.25-.84-.58,0-1,.1-.67.14-1.48.45-2.04,3.38,2.63,2.65,14.44-2.24,18.37-2.55,2.05-4.1,5.1-8.22,5.79.77-2.09,1.93-3.36,1.98-5.12Z" fill="#fff"/>
    <path d="M112.08,43.01c9.96,3.06,18.05,6.19,17.97,18.11-5.86-.62,1.73-11.48-15.13-14.83-4.16-.83-6.32-2.06-6.18-5.86.15-4.09,2.6-6.7,7.34-5.02-1.7.91-3.37,1.01-4.27,2.08-1.04,1.24-1.75,4.9.26,5.52Z" fill="#fff"/>
    <path d="M150.05,51.56c2.28-2.96,13.5,7.63,14.96,4.94,1.62-2.97-14.67-8.01-16.25-10.21,2.61-.43,26,7.71,17.66,14.84l-16.37-9.57Z" fill="#fff"/>
    <path d="M78,115c-.87-.28-.86-.62,0-1,2.91.28,14.06-1.98,15.79,6.93,1.49,7.66-2.75,11.88-4.91,11.07-.65-.24-1.86-1-1.74-1.84,3.3-2.02,5.06-5.6,3.59-9.4-2.69-6.98-11.24-3.39-12.74-5.77Z" fill="#fff"/>
    <path d="M194.13,156.65c-5.1.43-8.17-3.55-11.44-6.24-8.04-6.63-16.32-12.02-24.34-19.83,4.79,1.08,7.43,5.18,11.45,7.73,8.55,5.43,15.58,12.11,24.33,18.34Z" fill="#fff"/>
    <path d="M106,88c-.17-1.65.5-3.31,2-5,.78-1.61,1.47-3.74,3.31-5.15,2.41,1.22-7.03,17.1,1.25,11.33,1.11-.77.76-2.22,1.44-3.18,1.95-2.77.89-6.11,2.95-9.8,2.02,3.82,1.63,16.68-6.93,15.96-1.42-.12-2.77-.09-3.52-1.12-.56-.76-.56-2.02-.49-3.04Z" fill="#fff"/>
    <path d="M109.77,19.26c-.08.2.07.5.04.72.81,0-6.45,2.14-6.83,1.58s-1.33-1.02-.46-1.41c3.2-1.41-.14-6.18-.37-11.29-.11-2.32-1.08-3.75-3.24-5.4,2.19-.78,4.23-1.66,7.11-1.38-2.73.25,1.24,20.52,3.74,17.17Z" fill="#fff"/>
    <path d="M143,156c.95.67.86.24,0-1,0-2.16-.45-4.3.37-7.86l4.81,9.86c.91,1.87.87,6.58-1.85,5.88-3.54-.91-5.12-5.34-7.97-7.08-1.39-.85-2.88-1.57-2.47-3.14,1.68-6.46,2.73.98,7.12,3.35Z" fill="#fff"/>
    <path d="M224.77,67.64c-1.83-2.13-1.15-2.98,1.32-1.66,1.18.63,2.42.22,3.72-1.23-1.81-.41-1.51-.99.25-1.53,2.23-.3,4.64-2.49,6.89-.82-4.88,5.5-9.05,10.51-12.92,15.91-1.69-2.22-2.93-3.28-3.15-5.08,2.03-.44,3.76-.78,4.63-2.2.56-.92-.57-2.34-.75-3.39Z" fill="#fff"/>
    <path d="M201.87,47.79c.23-.15.48-.18.74-.1.47.26,2.08,1.85,2.89,1.06l10.15-9.78c-.26-1.15-.97-1.73-.31-3.1,1.72,2.03,3.95,3.09,4.67,5.34-1.18-.5-16.52,10.82-12.19,13.09-3.36-1.48-5.32-3.72-5.95-6.51Z" fill="#fff"/>
    <path d="M152.89,63.31c3.42,1.14,5.46,4.05,9.15,4.54,1.13.15,2.1-1.38,2.06-2.33-.16-3.94-10.66-6.62-13.25-10.25,1.93-1.51,15.71,7.2,15.3,10.33-.23,1.69.46,5.44-2.32,5.35-4.38-.15-8.84-3.03-10.93-7.63Z" fill="#fff"/>
    <path d="M114.99,250.54c-2.13,2.1-3.4,5.1-7.08,4.51-.13-5.51,4.66-7.72,8.6-10.48,2.34-1.64,4.53-3.67,6.97-.45-2.41,2.82-5.79,3.76-8.49,6.42Z" fill="#fff"/>
    <path d="M101,135c1.54-.91,2.03-.55,1,1,0,.3-.6.68-.78.91-.45.59.16,1.04.76,1.61.31.3.92-.28,1.33-.43,1.57-.49,3.02.27,2.37,1.91-.02.68.08,1.36.32,2,1.08,1.79-.78,2.7-2,1l-1-2-1,1c.68.67.68,1.34,0,2,.54,4.02-7.67-.7-10.45-1.75,1.24-2.95,4.24-2.05,6.53-2.48.55-.93-.16-2.47.05-3.23.38-1.4,2.07-1.17,2.88-1.54Z" fill="#fff"/>
    <path d="M128,74c-.85,2.26-.85,4.73,0,7,0,1.78-1.03,3.4-1.38,5.79-.32,2.21-5.3,4.88-6.67,2.37-2.32-4.24-1.13-10.79,1.56-14.38,2.06,3.35-3.75,12.63,1.61,12.23,1.41-.1.62-1.28.88-2.02-.57-1.21-.44-2.88,1-3,2.2,1.99-.4-16.35,2.98-9.51.18.36.02.97.02,1.51Z" fill="#fff"/>
    <path d="M87.43,206.81c-1.1-.37.79-2.82.33-3.57-4.33-3.56-9.64-4.8-15.08-5.85-.88-.48-1.1-2.21.13-2.65,4.63.89,18.74,3.88,18.13,8.75-.19,1.51-.62,4.29-3.51,3.32Z" fill="#fff"/>
    <path d="M46.07,140.22c-.16.42-.64.59-.95.86-5.62,1-9.67-5.15-8.65-8.33.87-2.71,2.84-2.88,4.92-2.78,3.4.17,6.57,5.2,4.68,10.25ZM43.8,137.09c-.54-2.15-.96-4.16-2.09-4.78-2.29-1.27-3,.34-2.85,2.22.1,1.32.51,3.02,1.91,3.42.8.23,3.34.38,3.02-.87Z" fill="#fff"/>
    <path d="M82.42,154.26c3.28,3.61,1.34,8.83-2.53,10.9-3.43-.85-5.33-3.6-5.05-7.16.17-2.13.68-3.84,2.2-4.55,1.34-.63,3.83-.88,5.38.82ZM79.59,161.68c1.94-.69,2.24-5.97.57-6.57-2.38-.86-3.52,2.09-3.33,3.42.18,1.21.39,3.99,2.76,3.15Z" fill="#fff"/>
    <path d="M110,55c-.87.85-1.55.04-2-1-.33.64-.67.64-1,0l-1-1c-.33.65-.67.65-1,0-.07-1.27-1-1.83-2.06-2.64,1.8-.5,3.05.08,4.06.64,2.11.52,2.11.18,0-1l-3.05-1.55c.56-1.94,14.22,2.64,14.15,3.91-.06,1.08-.86,2.73-2.57,3.34-1.88.66-3.78-.74-5.53-.7Z" fill="#fff"/>
    <path d="M124.79,218c-7.07.89-5.96-12.88-13.42-19.82,7.68-1.81,8.6,14.27,13.42,19.82Z" fill="#fff"/>
    <path d="M158,91.02c.97,1.03,1.76,2.26,3,2.98-.24,1.9,1.48,2.93,2.66,4.61,1.35,1.92-1.49,3.87-2.8,4.9-2.23,1.76-12.26-4.58-9.68-7.71,2.09,1.89,3.59,3.69,6.2,5.03,1.09.56,3.9-.3,3.45-1.69-1.09-3.34-3.83-5.43-5.87-7.77,1.29-.73,2.23-.26,3.04-.35Z" fill="#fff"/>
    <path d="M235,133c-.88,2.24-.85,4.75,0,7,1.72-2.2,2.64-1.51,2.83,1.17.09,1.07-.09,2.43,1.17,2.83v1c.38,1.02-.03,2.4-1,3.01-6.3.08-7.48-15.18-4.62-21.04,1.27,1.86,1.86,3.91,1.62,6.03Z" fill="#fff"/>
    <path d="M179,200l.14,1.02c.74.13,1.79-.26,2.35,0,2.79,1.32-5.56,4.99-8.09,3.24-1.5-1.04-3.6-3.53-1.62-5.66,2.39-2.57,8.23-2.15,11.03-.52.18,1.55-2.68,2.65-3.81,1.91Z" fill="#fff"/>
    <path d="M118.56,140.36c.74,1.5.41,2.79.84,3.2.33.31,1.1-.18,1.94.27,1.91,1,0,7.02-2.06,6.11-5.54-2.47-5.72-10.18-5-14.87,1.87,2.23,1.73,4.39,2.02,6.97.59-.76,1.66-2.87,2.25-1.68Z" fill="#fff"/>
    <path d="M130.62,217.41c-3.45,4.8-8.68-15.39-12.81-19.77,5.98,2.46,7.44,8.52,9.89,13.66l2.92,6.11Z" fill="#fff"/>
    <path d="M63.39,63.2c2.43-.48,3.96-2.5,6.8-1.92-2.54,2.14-6.14,4.67-9.82,3.41-1.67-5.38,3.05-4.62,3.69-11.68.21-2.31,1.9-5.13,4.58-3.32-2.37,2.98-2.3,5.88-3.45,8.55-.68,1.57-3.62,2.28-1.79,4.96Z" fill="#fff"/>
    <path d="M111,143c1.47,1.94-.24,2.2-2,1v1c1.56-1.38,3.08-.98,2.92,1.08.63.6,1.67.61,2.11,1.71-3.3-.33-11.84,4.86-11.88.35-.02-1.73,1.69-2.86,1.85-4.14-.85-.33-.85-.67,0-1l2-1c2.19-1.09,13.95-3.08,6.4-.19-.38.14-1.04.44-1.4,1.19Z" fill="#fff"/>
    <path d="M81.68,187.95c1.14.31,2.34-.95,2.85-.74.84.35,1.97,1.59,1.44,2.29-.44.59-2.06,2.19-3.07,1.7-6.55-3.2-13.26-5.62-19.35-10.84,6.79.5,11.31,5.69,18.13,7.58Z" fill="#fff"/>
    <path d="M32.11,199.93c.44,0,1.34.3.95.88-.08.54-.28,1.78-1,2.1-2.2-1.14-4.52-.88-6.2,1.39-4.35-5.66-5.08-.69-5.85-3.86-.32-1.33.15-2.79,1.57-3.36.78-.31,1.53,1.38,2.63,2.16,1.12-1.1,1.2-2.48,2.44-3.35,1.45,2.62,3.16,4.06,5.46,4.05Z" fill="#fff"/>
    <path d="M124,139c1.74-.35,2.53.73,1,2l1,1c1.66-.34,1.88.34.39,1.31,1.45.51,2.99,1.07,4.61,1.69.58.9,2.03,1.67,1.75,2.52-.49,1.47-1.14,2.85-2.29,2.56-3.3-.84-12.53-13.66-13.87-16.09,3.23,1.67,5.79,2.7,7.41,5.01Z" fill="#fff"/>
    <path d="M55.15,179c4.45.48,4.4.14-.15-1l-3.55-2.28c2.9-1.58,5.67-.74,8.14.76,1.89,1.15,3.12,2.5,2.28,4.77-.49,1.3-1.99,3.24-3.95,2.29-2.8-1.35-4.9-2.52-5.86-5.36,1.33-1.15,1.86.81,3.09.82Z" fill="#fff"/>
    <path d="M84,57c-2.01,1.92-2.01,4.53-3.74,5.71-1,.68-4-1.49-4.22-2.63,4.21-7.04,5.19-.95,8.91-11.8,2.9,3.29-.24,5.86-.94,8.73Z" fill="#fff"/>
    <path d="M147.75,88.06c-1.21,1.81-1.95,1.32-.82-.63.35-.47-.19-2.13.58-2.44,1.1-.45,3.96,2.28,4.71,1.96,1.23-.52,2.06-1.58,1.87-2.47-.66-3.11-3.8-3.2-3.09-4.96.8-1.99,6.7,3.16,6.09,6.74-.28,1.6-2.24,4.79-4.08,4.16-2.12-.72-3.31-2.66-5.25-2.36Z" fill="#fff"/>
    <path d="M156,76c1.76.6,2.8-.39,2.07-2.11-.83.41-1.11.05-.96-.96-.39-1.08-1.77-1.32-2.06-3.08,2.92.83,5.73,2.3,7.35,4.76,1.34,2.03-.07,4.72-1.51,5.89-2.86,2.32-8.03-3.56-7.95-3.89.11-.48-.26-2.04,1-1.15.45.32,1.31.24,2.06.54Z" fill="#fff"/>
    <path d="M147.75,88.06c.08,1.7,2.38,2.82,2.3,4.93-.1,2.68-2.66,4.47-4.84,5.23l-4.21-3.21c-1.18,1.26-1.67.62-1-1,.81-5.12,2.63,1.24,5.5-.04,1.46-.65-1.19-5.9,1.42-6.53-.35.66.41.69.82.63Z" fill="#fff"/>
    <path d="M117,65c.47,2.69,1.24,6.43,3,4-1.12-1.22-2.12-5.28.57-5.13,2.01,1.36,3.17,5.25,1.97,7.88-.84,1.85-4.65,3.95-6.55,2.25l-1-5c.26-2.43-.15-4.6-.74-7.26,2.55.48,1.82,2.39,2.74,3.26Z" fill="#fff"/>
    <path d="M171.96,214.3c-1.42,2.51-4.2,2.03-5.81,1.24-1.74-.86-2.44-2.64-2.22-4.97.15-1.55,1.64-3.31,4.17-3.31,3.1,0,5.59,3.98,3.86,7.04ZM167.3,210.19c-1.28.96-1.81,1.92-.85,2.82.91.85,1.56,1.4,2.54.52.92-.82,1.56-1.65.52-2.56-.58-.5-1.21-1.53-2.22-.78Z" fill="#fff"/>
    <path d="M133.19,173.93c.95.32,1.01.56.88.95-.9,2.72-2.69,4.42-.85,6.95-2.47.61-3.16-.39-4.22-.83-.58-.24-.89-.48-1-.68-1.87-3.32-.83-6.56,1.82-8.51,1.53.88,2.32,1.67,3.37,2.13Z" fill="#fff"/>
    <path d="M114,66c-.95,1.92-.64,4.04,0,6-.43,1.87-1.21,4.01-2.8,4.83-1.99,1.03-4.79,1.77-5.87-1.27-.92-2.57,1.55-5.27,2.22-7.63,1.05,2.71.08,4.41.56,7.06,1.6-.7,2.71-1.66,2.89-2.99-.49-1.18-.37-2.22,1-2l-.02-5.07c0-1.04,1-1.19,1.51-.94.59.29.67.92.5,2.01Z" fill="#fff"/>
    <path d="M169.04,152.73v-.46c4.86,1.07,6.9,7.33,13.05,8.79,2.07.49,4.31-.97,5.96,1.27-4.18,3.51-8.44,1.12-11.9-2.55-2.45-2.6-5.88-3.8-7.11-7.04Z" fill="#fff"/>
    <path d="M171,162c.91.16.94.5.15,1-.71-.34-1.42-.71-2.15-1-1.61.82-3.8-.14-3-2-2.7-3.84-10.01-9.81-12.93-15.82,6.26,5.59,12.43,11.41,17.93,17.82Z" fill="#fff"/>
    <path d="M166.05,181.49c-.14-1.16.85-2.44.89-3,.07-.99-1.32-1.52-1.78-2.82-.58-1.6,1.9-4.08,3.8-3.59,2.42.62,3.43,3.88,2.67,5.9-.71,1.89-3.59,4.73-5.58,3.51Z" fill="#fff"/>
    <path d="M86.88,209.59c-.12,2.68-3.66,3.44-5.96,3.38-1.6-.04-2.92-1.82-3.39-4.6-.23-1.34,2.86-2.12,4.18-2.38,1.68-.33,5.31.38,5.17,3.6ZM85.45,209.34c-1.08-2.28-3.31-1.52-4.46-.84,1.73.49,2.49,2.42,4.46.84Z" fill="#fff"/>
    <path d="M147.2,148.2c3.34,1.11,1.41,5.33,4.78,6.92-.24-3.84-3.29-6.25-1.52-10.26,1.74,4.58,4.42,8.75,3.28,14.61-3.97-2.37-6.97-5.86-6.54-11.27Z" fill="#fff"/>
    <path d="M83,71c2.29-1.08,3.42-.49,3.35,2.11.34.13.51.59.65.89,1.98,4.49,3.3,9.29-.83,13.43-.61.63-1.27.55-1.16-.47.03-.28-.02-.58.02-.86,1.72-5.77-.49-10.24-5.51-13.25l1.48-1.85c.22-.89,1.35-.7,2,0Z" fill="#fff"/>
    <path d="M128,250c4.15,1.04,7.91,1.44,9.96,3.86.81.96-.49,2.37-.97,2.72-1.84,1.36-8.44-2.69-10.23-4.4.1-.96,1.57-1.58,1.24-2.18Z" fill="#fff"/>
    <path d="M93,59c.24-.56.58-.52,1,0,1.43.27,5.01-.82,5.77,1,1.53,3.72-3.13,5.13-5.68,5.09-2.38-1.08-3.65-1.19-6.09-.1-.54,0-1.21-.43-1.73-.27-.65-3.25,2.95-.52,4.51-5.73.44-.81,1.68-.73,2.22,0Z" fill="#fff"/>
    <path d="M142,101v-1c3.37,2.32,4.34,7.57,3.58,12.51-4.13-3.32-5.3-7.74-7.58-11.51v-1c2.68.17,2.47,3.41,4.6,5.1,1.1-1.71-.66-2.83-.6-4.1Z" fill="#fff"/>
    <path d="M196.96,228.74c2.58,1.16.25,4.01-1,4.79-2.47,1.56-3.52-.06-5.43-2.26-.77-.88-2.98-3.98-.7-4.05s4.97.54,7.13,1.51Z" fill="#fff"/>
    <path d="M123.49,241.67c-3.65.85-3.8-9.19-.4-9.58s4.76,8.57.4,9.58Z" fill="#fff"/>
    <path d="M179.74,88.77c-5.69-3.23-10.99-8.64-15.14-15.09,6.17,3.56,10.96,8.37,15.14,15.09Z" fill="#fff"/>
    <path d="M64.36,192.32c2.11-.98,4.27.06,5.13,1.67,1.13,2.1,1.01,4.62-1.52,5.65-1.89.77-4.21.44-5.5-1.65-1.11-1.79-.53-4.54,1.89-5.67ZM65.31,194.51c-.68,1.53-.6,2.89.43,3.47.48.27,1.1-.42,1.77-.96s.83-1.25.04-2.02c-.4-.39-1.62-1.9-2.24-.5Z" fill="#fff"/>
    <path d="M106,55c.65.13,1.08.24,1,1,1.45,1.63,2.78,1.97,4,1,1.66-.08,2.94,1,3.04,2.53s-1.21,2.41-2.94,2.39c-1.64-.02-2.89-.66-4.1-.91-.38.86-.75.86-1.13,0-1.2-1.94-3.29-2.82-4.97-4.62,1.48-.62,2.58-.46,3.1-1.38.26-.83,1.47-.72,2,0Z" fill="#fff"/>
    <path d="M82.2,178.41c2.03-1.13,4.58-.42,5.85.94,1.44,1.54,1.49,4.18-.5,5.72-1.76,1.37-4.12,1.34-5.64-.53-1.18-1.45-1.83-4.96.29-6.14ZM86.22,182.42c1.35-1.05-.18-2.18-.81-2.39-.96-.33-2.15.78-2.42,1.91-.35,1.49.37,2.29,1.16,2.06.62-.17,1-.75,2.06-1.57Z" fill="#fff"/>
    <path d="M224.19,196c.31-.28.66-.6.81-1,1.89.49,3.76-.93,6-.88,2.11.04,2.42,2.78,1.91,4.23-1.27,3.63-8.59-.05-8.02.4-.72-.57-.85-1.76-.7-2.75Z" fill="#fff"/>
    <path d="M148.3,77.71c-1.51.61-2.6-1.11-3.28-1.24-.93-.18-1.74-2.16-.15-2.79,1.38-.55,3.64.92,4.39-1.81-.83-1.6-3.03-1.84-3.4-4.67l6.01,2.94c-.09,2.91-.6,6.37-3.57,7.57Z" fill="#fff"/>
    <path d="M251.09,156.51c-.17,4.19-8.55,2.22-8.59,2.18-2.92-3.23,6.59-5.79,6.93-5.64,1.5.66,1.71,2.19,1.66,3.46Z" fill="#fff"/>
    <path d="M104.13,79.95c1.49,1.01.99,4.4-1.13,4.05.05,1.59.72,2.59,2,3,1.66-1.52,2.22-.93,1,1-1.28.69-1.59,2.68-3.09,2.95s-4.96.26-4.73-1.92c.28-2.59,1.68-5.03,2.34-7.5.39-1.46,2.71-1.3,3.6-1.59Z" fill="#fff"/>
    <path d="M188,222c-1,.39-2.32.16-2.69-.68-.35-.78-.31-2-.79-2.73-1.49-2.28-2.36-4.07,0-5.57,1.08-.69,4.69-1.19,4.42,1.06l-.93,7.93Z" fill="#fff"/>
    <path d="M132.1,231.45c1.55,1.76,1.04,7.99.53,9.46-.27.77-2.55,1.8-3.07.78-1.12-2.73-.79-6.43-.18-9.37.35-1.68,2.18-1.5,2.72-.87Z" fill="#fff"/>
    <path d="M219.38,189.22c.31,1.29,1.89,2.21,1.13,2.77-.62.46-1.41,1.9-2.02,1.85,1.08.08-5.72-3.53-5.57-5.33.13-1.57,1.6-2.91,2.76-3.36,2.63-1.01,3.05,1.36,3.69,4.07Z" fill="#fff"/>
    <path d="M12,164c1.51,5.32-2.27-2.39-5.61-.58-1.41.77-2.75.37-3.34-.98-.3-.68.69-1.78,1.08-2.44-.02-.33.12-.68.06-1,.58-.75.84-1.69,1.5-1.92.87-.29,2.07-.21,2.56.61l3.74,6.3Z" fill="#fff"/>
    <path d="M80,127c-.61.4-1.3.58-1.59,1.04-1.59,2.43,1.78,4.4,1.36,6.3-.22.99-1.18,3.63-2.46,2.45-.99-.91-3.81-11.06-.76-11.68,1.28-.26,3.48-.67,3.45,1.88Z" fill="#fff"/>
    <path d="M97.21,76.11c.29-2.13,2.38-3.72,3.3-5.18.93,1.41-.05,2.53,1.15,3.14.85-2.1.48-4.06,2.49-5.61,2.27,1.13,0,8.24-2.88,9.42-1.31.54-4.32.12-4.06-1.78Z" fill="#fff"/>
    <path d="M162.59,206.42c-1.37.63-.25,3.05-.73,4.56-1.31-.83-2.17-1.19-2.87-1.55-1.06-.54-1.73-3.32-.71-4.01,3.44-2.31,7.51-2.81,11.8-2.19-1.57,2.61-4.47,1.8-7.5,3.19Z" fill="#fff"/>
    <path d="M143.04,86.3c-1.6-1.35-3.43-2.47-4.03-4.42-.35-1.14,1.67-1.04,2-.48.26.45,1,1.56,1.5,1.38,1.01-.37,1.74-1.4,1.43-2.14-.37-.89-1.61-1.06-2.27-3.35,2.55.32,4.97,1.11,7.4,3.07l-6.03,5.94Z" fill="#fff"/>
    <path d="M136.45,218.17c-6.66-3.05-5.13-9.81-9.62-14.02,4.09-.96,5.53,2.73,6.12,5.89.55,2.94,3.29,4.39,3.5,8.13Z" fill="#fff"/>
    <path d="M64,222c.86-1.92,3.09-1.72,4-3,1.61.01,3.94-.36,4.03.7l-1.56,7.83c-2.82-2.09-3.85-4.76-6.48-5.53Z" fill="#fff"/>
    <path d="M20,154c1.22,1.66,3.14,1.85,4.13,3.81-3.36,1.02-4.19,3.32-6.58,5.69-1.02-3.27-.66-5.76-.43-8.55.1-1.25,2.25-1,2.88-.95Z" fill="#fff"/>
    <path d="M230.07,63.23l-.25,1.53c-1.03,1.63-2.21,2.65-3.72,1.23-.6.4-1.13.95-1.32,1.66-1.89-1.34-4.31-.78-5.73,1.48-1.67-.73-2.64-2.67-2.69-4.03l13.72-1.86Z" fill="#fff"/>
    <path d="M35,198c-.68-3.96-2.62-6.31-1.49-9.93l7.21,2.76c-3.37,2.32-3.62,5.15-5.72,7.17Z" fill="#fff"/>
    <path d="M135,104l5.19,10c1.2,5.7-2.7,3.05-4.12-1.07l-2.9-6.01c.18-.56-.23-1.56.11-2.22.31-.59.97-.91,1.71-.7Z" fill="#fff"/>
    <path d="M150.57,39.25c1.17.2,3.32,4.31,3.31,4.26.37,4.02-11.55-2.84-12.27-6.02,2.86-.83,4.17,2.82,6.64,3.59,1.13.35,1.73-1.92,2.32-1.82Z" fill="#fff"/>
    <path d="M156,130c-.15,3.73-1.66,6.55-2.26,9.83-1.13,6.16-3.87-7.35-3.74-6.83-.1-2.49.57-3.15,2-2,.71.56-.69,4.58,1.7,2.53.94-1.02,0-4.05.3-5.53.83-1.56,1.5-.89,2,2Z" fill="#fff"/>
    <path d="M169.74,199.59c-5.16,3.92-12.07,3.32-17.16.88,6.03-.12,10.9-1.59,17.16-.88Z" fill="#fff"/>
    <path d="M62.62,183.3c3.01.12,11.26,5.16,11.37,9.16.03.87-2.04.46-3.31.56-.66.05-.07-1.26-.51-2.25l-7.56-7.48Z" fill="#fff"/>
    <path d="M58.01,233.08c-1.48.06-1.79.05-.83-1.15-.03-1.15-.34-2.23-.07-4,3.42.32,6.13,1.31,8.9,2.56-5.67.91-6.69,7.83-8,2.59Z" fill="#fff"/>
    <path d="M120.45,238.47c-.21,2-10.7,7.43-11.44,3.98,2.84-2.97,6.9-5.51,11.44-3.98Z" fill="#fff"/>
    <path d="M89.02,52.02c3.56-1.9,4.74-4.66,5.13-8.07,2.53.96,1.9,3.1,1.07,5.32-1.32,3.49-4.73,5.4-8.02,7.03-.47-2.43,1.33-2.93,1.83-4.27Z" fill="#fff"/>
    <path d="M130,87c-.99-.04-1.74-.54-1.98-1.44-.27-1.03.98-1.75.98-2.56.83-1.93.84-4.07,0-6,0-2.04-1.29-4.29,1.37-6.76,1.75,12.03,2.9,7.42-.37,16.76Z" fill="#fff"/>
    <path d="M144.04,241.88c.22,1.01-1.82,2.37-2.55,2.22,3.79.82-13.57-5.37-7.53-5.57,2.83-1.09,7.83.97,10.08,3.36Z" fill="#fff"/>
    <path d="M122.13,194.83c-1.53,1.84-14.59,2.43-11.72-1.85.64-.95,10.95.07,11.72,1.85Z" fill="#fff"/>
    <path d="M125.69,71.53c-2.67-6.36,4.03-.57-.48-11.84,2.85,1.28,3.51,4.28,6.18,6.45-1.65,2.31-3.31,3.28-5.7,5.39Z" fill="#fff"/>
    <path d="M195.64,97.96c.09,3.81,2.36,5.98,3.12,9.41-4.59-2.32-6.45-7.82-6.83-12.15,1.75-.9,2.97,1.03,3.71,2.74Z" fill="#fff"/>
    <path d="M166,160c1.06.25,1.97,1.59,3,2-4.08,4.75-9.96-6.41-14.2-9.93,2.46-1.73,8.18,8.69,11.2,7.93Z" fill="#fff"/>
    <path d="M98.39,195.24c-.79,3.68-16.33-7.98-9.5-9.35,1.57,4.74,5.3,5.66,9.5,9.35Z" fill="#fff"/>
    <path d="M146.07,50.6c-1.24-1.75-3.37-1.7-6.05-3.21,1.37-.21,3.36-1.05,5.48-.79,2.36.29,3.59,6.02,1.7,7.32-.99.68-2.59.26-3.06-.27-.36-.41-1.46-.78-.72-1.61.54-.6,1.55-.63,2.65-1.43Z" fill="#fff"/>
    <path d="M200,209l-1-1c-.06-1.38.6-2.72,2-4,1.92-1.27,3.96-2.87,5-5,6.67-.46-4.82,9.04-6,10Z" fill="#fff"/>
    <path d="M148.11,61.07c-1.18-2.72-.98-2.9,1.89-2.07-.81,4.2,3.32,4.2.89,7.48-.83,1.12-2.02.38-3.17-.05-1.93-.71-3.62-2.31-2.41-4.16.25-.38,1.44.27,1.81.07.5-.27.71-.82,1-1.28Z" fill="#fff"/>
    <path d="M147.91,109.08c-.09-3.24,3.2-3.23,2.95-5.06-.32-2.29-3.46-3.24-2.65-6.21l6.19,6.22c-.98,2.91-3.19,4.48-6.48,5.06Z" fill="#fff"/>
    <path d="M131,94c-.09-.61.31-1.24.3-1.85-.92-1.07-.88-2.36.68-2.25.7.81,1.43.2,2.17-1.82-.83-.27-.79-.55.07-.84.79.02,1.58-.34,1.72.38.39,1.94.8,8.07-2.64,9.4-.94-1.38-1.53-2.26-2.31-3.01Z" fill="#fff"/>
    <path d="M205.18,98.06c3.9-1.46,6.31,8.43,5.58,11.07-3.63-2.67-4.37-6.71-5.58-11.07Z" fill="#fff"/>
    <path d="M36.08,128.86c-1.2,1-1.69.54-.93-.86-.2-.94-.27-2.25.54-2.74-.23.14,6.59-2.21,7.18-.75s.35,3.29-1.34,4.46c-1.08-.62-1.08-2.07-2.09-3.01-.8,1.15-.51,2.15-1.23,2.68-.55.42-1.43.32-2.14.22Z" fill="#fff"/>
    <path d="M133.49,76.13c-.73-3.18,2.32-3.83,2.68-6.44-.73-2.13-3.37-.65-4.62-2.96,1.59-1.31,5.6-.4,6.19,1.2,1.27,3.45-.69,6.96-4.24,8.2Z" fill="#fff"/>
    <path d="M123.93,108.81c1.67-2.24,8.63,16.77,8.1,13.17,1.02,6.96-9.94-12.8-8.1-13.17Z" fill="#fff"/>
    <path d="M151,125c1.13,2.13-.71,4.64,1,6l-2,2-3.87-16.26c1.75,2.91,3.46,5.6,4.87,8.26Z" fill="#fff"/>
    <path d="M156,124c-.18,1.9-.69,2.67-2,1-.59-4.53-2.32-8.2-4.05-12.43,1.23-8.13,6.01,11.24,6.05,11.43Z" fill="#fff"/>
    <path d="M120,125c-1.99-.72-4.2-4.51-5.82-6.07.14-2.2-2.63-3.17-1.91-6.18,3.34,3.66,7.23,7.54,7.73,12.25Z" fill="#fff"/>
    <path d="M105,97c-.63,2.31-.81,4.69,0,7-.28,1.32,2.08,2.48.2,4.45-3.81-4.62-3.41-11.4-.43-17.03,2.03,1.34,1.18,3.74.23,5.57Z" fill="#fff"/>
    <path d="M130.79,151.88c.45-1.05,8.42,8.27,8.36,7.61.09,1.04-1.44,2.45-2.65,1.22-2.44-2.46-5.33-4.96-5.71-8.83Z" fill="#fff"/>
    <path d="M206,170c.26-2.33,2.05-4.37,3.79-6.2,2.02.71,4.4,3.62,2.84,4.61-2.12,1.35-4.76,1.28-6.63,1.59Z" fill="#fff"/>
    <path d="M145.59,137.6l-4.43-8.8c-.66-1.3-2.28-2.89.11-4.35,2.12,4.24,5.09,7.82,4.32,13.15Z" fill="#fff"/>
    <path d="M115.89,106.65c-1.44-4.93-1.6-9.4.1-14.53,1.61,4.9,1.81,9.34-.1,14.53Z" fill="#fff"/>
    <path d="M168.54,94.29c-3.98-2.47-6.5-5.81-10.11-9.66,3.13-.94,4.25,2.13,6.43,3.46.63,2.55,4.21,2.23,3.67,6.2Z" fill="#fff"/>
    <path d="M98.27,210.63c2.35,5.18-9.6-.13-10.49-1.21,3.45-1.01,7.25-.33,10.49,1.21Z" fill="#fff"/>
    <path d="M78,114v1c-3.04,1.84-6.26.6-8.5-1.02s-2.65-4.48-2.5-6.98c2.82.69,1.64,4.58,3.77,6.24,2,1.57,5.1.55,7.23.76Z" fill="#fff"/>
    <path d="M38,95c-.36.74-.89,1.83-1.89,2s-3.38-3.76-1.19-6.57c.79-1.02,3.29-2.72,4.09-.44.27.77-3.44,2.83-1.01,5.02Z" fill="#fff"/>
    <path d="M136.38,64c-1.37,2.15-4.29.21-5.43-.66,1.45-.77,3.37.15,3.95-.88,1.5-2.69-2.66-4.94-2.05-6.04.22-.4,1.35-.89,1.98-.15,1.54,1.8,3.25,5.07,1.56,7.73Z" fill="#fff"/>
    <path d="M83,132c-2.13.38-3.08-.23-3.06-1.51l.06-3.49,3.63-2.38c.03,2.51.63,5.41-.63,7.38Z" fill="#fff"/>
    <path d="M178,153c1.11,4.15,4.54,3.67,4.94,5.52.69,3.16-8.02-3.77-10.06-6.82l.04-.6c1.16-1.16,2.85-.53,5.07,1.91Z" fill="#fff"/>
    <path d="M46,98c.1.64-.77,1.17-1.06,1.56-.36.47-1.87.87-1.95-.5-.17-3.03-.56-7.3,3.27-7.97,3.35-.59-3.17,6.23-.26,6.91Z" fill="#fff"/>
    <path d="M38,95c1.21-2.48,2.11-4.95,4.98-5.14-4.01,9.84,1.56,5.92-2.66,9l-2.31-3.86Z" fill="#fff"/>
    <path d="M237.83,141.17c-.9-.35-2.09-.49-2.83-1.17-.86-1.72-.86-3.05,0-4,1.93-.78.12-3.34,1.61-5.19,2.77,3.24.96,7.09,1.22,10.36Z" fill="#fff"/>
    <path d="M101.19,51.28c-2.01-1.46-.63-2.68.13-4.37-1.29-.75-2.04-.2-2.29-.79-.45-1.07.23-4.21,1.33-3.75,3.17,1.31,3.44,6.24.84,8.91Z" fill="#fff"/>
    <path d="M105.87,61c.36.05.77-.08,1.13,0,.63,1.59,2.72,2.88,1.56,4.07-1.45,1.48-3.25,2.72-4.7,1.79s-2.78-3.06-.98-4.5c.7.71,1.35,3.33,2.61,2.44s.1-2.9.39-3.8Z" fill="#fff"/>
    <path d="M157.92,44.75l3.58-.71c.71-.14.69,2.6.4,3.42-.38,1.07-2.02.57-3.13-.05-1.9-1.06-5.07-2.78-3.42-5.12,1.25-1.77,1.97,2.58,2.57,2.46Z" fill="#fff"/>
    <path d="M161.24,214.17c-2.7,1.09-4.66,1.93-6.78,1.69-.79-.09-.53-1.97-.43-2.38.09-.37,6.36-1.49,6.31-1.48.7-.02,2.21,1.64.9,2.17Z" fill="#fff"/>
    <path d="M35.55,123.92c-2.08-.45-3.16-2.98-4.54-4.47,1.21-1.51,2.12-1.74,3.43-1.39.92.24,1.08,1.6,1.7,2.82l.8,1.58c.15.29-1.04,1.36-1.4,1.46Z" fill="#fff"/>
    <path d="M142.24,87.16c.84,1.03-1.71,3.64-3.96,3.65.55-3.65-.21-5.54-2.38-7.72,2.5-.22,3.99,2.43,6.34,4.07Z" fill="#fff"/>
    <path d="M108.41,175.32c1.45.48.49,2.68-.39,3.22-1.96,1.22-5.11-.78-6.04-2.31,2.18-.29,3.89-1.75,6.44-.91Z" fill="#fff"/>
    <path d="M173,185c2.1-.24,4.39.1,6.55,2.05-2.03,1.44-3.77,1.14-5.86,1.77-.79.23-1.96-1.35-1.57-2.11.26-.51.5-1.17.87-1.71Z" fill="#fff"/>
    <path d="M94,56l-.78-1c.66-1.32,2.31-3.1,4.33-3.54,1.58-.35,2.01,2.69.61,4.11-1.12,1.14-2.45,1.7-4.16.43Z" fill="#fff"/>
    <path d="M135,140c-.31-.07-.71.11-1,0l-3-5-2-3c-4.03-4.99,6.08-.55,6,8Z" fill="#fff"/>
    <path d="M108.1,136.1l.04-.79c1.03.43,2.09,1.24,2.58.06.4-.96.11-2,1.18-3,1.41.96,1.9,5.01.55,6.18-1.92,1.66-3.62-1.36-4.34-2.46Z" fill="#fff"/>
    <path d="M184.09,98.35c1.1,3.46,2.18,5.82,3.92,8.83-9-5.41-5.36-13.36-3.92-8.83Z" fill="#fff"/>
    <path d="M94,89c-.92-1.4-1.36-3.56.07-5.27.85-1.01,2.43-3.96,4.13-1.74-1.19,1.64-2.42,1.94-2.88,2.93-.5,1.07.14,2.25,1.18,3.28-.55,1.13-1.86.4-2.49.79Z" fill="#fff"/>
    <path d="M108.14,135.31c-.07.25,0,.53-.04.79-1.41-2.14-4.66-6.32-3.83-10.27,2.4,2.51,4.85,6.18,3.87,9.48Z" fill="#fff"/>
    <path d="M144.31,45.74c-2.32.54-3.65-.79-5.32-1.42.89-1.82.69-2.7.09-4.57,2.49.81,4.72,2.34,5.23,6Z" fill="#fff"/>
    <path d="M167,148c1.24-1.02,1.74-.51,1,1,.18,1.14.54,2.23,1.04,3.27v.46c-4.35-2.04-5.55-6.73-9.04-6.73-.88-.19-.84-.53,0-1,3.06-.74,4.2,2.91,7,3Z" fill="#fff"/>
    <path d="M206,170c-.18,1.58-.12,2.92-2.38,3.87-.9.38-1.95-.43-2.58-1.4-.47-.73.47-1.85,1.08-2.41-1.24-1.49-.67-1.99.95-.86.98-.25,2.07.84,2.93.79Z" fill="#fff"/>
    <path d="M122.91,174.77c.61.83.04,2.43-.26,3.44-2.12-.92-3.79-1.11-5.7-2.57.97-1.93,4.73-2.54,5.96-.87Z" fill="#fff"/>
    <path d="M120.16,63.03c.17.23.21.66.41.85-.53,1.49.44,3.88-.57,5.13-1.45,2.21-2.45.88-3-4-.09-1.02.84-2.04.9-3,.79-2,1.66-.6,2.27,1.03Z" fill="#fff"/>
    <path d="M172.79,160.6c-3.25-2.08-6.09-5.03-8.86-8.75,3.88,1.58,6.41,4.13,8.86,8.75Z" fill="#fff"/>
    <path d="M162,139.81l4,3.19c.16.37.7.77,1,1,1.58.83,2.12,1.81.18,2.18.7.25.66.54-.06.87-2.57-2.29-6.54-4.52-7.26-8.06.83-.24,1.47.71,2.14.81Z" fill="#fff"/>
    <path d="M103,123.52c.13,1.52-.27,1.91-.63,2.23-1.17,1.03-6.54-4.27-3.77-7.89.67,2.79,1.39,4.81,4.4,5.66Z" fill="#fff"/>
    <path d="M150,59c-.65.66-1.39,1.28-1.89,2.07.35-2.19-2.05-3.11-4.18-4.51-1.71-1.45.06-2.27,1.52-.9,2.41.28,5.02.86,4.54,3.34Z" fill="#fff"/>
    <path d="M252.04,131c-.02.33.05.67,0,1-.32,1.73-.67,3.4-1.04,5-.32,2.66-1.24,2.54-2,0,.1-2.53-.21-4.93.16-8.11,1.32.74,1.71,1.91,2.88,2.11Z" fill="#fff"/>
    <path d="M124,75l1,5c-.05.66.01,1.34,0,2-.02,1.08-.66,2.03-1,3-.78.07-1.02-.91-1.02-1.94l.06-10.06c1.56,0,.63,1.55.95,2Z" fill="#fff"/>
    <path d="M36.26,184.26c1.18-.73,2.36-.27,3.26.66.82.85.63,1.78-.52,2.58-.86.6-1.81,1.01-2.99.09-1.02-.8-1.68-2.13.25-3.33Z" fill="#fff"/>
    <path d="M57.18,231.93c.32.34.56.77.83,1.15-2.06.29-5.35,2.14-5.94-1.08-.26-1.43,2.15-2.54,3.12-1.8.56.43,1.33,1.04,1.98,1.73Z" fill="#fff"/>
    <path d="M172,148c.18.33.67.85,1,1,1.71.86,1.95,1.75-.07,2.09l-.04.6c-.94-1.41-3.48-2.17-4.89-2.69l-1-1,.13-.94.06-.87c.91-1.17,2.52-.56,4.82,1.82Z" fill="#fff"/>
    <path d="M172.75,100.98c.67,2.54,1.96,3.98,3.33,6.03-1.25.98-6.57-4.44-6.08-5.51.28-.62.84-.55,2.75-.52Z" fill="#fff"/>
    <path d="M89.02,52.02c-1.09-1.4-1-9.74,1.63-5.91.38.55.74,1.96.22,2.99-.34.68-1.55.47-1.66,1-.13.64-.35,1.52-.19,1.92Z" fill="#fff"/>
    <path d="M133,38c-1.64-.63-3.39-.9-5,0-.69,0-1.1-.4-2-1.72,3.68-.34,7.87-1.26,11.66,1.69-1.79,1.8-3.16-.7-4.67.03Z" fill="#fff"/>
    <path d="M88.36,152.2c-1,.74-1.88.84-2.37,1.39-.68.77-1.12-.27-1.53-.61-1.21-.98.16-1.83.55-3.16.46-1.55,1.8-.83,2.47.16.37.56,2.16,1.28.89,2.22Z" fill="#fff"/>
    <path d="M203.07,169.21l-.95.86c-1.07-.19-3.68.63-4.03-1.01-.13-.59.98-2.44,1.38-2.84,1.45-.86,2.96,1.81,3.6,2.98Z" fill="#fff"/>
    <path d="M204.71,177.77c-1.14-.42-1.6-.97-1.74-1.44-.27-.85.57-1.35,1.83-1.49,1.36-.15,1.61-1.15,2.3-.38.89.98.96,1.44.97,2.1.03,1.66-1.56,1.87-3.36,1.2Z" fill="#fff"/>
    <path d="M146.97,173.51c-1.18.65-1.64,2.92-3.15,3.47-1.68.62-2.33-1.31-1.77-2.43s1.71-2.24,4.92-1.04Z" fill="#fff"/>
    <path d="M68,219c-1.01,0-1.9-.26-2.58-.98-1.1-1.19.08-2.4,1.12-2.94.8-.42,1.95-.18,2.99.84.69.67-.53,1.65-1.54,3.08Z" fill="#fff"/>
    <path d="M75,134c-.15,1.92-1.49,1.87-2,0-.15-.29-.34-.55-1-1,0-1.71-.95-3.72,1.05-5.63,1.59,2.17,1.52,4.07,1.95,6.63Z" fill="#fff"/>
    <path d="M161.05,65.56c-3.03-.72-6-2.55-8.15-5.63,2.98,1.25,5.83,1.82,8.15,5.63Z" fill="#fff"/>
    <path d="M91.01,166.27c-3.29-1.01-4.29-3.19-6.12-5.13,3.26-.63,5.88,1.89,6.12,5.13Z" fill="#fff"/>
    <path d="M140,94c.32.27.88.55,1,1,.44,1.65.94,3.29,1,5,.01.33.02.67,0,1-.54.16-7.23-11.32-2-7Z" fill="#fff"/>
    <path d="M84,57c2.36,1.09,2.18,2.8,1.83,4.32-.3,1.34-1.71,2.35-3.97,1.36,1.93-1.48,2.39-3.61,2.14-5.68Z" fill="#fff"/>
    <path d="M127.13,46.83c-4.11-.88-5.77-2.84-9.22-3.32,3.13-1.18,7.9-.15,9.22,3.32Z" fill="#fff"/>
    <path d="M82.5,151.09c-.99.99-1.07.89-1.56.41-.76-.75-1.23-1.21-.95-2.57.2-.95,1.1-1.67,1.58-1.91.82-.4,1.51.6,1.95.97,1.15.97.27,1.82-1.03,3.11Z" fill="#fff"/>
    <path d="M124.96,58.16c-2.8.15-4.5-2.28-4.89-5.09,2.11,1.08,4.39,1.11,4.89,5.09Z" fill="#fff"/>
    <path d="M177,180c.61-.33.85-.83,1-1,.65-.14,1.45-.19,2.01-.57,1.23-.83,1.01.65,1.03,1.15.03.96-.54,1.55-.96,2.56-.53,1.27-2.45,1.21-3.02.32-.41-.64.1-1.81-.06-2.46Z" fill="#fff"/>
    <path d="M133.27,191.83c-.91,1.97-2,1-2.81.19-.92-.92-.4-1.87.81-2.8.57-.43.91-1.12,1.28-1.23.68-.2,1.42.16,1.47.56.13.99-.12,1.91-.75,3.28Z" fill="#fff"/>
    <path d="M35.15,128c.43.11,1.04.31.93.86-.43,1.86-1.26,2.4-2.54,2.26-.61-.07-1.58-.41-1.62-1.45-.03-.75.17-1.93,1.53-2.17.53-.09,1.03.2,1.7.51Z" fill="#fff"/>
    <path d="M78.96,151.02c-.19,2.14-2.66.36-2.92-.58-.52-1.87.76-3.86,2.77-3.31.31.65.32,1.97.15,3.9Z" fill="#fff"/>
    <path d="M68.07,68.05c-.75,1.83-2.02,2.38-3.49,1.88s-4.01-.31-3.61-3.09c2.59.58,4.37,1.53,7.1,1.21Z" fill="#fff"/>
    <path d="M101.11,66.21c1.32-.52,1.15,2.05.46,2.79-.78.83-1.54,1.5-2.63.55-.98-.85-1.66-2.83-.39-3.32.44.17,1.23.5,2.56-.02Z" fill="#fff"/>
    <path d="M171.15,163l-.15-1c2.34.56,4.91.27,7.73,1.95-3.02,2.54-5.37.13-7.59-.95Z" fill="#fff"/>
    <path d="M185.87,186.67c.64,1.36-4.01,3.48-4.81,1.66-.52-1.18.07-2.42.49-2.32.83.19,2.54-.6,4.31.66Z" fill="#fff"/>
    <path d="M251,137c.45.26.41.6,0,1,.16,1.56.29,3.16-.53,4.86-1.07-.05-1.78-.48-2.47-.86.45-1.64.93-3.29,1-5h2Z" fill="#fff"/>
    <path d="M158,99.07c-2.55-1.81-4.25-3.63-6.13-6.04,3.6-.46,5.6,2.86,6.13,6.04Z" fill="#fff"/>
    <path d="M104.73,172.11c-1.85-.1-2.28-1.8-4.67-2.5.57-1.09,1.38-1.71,2.46-1.64,1.47.09,3.16.89,2.21,4.15Z" fill="#fff"/>
    <path d="M150.88,177.01c-1.09.59-1.36,1.27-1.94.49s-1.45-1.2-.92-1.97c.32-.46.92-1.35,1.89-1.54,1.41-.28,1.87.24,2.63.96.92.88-.49,1.41-1.66,2.05Z" fill="#fff"/>
    <path d="M128,137c.05.22.62.33.6.58-.05.59-.41,1.02-.68,1.33-.98-.06-1.96-.12-2.84-.6.06-1.63-1.15-2.62-2.15-4.25,2.68.06,3.24,2.34,5.07,2.95Z" fill="#fff"/>
    <path d="M114.38,174.45c-.2,2.79-4.03.81-5.24-1.02.82-.82,5.39-1.04,5.24,1.02Z" fill="#fff"/>
    <path d="M79.06,169.47c-.53,3.49-4.43.71-4.89-1.25,1.24-.23,5.24-1.04,4.89,1.25Z" fill="#fff"/>
    <path d="M139.85,223h-11.85c-2.66-1.54,15.11-1.42,11.85,0Z" fill="#fff"/>
    <path d="M134.23,87.23c-.05.28.02.58-.07.84-.49,2.16-1.22,2.76-2.17,1.82-.67.58-.69,1.43-.68,2.25-.42-.19-1.12-.54-1.14-1.09l-.16-4.06c1.42-.14,2.83.2,4.23.23Z" fill="#fff"/>
    <path d="M56.52,152.69c-1.41.15-2.31-3.09-1.14-4.45.8-.93,2.3.61,2.59,1.35s.11,2.93-1.45,3.1Z" fill="#fff"/>
    <path d="M52.5,153.44c.05,1.8-2.81,2.15-3.35,1.02-.51-1.05-1.79-2.51-.7-3.38,1.32,1.18,4,.68,4.05,2.35Z" fill="#fff"/>
    <path d="M20,154c.16-1.38-.05-2.89.57-2.94.84-.07,2.34-.14,2.94,0,.68.15.9,2.26.13,2.66-1.43.75-2.7.09-3.64.28Z" fill="#fff"/>
    <path d="M106,81c1.96.12.9,2.55,0,4-.28.87-.62.86-1,0l-1-1c-.28.87-.62.86-1,0l1.13-4.05c.34-.11.84-.26,1.18-.05.38.24.49.81.7,1.1Z" fill="#fff"/>
    <path d="M151,120c-.28.87-.62.86-1,0-.53-2.54-3.64-4.15-2.48-7.53,2.76,2.2,2.71,5.27,3.48,7.53Z" fill="#fff"/>
    <path d="M113.24,40.38c2.2-.87.7-2.16,1.36-2.31,1.62-.36,2.15.09,2.89.86.84.88.92,1.55-.93,2.28-.79.32-.94,1.11-3.33-.83Z" fill="#fff"/>
    <path d="M142.57,182.05c-.79,1.23-.83,2.13-2.05,2.04-.85-.07-1.56-.19-1.61-1.54-.03-1,.21-1.23,1.76-2.06,1.84-1.05,3.04-.22,1.9,1.56Z" fill="#fff"/>
    <path d="M58.35,159.82c-1.13.62-2.72-1.69-3.68-2.9,1.04-1.51,2.48-1.09,3.36-.46.76.55,1.93,2.47.32,3.36Z" fill="#fff"/>
    <path d="M88.67,168.53c-.25,1.46-2.1,1.73-2.84,1.46s-2.66-1.73-1.6-2.61c1.38-1.15,4.68-.26,4.44,1.14Z" fill="#fff"/>
    <path d="M74.02,163.42c-.65,3.5-4.26.69-4.87-1.19,1.27-.27,5.28-1.01,4.87,1.19Z" fill="#fff"/>
    <path d="M110.48,170.38c-1.42-.05-2.83-2.19-3.25-3.16,1.6-.57,3.24-.2,4.2.56.73.57,1.1,2.68-.95,2.61Z" fill="#fff"/>
    <path d="M114,84c-1.03,2.12-1.54.91-2-1,1.78-2.22-.56-5.47,2.72-6.28l-.72,7.28Z" fill="#fff"/>
    <path d="M144.26,244.25c.7-.43,2.19-.54,2.69.21.32.48.24,2.14-.68,2.49-.55.21-1.1.16-2.35.05-1.46-.13-1.23-1.79.34-2.75Z" fill="#fff"/>
    <path d="M120.16,63.03l-2.27-1.03c.02-1.57-1.4-2.81-.69-5.14,2.02,1.71,3.06,3.81,2.96,6.16Z" fill="#fff"/>
    <path d="M151.95,182.42c-1.99.96-2.63,1.5-3.44,1.64s-2.63-1.09-2.28-1.72c1.33-2.39,3.92-.33,5.72.07Z" fill="#fff"/>
    <path d="M185.22,183.2c-.95,1.08-1.42.9-2.2.34-1.05-.76-1.14-1.21.23-2.35.74-.62,1.3-1.54,1.72-.74.23.43,1.74.37,1.91,1.02.12.48-1.25,1.27-1.65,1.72Z" fill="#fff"/>
    <path d="M109.53,244.32c1.33.51-.05,1.81-.54,2.21-.76.61-2.59,1.03-2.98-.39-.31-1.11.06-2.16.51-2.11.73.07,1.53-.28,3.02.3Z" fill="#fff"/>
    <path d="M132,31l-1,2.01h-6c1.04-.62,2.07-1.26,3-2.01,1.32-.04,2.69-.1,4,0Z" fill="#fff"/>
    <path d="M51.96,149.61c-2.39,1.55-2.4-2.31-1.7-4.12.78-.81,3.76,2.79,1.7,4.12Z" fill="#fff"/>
    <path d="M148.53,104.53c-1.39,2.04-3.32-4.65-3.47-3.03.04-.41.8-.73.95-1.03.84-1.61,3.21,3.04,2.52,4.06Z" fill="#fff"/>
    <path d="M105.68,140c-.81-.59-1.5-1.42-2.37-1.91.4-.51.93-.79,1.39-.88.69-.14,1.44.63,2.35.76,1.43.21,1.41,1.63.21,1.8l-1.58.23Z" fill="#fff"/>
    <path d="M72,135c0,2.15,1.49,3.19.81,5.19-2.73-.29-2.59-3.29-2.81-5.19-.08-2,1.32-1.79,2,0Z" fill="#fff"/>
    <path d="M157.11,72.93c.35.29.67.61.96.96,1.96,2.3.48,3.78-2.07,2.11-.09-1.22-1.55-1.44-2.4-3.38,1.37-.99,2.31.64,3.52.31Z" fill="#fff"/>
    <path d="M156,130l-2-2c.2-.97-.12-2.01,0-3l2-1c.38,1.77.07,4.18,0,6Z" fill="#fff"/>
    <path d="M127,92v1c0,.66.08,1.34,0,2l-1,2c-1.18-1.17-1.28-2.91-.92-5.29.11-.74,1.51-.02,1.92.29Z" fill="#fff"/>
    <path d="M111,68c.03,1.62-.3,2.62-1,3-2.36,1.02-.35-2.91-1.14-4.03.35-1.4,1.68-1.37,2.12-.46.18.38-.03,1.05.02,1.49Z" fill="#fff"/>
    <path d="M132,50c1.78-.17,2.12,1.25,2.09,2.55-.04,1.7-1.25,1.98-3.17,1.07.57-.67,1.62-.97,1.51-1.67-.12-.76-.46-1.3-.43-1.95Z" fill="#fff"/>
    <path d="M102,136c.01-.48-.45-1.2-1-1,.88-.39,1.34-1.33,2.48-1.13s2,.59,2.57,1.99c-1.8.31-2.86.07-4.05.14Z" fill="#fff"/>
    <path d="M239,143c.53-2.52-.73-5.54,0-8,1.73,1.95,1.73,6.05,0,8Z" fill="#fff"/>
    <path d="M164,108.99c-2.3.22-2.92-1.57-4.04-2.69,2.05-.76,3.98-.53,4.04,2.69Z" fill="#fff"/>
    <path d="M83,139c-.28,2.25-1.7,2.11-2.4,1.96-.57-.12-1.15-.83-1.64-1.81,1.82-.32,2.84-.08,4.04-.15Z" fill="#fff"/>
    <path d="M108,83c-.51,1.68-1.17,2.35-2,2v-4c.29-.09.77-.47,1.01-.68.57-.54,1.05-.05.97.25-.17.68.37,1.89.02,2.43Z" fill="#fff"/>
    <path d="M137.28,40.5c-.15,2.11-1.99,1.6-2.67,1.46-.58-.12-1.17-.85-1.66-1.79,1.64-.18,2.67-.63,4.33.33Z" fill="#fff"/>
    <path d="M107,106c-1.5-1.46-1.41-4.81-1-7,1.95,1.6.78,4.67,1,7Z" fill="#fff"/>
    <path d="M122,223.01h-7c1.58-1.73,5.42-1.73,7,0Z" fill="#fff"/>
    <path d="M235,136v4c-1.75-1.61-1.69-5.4,0-7-.11.98,0,2.01,0,3Z" fill="#fff"/>
    <path d="M151,125c-.05-2.06-.69-3.5-1-5h1c.51,1.5,2.48,4.05,0,5Z" fill="#fff"/>
    <path d="M215.15,139c.26-2.19-.79-4.85-.15-7,1.63,1.58,1.69,5.36.15,7Z" fill="#fff"/>
    <path d="M128,81c-1.71-1.6-1.71-5.4,0-7v7Z" fill="#fff"/>
    <path d="M105,104c-1.89-2.69-1.07-4.93,0-7v7Z" fill="#fff"/>
    <path d="M114,84c-.06.61-.11,1.35,0,2-.99-.03-1.03.95-1.87,1.03-.31-1.78-.07-2.84-.13-4.03l2,1Z" fill="#fff"/>
    <path d="M138,100v1c-.56-.93-2.73-2.27-1.77-3.7.73-1.08,2.28.1,1.8,1.05-.19.37.05,1-.04,1.64Z" fill="#fff"/>
    <path d="M151.74,85.1c-.58-1.05-2.76-.94-2.75-1.94.01-1.79,1.53-1.35,2.05-.69.55.7,1.52.96.7,2.62Z" fill="#fff"/>
    <path d="M239,148h-1c-.04-1.07-.22-2.54,1-3,.46.38.9.88.96,1.5.07.67-.73,1.08-.96,1.5Z" fill="#fff"/>
    <path d="M111.92,146.08c-.86-.5-1.87-1.27-2.92-1.08-.87-.28-.86-.62,0-1,.78-.03,1.55-.35,2-1,.69.2,1.52.7,1.58,1.46.05.62-.38,1.17-.66,1.63Z" fill="#fff"/>
    <path d="M129,83v-6c1.68,1.25,1.68,4.75,0,6Z" fill="#fff"/>
    <path d="M114,72c-1.68-1.25-1.68-4.75,0-6-.3,1.94.44,4.09,0,6Z" fill="#fff"/>
    <path d="M74,137c-.46-.89-.08-1.19,1-1,.33,1.03,1.47,1.65,1.92,2.63-.55.63-1.73.4-2.38.36-.85-.05-.22-1.44-.54-1.99Z" fill="#fff"/>
    <path d="M68.39,58.04c-.43-1.75-1.59-2.42-1.43-3.95,1.9-.51,2.25.34,2.06,1.41-.17.99.44,2.02-.63,2.53Z" fill="#fff"/>
    <path d="M121,101c-1.68-1.25-1.68-4.75,0-6v6Z" fill="#fff"/>
    <path d="M66,75c-1.42,1.79-3.96.86-6,1.01,1.24-1.93,4.02-.77,6-1.01Z" fill="#fff"/>
    <path d="M199,150c.24-1.98-.9-4.73,1-6-.38,2.54.92,4.95-1,6Z" fill="#fff"/>
    <path d="M132,50c-1.72-.95-3.09-.76-5.1-1.28.7-1.27,2.11-.66,3.54-.72.79-.03,1.63.7,1.56,2Z" fill="#fff"/>
    <path d="M51,95c.46.89.08,1.19-1,1l-1.6-1c-1.11-.69.47-.8,1.09-1.07,1.36-.59.89.84,1.5,1.06Z" fill="#fff"/>
    <path d="M53.07,97.15l-.92.92c-1.05-.33-1.36-1.58-2.15-2.07.37-.3.7-.63,1-1,1.11.41,1.33,1.4,2.07,2.15Z" fill="#fff"/>
    <path d="M126,97c-.02-.8.19-1.68,1-2-.2,1.66.52,3.45-.46,5.03-1.07-1.17-.36-2.24-.54-3.03Z" fill="#fff"/>
    <path d="M133,38h-5c.93-1.81,3.75-1.32,5,0Z" fill="#fff"/>
    <path d="M101,103c-.61-2-1.79-3.01,0-5v5Z" fill="#fff"/>
    <path d="M116,74c-1.4-1.25-1.2-3.16-1-5,1.73.95.87,3.34,1,5Z" fill="#fff"/>
    <path d="M72,133v2h-2c-.13-1.11-.21-2.44.44-2.92.37-.28.78,1.26,1.56.92Z" fill="#fff"/>
    <path d="M112,70c-.07,1.23-.8,1.62-1,2,.2-.64-.5-.79-1-1-.05-1.09-.22-2.54,1-3,.08.77.1,1.78,1,2Z" fill="#fff"/>
    <path d="M125,80c-1.73-.95-.87-3.34-1-5,1.34,1.32,1.13,3.22,1,5Z" fill="#fff"/>
    <path d="M75,134c.11.62-.19,1.4,0,2-.37.3-.7.63-1,1-.39-.67-1.26-1.25-1-3h2Z" fill="#fff"/>
    <path d="M103,142c.64.03.97.36,1,1-.02.32.04.68,0,1h-2l-.66-1c-.35-.53-.12-.95.66-1,.3-.59.63-.58,1,0Z" fill="#fff"/>
    <path d="M110,55v1h-1c-.97.3-1.3-.03-1-1-.87-.28-.86-.62,0-1,.68.08,1.32,1.02,2,1Z" fill="#fff"/>
    <path d="M93,58c.42.31.41.64,0,1h-2.22c.1-.32.1-.68.22-1,.3-.57.63-.55,1,0h1Z" fill="#fff"/>
    <path d="M159,146c-.62,1.77-1.31.12-1-1,.89-.46,1.19-.08,1,1Z" fill="#fff"/>
    <path d="M106,54c.87.28.86.62,0,1h-2v-1c.55-.74,1.54-.73,2,0Z" fill="#fff"/>
    <path d="M106,53c.46.31.45.64,0,1h-2c0-.57.36-1.13,1-1,.32.07.67-.05,1,0Z" fill="#fff"/>
    <path d="M94,59c-.25-.05-.69,0-1,0v-1c.47.17.84.52,1,1Z" fill="#fff"/>
    <path d="M93,58h-1c.36-.26.59-.81,1-1v1Z" fill="#fff"/>
    <path d="M94,56c-.32.05-.68-.07-1,0,.12-.31.07-.7.22-1,.65-.07.82.46.78,1Z" fill="#fff"/>
    <path d="M159,144c-.28.87-.62.86-1,0-.04-1.16,1.03-1.19,1,0Z" fill="#fff"/>
    <path d="M160,145c-.36-.31-.7-.64-1-1,.48.1.88.52,1,1Z" fill="#fff"/>
    <path d="M45,212c-.35,2.39-3.54.39-5,1,.66-2.04,3.38-.63,5-1Z" fill="#fff"/>
    <path d="M242,144c-2.95,0,.64-7.33,0-5v5Z" fill="#fff"/>
    <path d="M243,144v-5c1.55.87,1.79,4.29,0,5Z" fill="#fff"/>
    <path d="M84,70c-.3.37-.63.7-1,1-.66.06-1.34-.09-2,0-.61.09-1.43-.22-2,0,.87-1.93,3.41-.61,5-1Z" fill="#fff"/>
    <path d="M128.71,141.91c-1.07.09-.75-.93.29-.91.09.35-.02.68-.29.91Z" fill="#fff"/>
    <path d="M129,141v-1c1.21.04,1.11,1.06,0,1Z" fill="#fff"/>
    <path d="M106,88c.04-.63-.31-1.15-1-1-.87-.28-.86-.62,0-1v-1h1c.58-.69,1.52-1.24,2-2-.83,1.71.13,3.85-2,5Z" fill="#fff"/>
    <path d="M104,143c-.39-.27-.72-.62-1-1-.65-.29-.63-.63,0-1,.5.02.95.11.99.54.05.59.03,1.07,0,1.46Z" fill="#fff"/>
    <path d="M108,54v1c.03.9-.64.9-2,0v-1c.3-.53.64-.52,1,0,.32,0,.68-.04,1,0Z" fill="#fff"/>
    <path d="M107,54h-1v-1c.52.08.88.51,1,1Z" fill="#fff"/>
    <path d="M126,142c-.42-.22-.61-.77-1-1,.36.29.87.56,1,1Z" fill="#fff"/>
  </g>
</svg>