<?xml version="1.0" encoding="UTF-8"?>
<svg id="Capa_1" xmlns="http://www.w3.org/2000/svg" version="1.1" viewBox="0 0 101.2 27.1">
  <!-- Generator: Adobe Illustrator 30.1.0, SVG Export Plug-In . SVG Version: 2.1.1 Build 136)  -->
  <path d="M23.2,12.6c0-.6-.2-1.3-.4-1.9,0,0-.1,0-.2,0,0,0,0,0,0,0h0c.2.6.4,1.2.4,1.8,0,.4,0,.8-.2,1.2,0,.3,0,.6,0,.9,0,.1,0,.2-.1.2,0,0-.1,0-.1-.2,0-.3,0-.6,0-.9h0c0-.5,0-.9-.1-1.3-.1-.3-.3-.7-.6-.9-.1-.2-.3-.5-.3-.7,0,0,0-.1,0-.2,0,0,0-.1,0-.2v-.4c-.1,0-.2,0-.2,0,0,0-.1,0-.2,0,0,0,0,0,0,.1l.3,1.1c.1.2.2.4.4.6h0c0,.1.2.2.3.3.1.2.2.3.2.5,0,.4.1.9.1,1.7l.2,1.1c0,.4,0,.8,0,1.3,0,.2,0,.2,0,.2h0s0,0,.2-.1c.3-.9.4-1.8.3-2.7,0-.3,0-.6.1-.9,0-.3.1-.5.1-.8" fill="#b38e5d"/>
  <path d="M22.1,10.8v-.2s0,0,0-.1c0,0-.1-.1-.2-.2,0,0,0,0,0,0h0s0,0,0,0c0,.4.2.8.5,1.1h0s0,0,0,0c0,0,0,0,0-.1v-.3c-.2,0-.2-.1-.2-.2" fill="#b38e5d"/>
  <path d="M20.7,13.9h0s0,0,0,0c0,0-.1,0-.1-.1-.1-.3-.2-.6-.3-1,0-.1,0-.3,0-.4,0-.2-.2-.5-.4-.6-.4-.3-.7-.8-.9-1.2,0-.1-.1-.2-.2-.2,0,0,0,0,0,0,0,0,0,.2,0,.2,0,.3.2.5.4.7,0,0,.1.1.2.2h0c.2.2.4.4.6.6.1.2.2.4.2.6,0,0,0,0,0,.1h0c.1.6.3,1.1.6,1.6,0,.2.1.3.2.5v.7c.1.2.2.2.2.2h0c0,0,0-.1,0-.2,0-.7,0-1.3,0-2,0-.6-.2-1.1-.4-1.6,0,0,0-.1-.2-.1h0s0,0,0,.1c.2.5.3,1.1.4,1.6,0,0,0,.1,0,.2h0Z" fill="#b38e5d"/>
  <path d="M19.4,10.4c0,0,0-.1-.1-.1,0,0,0,0,0,0h0c0,.4.3.6.5.9h0s0,0,0,0c0,0,0,0,0,0-.2-.2-.3-.5-.3-.7" fill="#b38e5d"/>
  <path d="M21.6,13.9h0s0,0,0,0c0,0,0,0-.1-.1,0,0,0,0,0-.2l-.2-1.2c0-.3-.2-.6-.4-.9-.4-.4-.7-.9-.8-1.4,0-.2,0-.2-.1-.2,0,0,0,0,0,.1,0,0,0,.1,0,.2.1.5.4,1,.7,1.3.2.2.4.4.4.7h0c0,.1,0,.3,0,.4h0c.1.6.3,1.2.5,1.8,0,.2.1.4.1.5,0,.4,0,.7,0,.9,0,.2,0,.3.1.3s0,0,.1-.2c0-.7,0-1.5,0-2.2,0-.4,0-.8-.1-1.2,0-.2-.1-.3-.2-.5,0,0-.1-.1-.1-.1,0,0,0,0,0,.1.1.5.2,1,.3,1.5,0,0,0,.1,0,.2h0Z" fill="#b38e5d"/>
  <path d="M20.9,11.1c0-.2-.2-.3-.2-.5v-.3c0,0,0-.1-.1-.1,0,0-.1,0-.2,0,0,0,0,0,0,0,0,0,0,0,0,0,0,.4.3.8.6,1.1h0s0,0,0,0h0s0,0,0,0c0,0,0,0,0-.1" fill="#b38e5d"/>
  <path d="M19.6,13.9h0c0,.1,0,.2,0,.2,0,0,0,.1,0,.2,0,0,0,0,0,0,0,0,0,0,0,0,0,0,0-.1,0-.2,0-.8-.1-1.5-.5-2.2,0,0,0,0,0,0,0,0,0,0,0,0,0,0,0,0,0,.1,0,.2.1.3.2.5,0,0,0,.1,0,.2h0s0,0,0,0h0s0,0-.1-.1c-.1-.3-.3-.6-.6-.7-.3-.2-.6-.4-.9-.7,0-.1-.2-.2-.2-.4,0,0,0,0,0,0,0,0-.1,0-.1.2,0,0,0,0,0,.1.2.3.4.6.8.8.5.2.8.6,1,1,.2.5.3.8.4,1.1" fill="#b38e5d"/>
  <path d="M18,10.6s0,0-.1,0h0c.1.3.3.5.6.6h0s0,0,0,0c0,0,0,0,0,0-.2-.2-.3-.3-.4-.6,0,0,0,0-.1,0" fill="#b38e5d"/>
  <path d="M17,11.8h0c.1,0,.2.1.3.1.1,0,.2.1.3.2.2.2.4.5.6.7h0c.1.3.3.5.5.7,0,0,0,0,0,0,0,0,0,0,0,0,0,0,0,0,0-.1-.1-.4-.3-.9-.5-1.3,0,0-.1-.1-.2-.1h0,0s.1.3.1.3h0c0,0,0,0,0,0h0s0,0,0,0h0s0,0,0,0h0s0,0,0,0c0-.1-.2-.3-.3-.4,0,0-.1,0-.2-.1-.1,0-.3-.1-.4-.2-.1,0-.2-.1-.3-.2-.1,0-.2-.2-.3-.3,0,0,0,0,0,0,0,0,0,0,0,0,0,0,0,.1,0,.2,0,.1.2.2.3.3,0,0,.1,0,.2,0" fill="#b38e5d"/>
  <path d="M21.3,16.5c-.3-.2-.5-.3-.7-.5-1.2-.9-2.4-1.8-3.7-2.7,0,0,0,0,0,0,0,0,0,0,0,0,0,0,0,.2.1.2l3.9,2.9h0c0,0,.1,0,.1.1,0,0,0,.1,0,.2-.1,0-.2,0-.4.1-.2,0-.5,0-.7-.3-1-.8-2.1-1.7-3-2.4,0,0,0,0,0,0h0c0,0,0,.1,0,.2,0,0,0,.1.1.1,1,.8,2,1.6,3,2.5.2.1.4.2.7.2.3,0,.6-.1.8-.3,0,0,0-.2,0-.2,0,0,0,0,0,0" fill="#b38e5d"/>
  <path d="M19.8,16.3c.1.1.3.2.4.3,0,0,0,0,0,0,0,0,0,0,0,0,0,0,0,0,0,0l-3.5-2.7h0s0,0,0,0c0,0,0,.1.1.2l2.9,2.3Z" fill="#b38e5d"/>
  <path d="M19,16.4l-2.3-1.9s0,0,0,0h0s0,0,0,.1c.7.6,1.4,1.2,2.1,1.9,0,0,.2.2.3.2,0,0,0,0,.1,0,0,0,0,0,0,0,0,0,0,0,0,0l-.3-.3Z" fill="#b38e5d"/>
  <path d="M17.2,11.5h0s0,0,0,0c0,0,0,0,0,0,0,0,0-.1,0-.2,0,0-.1,0-.2-.1,0,0,0,0-.1,0,0,0,0,0,0,0h0c0,.2.2.3.4.3" fill="#b38e5d"/>
  <path d="M19.4,17.3c.1,0,.2,0,.3,0,0,0,0,0,0,0,0,0,0,0,0,0h0s0,0,0,0h0c0,0-.1,0-.2,0-.2,0-.4,0-.5-.2-.6-.5-1-.9-1.4-1.2h0c-.3-.3-.6-.5-.9-.8,0,0,0,0,0,0h0s0,0,0,0c0,0,0,0,0,0h.1c.7.8,1.3,1.4,1.9,1.9.1.1.3.2.5.3,0,0,.2,0,.3,0" fill="#b38e5d"/>
  <path d="M16.3,15.1c.5.5,1,1.1,1.6,1.6.1.1.2.2.4.2h0s0,0,0,0c-.5-.4-1.1-1-1.5-1.5,0,0,0,0,0-.1h0c0-.1-.2-.2-.3-.3h0s0,0,0,0" fill="#b38e5d"/>
  <path d="M18.6,17.4s0,0,.1,0c0,0,0,0,0,0,0,0,0,0-.1,0-.2,0-.5,0-.7-.2-.6-.6-1.2-1.1-1.8-1.7,0,0,0,0,0,0h0c0,0,0,.1,0,.2,0,0,0,0,0,.1h0c.3.4.8.8,1.3,1.3.2.2.3.3.5.4.1,0,.3.1.4.1" fill="#b38e5d"/>
  <path d="M17.7,17.2s0,0,0,0c0,0,0-.1-.1-.1-.3,0-.6-.5-1-.9l-.2-.2h0s0,0,0,0c0,0,0,0,0,0l.8.9c.1.2.3.2.6.2h0Z" fill="#b38e5d"/>
  <path d="M7.6,7.2h0s0,0,.1,0c0,0,0,0,.1,0,0,0,0,0,0,0,0,0,0,0,0,0,0-.1.2-.2.3-.2,0,0,0,0,.2,0,.1,0,.2,0,.3.1,0,0,0,0,0,.1,0,0,0,0-.1,0,0,0,0,0-.1,0-.1,0-.2,0-.3,0-.3,0-.5.3-.4.6h0c0,0,0,.2-.1.2,0,0-.1,0-.1,0-.1-.1-.2-.3-.2-.4,0-.2,0-.3.2-.4M7.2,7.5c0,.1,0,.3,0,.4.1.4.5.6.9.6h0c.1,0,.2,0,.2,0,0,0,0,0,0-.1-.2-.1-.3-.3-.2-.5,0-.2.3-.3.5-.3,0,0,.1,0,.2,0,.1,0,.2,0,.3,0,.1-.1.3-.2.4-.2,0,0,.1,0,.2,0h0c0,0,0,.1,0,.2,0,0,0,0,0,0,0,0-.1,0-.2,0-.1,0-.3,0-.4.2,0,0,0,0,0,0,0,0,0,0,0,0,0,0,0,0,.1,0,0,0,0,0,.1,0,.2-.1.5-.3.7-.4,0,0,0-.1,0-.2-.2-.2-.4-.3-.6-.3,0,0-.2,0-.2,0-.1,0-.2,0-.3,0,0,0-.2,0-.2,0h-.5c0-.2-.1-.2-.2-.2,0,0-.1,0-.2,0h0s0,0,0,0c0,0,0,0,0,.1,0,0,0,0-.1,0,0,0,0,0-.1,0,0,0-.1,0-.1,0-.1.1-.2.3-.3.4" fill="#b38e5d"/>
  <path d="M8.1,6.5c.1,0,.2.1.3.1h0s0,0,0,0c0,0,.1-.2.1-.3,0-.1.1-.3.2-.4h0c0-.1.1-.2.1-.3,0-.1,0-.3-.1-.4h0c0,0,0,0,0,0,0,.3-.2.5-.4.7h0c0,.1-.2.2-.3.3,0,0-.1.1-.1.2,0,0,0,0,0,0" fill="#b38e5d"/>
  <path d="M8.9,6s0,0,0,0c.2.3,0,.4-.2.5,0,0,0,.1,0,.1,0,0,0,0,0,0,.2,0,.3-.3.2-.5,0,0,0,0,0,0,0,0,0,0-.1,0" fill="#b38e5d"/>
  <path d="M9.3,5.5s0,0,0-.1c0,0,0-.2.1-.2,0,0,0,.1,0,.1,0,0,0,0,0,0,0-.1,0-.3-.2-.4h0s0,0,0,0c0,.2-.1.4-.1.6,0,0,0,0,0,0" fill="#b38e5d"/>
  <path d="M9.2,5.9h0c.6-.3.8-.7.8-.9,0-.2,0-.4-.2-.5h0s0,0,0,0c0,.3,0,.6-.2.8-.1.1-.3.2-.5.4h0c0,0,0,0,0,.1,0,0,0,0,0,0" fill="#b38e5d"/>
  <path d="M10,5.9c-.2.1-.3.2-.5.3,0,0-.2,0-.3.2,0,0,0,0,0,0h0s0,0,0,0c.3-.1.6-.3.9-.5.2-.2.2-.3.2-.5,0,0,0,0,0,0,0,0,0,0,0,0-.2.1-.8.5-.9.6,0,0,0,0,0,0,0,0,0,0,0,0,0,0,0,0,0,0,.1,0,.5-.3.6-.3.1,0,.2,0,.2,0,0,0,0,0-.1.2" fill="#b38e5d"/>
  <path d="M9.1,6.8c0,0,.1,0,.2,0,.3-.2.6-.3.9-.4,0,0,0,0,0,0,0,0,0,.1,0,.2,0,0,0,0,0,0l-.4.2s0,0,0,0c0,0,0,0,.1,0h0c.4,0,.5-.2.5-.5,0,0-.1-.1-.2-.1-.1,0-.2,0-.3,0-.2,0-.5.2-.7.3,0,0-.2,0-.2.1,0,0-.2.1,0,.1" fill="#b38e5d"/>
  <path d="M10.4,5.1c.1,0,.2-.4.3-.2,0,.1,0,.3,0,.4,0,0,0,.1,0,.1h0s0,0,0,0c.1-.2.1-.4.1-.6,0-.1,0-.2-.2-.3h0s0,0,0,0v.2c0,0-.1.2-.2.2,0,0,0,0,0,.2,0,0,0,0,.1,0" fill="#b38e5d"/>
  <path d="M11,5.4c.2,0,.4.1.6.2,0,0,0,0,.1,0,.1,0,.3.2.5.2h0s0,0,0,0h0c.1-.1.2-.3.2-.5h0s0,0,0,0h0c0,0-.1,0-.2,0,0,0-.1,0-.2,0-.3-.2-.6-.3-1-.3h0s0,0,0,0h0s0,0,0,0h0s0,0,0,0c.4,0,.7.2,1,.4h0s0,0,0,0h0s0,0,0,0h0s0,0,0,0c-.3-.2-.6-.3-1-.4h0s0,0,0,0c0,0,0,0,0,0" fill="#b38e5d"/>
  <path d="M10.5,7.1s-.1-.1-.2-.2h0s0,0,0,0c0,0,0,0,0,0,0,.1,0,.2.2.3,0,0,0,0,0,0,0,0,.1,0,.2-.1,0-.1,0-.3-.2-.4h0c0,0,0,.2,0,.3,0,0,0,0,0,0" fill="#b38e5d"/>
  <path d="M11.1,6.9c0,0-.2-.2-.2-.3h0s0,0,0,0c0,0,0,0,0,0,0,.1,0,.3.2.4,0,0,0,0,.1,0,.1,0,.3,0,.3-.2,0,0,0-.2,0-.2-.2-.2-.4-.4-.7-.5h0s0,0,0,0h0c0,0,.1.1.2.2h0c.1,0,.2.2.3.2,0,0,0,0,0,.1,0,0,0,.1-.2.1" fill="#b38e5d"/>
  <path d="M10.6,5.9h0c.3.2.6.4,1,.6,0,0,0,0,.1,0,0,0,0,0,.1,0,.1,0,.1-.2,0-.3-.3-.3-.7-.5-1.1-.6h0s0,0,0,0h0s0,0,0,0h0s0,0,0,0c.3.1.6.2.8.4h0c0,0,.1,0,0,.2,0,0,0,0,0,.1h0c-.1,0-.2,0-.3,0h0s0,0,0,0c-.2-.1-.4-.2-.6-.3h0Z" fill="#b38e5d"/>
  <path d="M18.9,5.3s0,0,0,.1c1.5,1.1,2.6,2.6,3.4,4.4,0,0,0,.1,0,.2,0,0,0,0,0,0,0,0-.2,0-.3-.1-.3-.2-.6-.5-.8-.8-.8-1.3-1.9-2.4-3.1-3.3,0,0,0,0,0,0h0c0,0,0,.2,0,.2,1.3,1,2.4,2.2,3.2,3.6.4.5,1,.9,1.6.8,0,0,.1,0,.2,0,.1,0,.1,0,.1,0,0,0,0,0,0,0-.3-.2-.5-.5-.6-.9-.8-1.6-1.9-3-3.4-4.1,0,0,0,0-.1,0,0,0,0,0,0,0" fill="#b38e5d"/>
  <path d="M21.7,9.5s0,0,.2,0c0,0,0,0,0,0,0,0,0-.1,0-.2-.8-1.5-2-2.8-3.3-3.8,0,0,0,0-.2,0,0,0,0,0,0,0,0,0,0,0,.1,0,1.3,1.1,2.5,2.4,3.3,3.9" fill="#b38e5d"/>
  <path d="M20.4,9.5c0,0-.2,0-.2-.1-.6-.9-1.4-1.7-2.3-2.4h0s0,0,0,0c0,0,0,.2,0,.3.6.5,1.1,1,1.5,1.6h0c.3.3.5.6.8.9,0,0,.2,0,.3,0,0,0,.2,0,.2-.1,0,0,0-.2,0-.2-.7-1.3-1.7-2.3-2.8-3.2,0,0,0,0,0,0h0c0,.1,0,.2.1.3.9.8,1.7,1.7,2.4,2.7,0,0,0,.1,0,.2,0,0,0,0,0,0" fill="#b38e5d"/>
  <path d="M17.7,7.5h0c0,0,0,.1,0,.2.6.5,1.1,1.1,1.6,1.7,0,0,0,.2,0,.3,0,0-.1.1-.2.1,0,0-.1,0-.2,0-.4-.3-.7-.7-1.1-1-.1-.2-.3-.3-.4-.5h0s0,0,0,0c0,0,0,.1,0,.2l1.1,1.2c.1.2.3.3.5.4,0,0,.2,0,.2,0,.1,0,.3,0,.3-.1,0-.1,0-.3,0-.4-.5-.8-1.1-1.5-1.9-2h0Z" fill="#b38e5d"/>
  <path d="M17.4,7.8s0,0,0,.1c.5.5,1,1,1.5,1.5h0s0,0,0,0c0,0,0,0,0,0-.5-.6-1-1.1-1.6-1.6h0Z" fill="#b38e5d"/>
  <path d="M17.2,8.6s0,0,0,0c0,0,0,0,0,0,0,0,0,0,0,.1.4.3.7.6.9,1,0,0,0,.2,0,.2,0,0-.1.1-.2.1,0,0-.1,0-.2,0-.3-.2-.6-.5-.9-.8h0c0,0,0,0,0,0,0,0,0,0,0,.1.3.4.6.7,1,.9.1,0,.2,0,.4,0,.1,0,.2,0,.3-.1,0-.1,0-.3,0-.4-.3-.5-.7-.9-1.1-1.2" fill="#b38e5d"/>
  <path d="M16.8,9.1l.9.8h0s0,0,0,0h0c-.3-.4-.6-.8-1-1,0,0,0,.1,0,.2" fill="#b38e5d"/>
  <path d="M16.8,10.9c.2,0,.3,0,.4-.2,0,0,0-.2,0-.3-.2-.3-.5-.6-.7-.8h0s0,0,0,0c0,0,0,0,0,0,.2.2.4.4.6.6,0,0,0,.2,0,.2,0,0-.1.1-.2.1,0,0-.1,0-.2,0-.2-.2-.4-.3-.5-.5h0s0,0,0,0c0,0,0,0,0,.1.2.3.4.5.7.6,0,0,.1,0,.2,0" fill="#b38e5d"/>
  <path d="M16.5,10.4s0,0,0,0c0,0,0,0,0,0,0,0,0,0,0-.1-.1-.2-.3-.3-.5-.4,0,0,0,0,0,0,0,0,0,0,0,0,0,0,0,0,0,.1.1.2.3.3.4.4" fill="#b38e5d"/>
  <path d="M16.1,10.9l-.4-.5h0s0,0,0,0c0,0,0,0,0,.1l.3.3s0,0,0,.1c0,0,0,.2-.2.3h0c0,0-.1,0-.1.2,0,0,0,0,0,.1,0,0,0,0,0,0h0s.3-.3.3-.3c.1,0,.1-.2,0-.3" fill="#b38e5d"/>
  <path d="M15.6,11h0s0,0,0,0c0,0,0,0,0,0l-.2-.4h0s0,0,0,0h0c0,0,.2.4.2.4Z" fill="#b38e5d"/>
  <path d="M15.6,4.8c0,0,.1.1.2.2.6.2,1.1.5,1.6.8,0,0,0,.1,0,.2,0,0,0,0-.1,0,0,0-.1,0-.2,0-.4-.3-.8-.5-1.3-.7h0c0,0,0,.1,0,.2.5.2,1,.5,1.4.8,0,0,.1,0,.2,0,0,0,.1,0,.2,0,0-.3,0-.5-.4-.8-.5-.3-1.1-.5-1.6-.7h0Z" fill="#b38e5d"/>
  <path d="M16,5.8h0c0,0,0,.1,0,.2.1,0,.3.2.4.3.3.1.6.3.8.6,0,0,0,.2,0,.3,0,0,0,.1-.2.1,0,0,0,0-.1,0l-.8-.5h0s0,0,0,0c0,0,0,.2.1.3.2.1.4.3.6.4h0c0,0,.2.1.3.2,0,0,0,0,.1,0,.2-.2.2-.5.1-.7-.4-.4-.9-.7-1.5-1" fill="#b38e5d"/>
  <path d="M16.9,6.9h0c0,0,.1,0,0,0-.3-.2-.6-.4-1-.6,0,0,0,0,0,0,.2.2.5.4.8.5" fill="#b38e5d"/>
  <path d="M16.2,8.1l.5.4s0,0,.2,0c0,0,0,0,.1,0,0,0,.2-.2.2-.3,0-.2,0-.4-.2-.5l-.7-.5h0s0,0,0,0c0,0,0,.1,0,.2.2.1.4.3.5.4,0,0,0,.2,0,.3,0,0,0,0-.1.1,0,0,0,0-.1,0l-.4-.2s0,0,0,0c0,0,0,.1,0,.1" fill="#b38e5d"/>
  <path d="M16.5,8s0,0,0,0c0,0,0,0,0,0l-.3-.2h0s0,0,0,0l.3.2h0Z" fill="#b38e5d"/>
  <path d="M15.6,9s0,0,0,.1l.5.4s0,0,0,0c0,0,.1,0,.2-.1h0c.1-.3.2-.5,0-.7-.1-.2-.3-.3-.5-.4,0,0,0,0,0,0,0,0,0,.1,0,.2l.2.3c0,0,0,.2,0,.3,0,0-.1.1-.2.1,0,0,0,0-.1,0l-.3-.2h0s0,0,0,0" fill="#b38e5d"/>
  <path d="M15.8,8.7s0,0,0,0h.2c0,.1,0,.1,0,.1,0,0,0,0,0,0,0,0,0,0,0,0h-.2c0-.1,0-.1,0-.1,0,0,0,0,0,0" fill="#b38e5d"/>
  <path d="M14.9,9.7s0,0,0,0c0,0,0,0,0,.1l.4.4s0,0,.1,0c.2,0,.3-.2.4-.3,0-.1,0-.2,0-.4-.1-.2-.2-.3-.4-.5h0s0,0,0,0c0,0,0,.1,0,.2l.2.2c0,0,0,.2,0,.3,0,0-.1.1-.2.1,0,0-.1,0-.1,0l-.2-.2h0Z" fill="#b38e5d"/>
  <path d="M15.3,9.8s0,0,0,0c0,0,0,0,0,0l-.2-.2h0s0,0,0,0c0,0,0,0,0,0l.2.2h0Z" fill="#b38e5d"/>
  <path d="M15.9,14.7s0,.1,0,.1c0,0,.1,0,.2,0,.4-1,.3-2.1-.2-3h0s0,0,0,0c0,0,0,0,0,.1.4.7.5,1.4.4,2.2,0,0,0,.2-.1.2,0,0-.1,0-.1-.2,0-.6-.3-1.2-.6-1.7,0,.1,0,.2,0,.3.3.6.5,1.3.5,2" fill="#b38e5d"/>
  <path d="M15.6,11.9h0c0,0,0,.2,0,.2.3.4.4.9.5,1.3h0s0,0,0,0c0-.5-.2-1.1-.5-1.6h0Z" fill="#b38e5d"/>
  <path d="M13.1,4.4c0,0,.2,0,.2,0,.1,0,.2.1.4.2.5.3.9.8.9,1.5h0c.2,1,.3,1.5-.6,2.2,0,0,0,.1,0,.2,0,0,0,0,0,0h0c.3-.1.5-.4.7-.7.5-.7,0-2.2-.2-2.7-.1-.3-.4-.6-.8-.7l-1-.4c0,0-.2-.2-.1-.3,0-.1,0-.1.2-.2.1,0,.3,0,.4,0,.1,0,.2,0,.4,0,1.6,0,3.1.6,4.3,1.4h0c0,0,0,.1,0,.2,0,0-.1.1-.3.1-.1,0-.2,0-.3-.1v-.2c-.1,0-.1,0-.2,0s0,0,0,0v.3c0,0,0,0,0,0,.2,0,.4.1.6.1.4,0,.7-.1,1-.4,0,0,0-.1,0-.1,0,0,0,0-.2,0,0,0,0,0-.1,0-.3,0-.6,0-.9-.3-1.4-.8-3-1.2-4.6-1.2-.1,0-.3,0-.4,0-.1,0-.2.2-.3.3,0,.1,0,.3.1.4.1.1.3.2.5.3" fill="#b38e5d"/>
  <path d="M6,7.6c0,.2.2.3.3.4h.6c0,0,0,0,.1-.1,0,0,0,0,0-.1h-.5c-.2,0-.3-.3-.4-.5-.1-.5,0-1,.4-1.3,0,0,0,0,0,0h0s0,0,0,0c0,0,0,0,0,0,0,0,0,0,0-.1h0c0,0,0-.1,0-.1h0s0,0,0,0c-.3.2-.5.4-.7.7,0,.1-.1.3,0,.4l.2,1Z" fill="#b38e5d"/>
  <path d="M7.2,7.1h0c-.1,0-.2,0-.3,0-.1,0-.3,0-.4-.1h0s0,0,0,0c0,0,0,0,0,.1,0,.1.2.2.4.2.1,0,.3,0,.4-.2,0,0,0,0,0,0" fill="#b38e5d"/>
  <path d="M6.3,6.6c0,0,0,.1,0,.2,0,0,0,0,.1,0,0,0,0,0,.1,0,.3,0,.7-.2.9-.4h0s0,0,0,0c-.2.1-.5.2-.8.3,0,0,0,0-.1,0,0,0,0-.1,0-.2.1,0,.2-.2.3-.3,0,0,0,0,0,0,0,0,0,0,0-.1,0,0,0,0,0,0,0,0,0-.1,0-.2,0,0,0,0,.2-.1,0,0,0,0,0-.1,0,0,0-.1-.2-.1-.2,0-.2.2-.2.3,0,.1,0,.3,0,.4-.2.2-.3.4-.4.6" fill="#b38e5d"/>
  <path d="M7.1,5.7s0,0,0,.1c0,.1.1.2,0,.4h0c0,0,.1-.1.1-.2,0,0,0-.2,0-.3,0,0,0,0,0,0,0,0,0,0,0,0" fill="#b38e5d"/>
  <path d="M11.9,21c.3.2.4.6.5.9.2.5.3,1,.7,1,0,0,0,0,.1,0h0s0,0,0,0c-.2,0-.3-.4-.5-.9-.2-.5-.3-1-.7-1.2,0,0,0,0-.1,0,0,0,0,0,0,0,0,0,0,0,0,0" fill="#b38e5d"/>
  <path d="M12.5,20.9s0,0,0,0c0,0,0,0,0,0,.2.1.4.5.6,1,.2.5.4,1,.8,1h0s0,0,0,0h0c-.2-.1-.4-.5-.5-.9-.2-.5-.4-1.1-.8-1.2" fill="#b38e5d"/>
  <path d="M13.7,22.1h0c.1.4.3.9.7.9h0s0,0,0,0c-.2-.2-.4-.5-.5-.8-.1-.3-.2-.6-.5-.7h0s0,0,0,0h0c.1,0,.2.3.3.5" fill="#b38e5d"/>
  <path d="M12.5,20.7h0s0,0,0,0c.1,0,.1,0,.1-.1,0,0,0,0,0-.1,0,0-.2,0-.3,0h0c-.2,0-.4,0-.5,0,0,0,0,0,0,0,0,0,0,0-.1,0,0,0,0,0,0,0,0,0,0,.1,0,.2,0,.1.3.2.7.2,0,0,.2,0,.2,0" fill="#b38e5d"/>
  <path d="M16,20.6c0-.2-.2-.3-.4-.3-.3,0-.5.2-.5.4,0,0,0,0,0,0,0,0,0,0,0,0,0,0,0,0,0,0,0,0,0,0,.1,0,0-.2.2-.2.2-.2,0,0,.2,0,.2.1,0,0,0,.2,0,.2-.1,0-.2.2-.1.3,0,0,0,0,0,0,.2.3.2.6,0,.8,0,.1,0,.3.1.4,0,0,0,0,0,0h0c0,0,0,.1,0,.2,0,.1-.2.1-.3,0,0,0,0,0-.1-.1,0,0,0-.1-.1-.1,0,0,0,0,0,0,0,0,0,0,0,0,.1.3.3.4.5.4.1,0,.2,0,.3,0,0,0,.1-.2.2-.3,0-.1,0-.2,0-.3-.1,0-.1-.2,0-.4.1-.2.1-.5,0-.7,0-.1,0-.3,0-.4,0-.1.1-.3,0-.4" fill="#b38e5d"/>
  <path d="M11.5,22.5c0,0,0,0-.1,0,0,0,0,0,0,0v.2c-.1,0-.2.1-.3.1,0,0-.1,0-.2,0,0,0,0-.1,0-.2,0,0,0-.2.1-.2,0,0,0-.2,0-.3,0-.2-.1-.4,0-.7v-.3c.1,0,0-.2,0-.3,0,0-.1-.2-.1-.2,0,0,0-.1.2-.1,0,0,0,0,0,0,0,0,.1,0,.1.1,0,0,0,0,0,0,0,0,0,0,.1,0,0,0,0,0,0,0,0,0,0-.1,0-.2,0-.2-.3-.4-.5-.4-.1,0-.2,0-.3.1,0,0-.1.2,0,.3,0,.1,0,.2.1.3h0c0,.1,0,.3,0,.4,0,.2,0,.4,0,.6,0,.2,0,.3,0,.5h0c0,.1,0,.3,0,.4,0,.2.2.3.4.3.1,0,.2,0,.3,0,.1,0,.2-.2.2-.4" fill="#b38e5d"/>
  <path d="M15,23.1c0,0-.1,0-.1,0,0,0-.2,0-.3,0h0c-.9,0-1.7,0-2.7,0,0,0-.2,0-.3,0,0,0-.1,0-.2,0,0,0,0,0,0,0,0,0,0,.1,0,.1.2.3,1.7.2,2.2.2h.6c.2,0,.4,0,.5,0,.2,0,.3,0,.5-.1,0,0,0,0,0-.1,0,0,0,0-.1,0" fill="#b38e5d"/>
  <path d="M11.8,4.8c.8.2,1.4.5,1.6,1.2,0,.3,0,.5.2.5h0s0,0,0,0c0-.6-.2-1.1-.7-1.4-.3-.2-.7-.3-1-.4-.2,0-.3-.2-.3-.4,0,0,0,0,0,0,0-.2.2-.4.4-.4h0c0,0,.1,0,.1,0,0,0,0,0,0,0h0s0,0,0,0c-.3,0-.6,0-.6.5,0,.3,0,.5.4.6" fill="#b38e5d"/>
  <path d="M12,4h0c.2,0,.2,0,.2.1,0,0,0,.1-.2.1h0s0,0,0,0c0,0,.1,0,.2,0,.1,0,.2,0,.3-.1,0,0,0,0,0-.1,0,0-.2-.1-.3-.1,0,0-.1,0-.2,0" fill="#b38e5d"/>
  <path d="M13.1,4.9s0,0,.1,0c0,0,0,0,.1,0h0c-.2-.3-.6-.4-.9-.3,0,0,.6,0,.7.3" fill="#b38e5d"/>
  <path d="M13.3,6.2c-.1-.3-.3-.5-.6-.6,0,0,0,0,0,0,.4.3.7.7.8,1.2,0,0,0,.2,0,.3h0c0,0,0,.1-.1.1,0,0,0,0,0,.1,0,0,0,0,.1,0h0s0,0,0,0l.4-.3s0,0,0-.1c0,0,0,0,0,0-.2-.2-.4-.4-.5-.7" fill="#b38e5d"/>
  <path d="M12.1,6.5h0s0,0,0,0c0,.4.1.8,0,1.2,0,0,0,0,0,0,0,0,.1,0,.2,0,.1,0,.3,0,.4-.2.1,0,.2-.2.2-.3,0-.5-.2-.9-.5-1.3,0,0,0,0,0,0h0s0,0,0,0c.3.6.4,1,.3,1.3,0,0-.1.1-.2.1,0,0-.1,0-.1-.2,0-.3,0-.6-.2-.9h0Z" fill="#b38e5d"/>
  <path d="M12.6,7.2s0,0,0-.1c0-.3-.2-.6-.3-.9h0s0,0,0,0c.1.3.2.7.3,1,0,0,0,0,0,0" fill="#b38e5d"/>
  <path d="M13.1,6.9c0,.1.1,0,.1,0-.1-.4-.5-1-.6-1,.2.3.4.7.5,1" fill="#b38e5d"/>
  <path d="M11.3,7.7v-.5c0,0,0,0,0,0,0,0,0,0,0,0,0,.2-.3.7-.2.9,0,0,0,0,0,0,0,0,0,0,.1,0,.2,0,.3,0,.4-.2.2-.2.2-.7.1-1.1h0c0-.2,0-.2,0-.2h0c0,0,0,0,0,.1,0,.3,0,.6,0,.9,0,0-.1.2-.2.2,0,0-.1,0-.1-.2" fill="#b38e5d"/>
  <path d="M11.6,7.5c0-.2,0-.3,0-.5,0,0,0,0,0,0,0,0,0,0,0,0,0,.2,0,.3,0,.5,0,0,0,0,0,0h0s0,0,0,0" fill="#b38e5d"/>
  <path d="M11.4,6.1s0,0,0,0h0c0,0,0-.1,0-.1-.2,0-.4-.2-.6-.2,0,0,0,0,0,0,0,0,0,0,0,0,.2,0,.4.2.6.3" fill="#b38e5d"/>
  <path d="M10.3,8.1c0,0,.2,0,.3,0,.2,0,.3-.1.4-.3v-.6c.1,0,.1,0,.1,0h0c0,0-.1,0-.1.1,0,.2,0,.4-.2.5,0,0,0,0-.1,0,0,0,0,0,0,0,0,0,0,0,0,0,0,0,.1-.2.1-.3,0,0,0,0,0,0h0s0,0,0,0c0,.1-.2.3-.3.4,0,0,0,.1,0,.2" fill="#b38e5d"/>
  <path d="M8.8,7.6s0,0-.1,0c0,0,0,0,0,0,0,0,0,0,0,0,.5.3.7,1,.4,1.5,0,0,0,0,0,0,0,0,0,0,0,0h0s0,0,0,0c.4-.5.2-1.2-.3-1.6,0,0,0,0,0,0" fill="#b38e5d"/>
  <path d="M3.7,10.1s0,0,0,0h0s0,0,0,0c0,0,0,0,0-.1-.1-.2,0-.3,0-.4h0s0,0,0-.1c0,0,0,0,0-.1,0,0,0,0,0,0,0,0,0,0,0,0,0,0-.1.1-.2.2h0s0,0,0,0h0s0,0,0,.2c0,.1.1.2.1.3" fill="#b38e5d"/>
  <path d="M4.2,10.3s0,0,.1,0c0,0,0,0,0,0,0,0,0-.1,0-.2-.1-.3,0-.4.1-.5h0s0,0,0-.1c0,0,0,0,0,0,0,0,0,0,0,0-.3.2-.3.4-.2.8" fill="#b38e5d"/>
  <path d="M4.5,10.1v.4c0,0,.1,0,.2,0,0,0,0,0,0,0,0,0,0,0,0-.1,0-.1,0-.3,0-.4h.1c0-.2,0-.2,0-.2,0,0,0,0,0,0h0s-.2.2-.2.2c0,0-.1.2-.1.3" fill="#b38e5d"/>
  <path d="M8.3,7.8s0,0,0,0c0,0,0,0-.1,0,0,0,0,.2,0,.2.2.1.4.3.4.6,0,.2,0,.4-.2.6l-1.1,1c-.7.7-.8,1.4-.3,2h0s0,0,0,0c-.4-.8.1-1.3.8-1.9h0c.4-.3.7-.6,1-1,.3-.5,0-1-.5-1.5" fill="#b38e5d"/>
  <path d="M8.7,12c-.2,0-.3,0-.5,0h0c-.1,0-.2,0-.3,0-.3,0-.5-.1-.6-.7,0,0,0-.1,0-.1,0,0,0,0,0,.1,0,.7.5.7,1.2.8.2,0,.4,0,.7,0,.3,0,.6.3.7.6,0,.3,0,.6-.3.8,0,0,0,.1,0,.2,0,0,0,0,.2,0,0,0,0,0,.1,0,.3-.2.5-.6.4-1-.1-.4-.5-.8-.9-.8,0,0-.1,0-.2,0" fill="#b38e5d"/>
  <path d="M7.5,9.3c-.9.4-1.4,1.4-1.3,2.4.1.7.7,1.2,1.4,1.3h1.2c0,0,.1,0,.2.1,0,0,0,.2,0,.3,0,0,0,0,0,0h0s0,0,.1,0c.1-.1.2-.3.1-.5,0-.2-.2-.2-.4-.2-.2,0-.4,0-.6,0-.3,0-.7,0-1-.1-.5-.2-.8-.7-.8-1.2,0-.8.5-1.5,1.2-1.9.4-.2.8-.5.8-.7,0,0,0-.1,0-.2h0s0,0,0,0c-.2.3-.6.5-.9.7" fill="#b38e5d"/>
  <path d="M5.3,11.7c0,.2,0,.5.1.6.2.2.4.3.7.5.2.2.4.5.4.8h0c0,0,0,.2,0,.2,0,.2.3.4.5.5h0s0,0,0,0c0,0,0,0,0,0-.3,0-.4-.2-.4-.4,0-.4-.2-.7-.4-1-.2-.1-.5-.3-.7-.5,0,0-.1,0-.1-.2,0-.4,0-.7.3-1,.1-.5-.2-1-.6-1.2,0,0,0,0,0,0,0,0,0,0,0,0,0,0,0,0,0,.1.5.4.7.7.2,1.7" fill="#b38e5d"/>
  <path d="M5.5,13.1c.3.2.5.5.5.8,0,.8.5,1.2,1.2,1.2h0c.1,0,.2,0,.3,0,0,0,0,0,0,0,0,0,0,0,0-.1,0,0-.1,0-.2,0,0,0,0,0,0,0h0c0,0-.1,0-.2,0,0,0-.1,0-.2,0-.4,0-.6-.4-.6-.8,0-.4,0-.7-.4-.9-.3-.2-.6-.4-.8-.7-.2-.3-.2-.7,0-1,0,0,0-.1,0-.2,0-.1,0-.3,0-.4,0-.4-.1-.6-.3-.7h0s0,0,0,0c0,0,0,0,0,.2.3.2.3.6,0,1.2-.2.3-.2.6,0,.9.2.3.4.5.7.7" fill="#b38e5d"/>
  <path d="M7.9,15s0,0,0,0c0,0,0,0,0,0,0,0-.1,0-.2,0,0,0,0,0,0,0,0,0,0,0,.2,0" fill="#b38e5d"/>
  <path d="M8.4,14.9s0,0,0,0c0,0-.2,0-.3,0h0s0,0,0,0c0,0,0,0,0,0,0,0,.2,0,.3,0h0s0,0,0,0Z" fill="#b38e5d"/>
  <path d="M8.4,14.6h0s0,0,0,0c0,0,.2.2.3.1,0,0,0,0,.1,0h0s0,0,0,0c0,0-.2-.1-.3-.1" fill="#b38e5d"/>
  <path d="M8.6,13.9c0,0,.1,0,.1,0,0,0,0,0,.1-.1,0,0,0,0,0,0,0,0,0,0,0,0,0,0-.1-.2,0-.3,0,0,0,0,0,0,0,0,0,0,0,0h0s0,0-.1,0h0c-.2.1-.2.3-.2.5,0,0,0,.1.2.1h0Z" fill="#b38e5d"/>
  <path d="M7.7,14.8s0,0,0,0h0c-.1-.1-.2-.3-.1-.4,0-.2,0-.3-.2-.5,0,0,0,0,0,0,0,0,0,.1,0,.2,0,0,0,.2,0,.3,0,.2,0,.3.2.4" fill="#b38e5d"/>
  <path d="M8,14.6h0c0,0,0,0,0,0,0,0,0,0,0,0-.2,0-.2-.3-.2-.4,0-.1,0-.2,0-.3,0,0,0-.2,0-.3h0s0,0,0,0c0,0,0,0-.1.1,0,.1,0,.2,0,.3,0,0,0,.2,0,.3,0,.1,0,.3.1.4,0,0,0,0,.1,0" fill="#b38e5d"/>
  <path d="M8.4,13.3s0,0,0,0h0s0,0-.1,0c-.1,0-.3,0-.3.2,0,.1,0,.2,0,.3,0,0,0,.2,0,.3,0,0,0,.2,0,.3,0,.1.2.2.3.2,0,0,0,0,0,0h0c0,0,0-.2,0-.3,0,0,0,0,0,0,0,0,0,0,0,0,0,0,0,0,0,0-.2-.2-.2-.5,0-.7,0,0,0,0,0,0" fill="#b38e5d"/>
  <path d="M9.7,14.7c0,0,.2-.2.3-.2.1,0,.3-.2.4-.3.1-.3,0-.6-.2-.8,0,0,0,0,0,0,0,0,0,0,0,0,0,0,0,0,0,.1v.2c.2.1.1.3,0,.3,0,0,0,0,0,0-.2,0-.4.2-.6.4,0,0,0,0-.2,0,0,0,0,0-.1,0l-.2-.2s0,0,0-.1c0,0,0,0,0,0,0,0,0,0,0,0h.1c0,0,0,0,0,0,0,0,0,0,0,0,0-.1,0-.3-.2-.3,0,0,0,0-.1,0-.2,0-.3.1-.4.3-.1.2.1.3.4.5,0,0,.1.1.2.2,0,0,0,0,.1,0,0,0,0,0,.1,0,.1,0,.2-.1.3-.2" fill="#b38e5d"/>
  <path d="M10.3,14.9s0,0,0,0c.2,0,.4.1.5.2,0,0,0,0,0,0,0,0,0,0,0,0-.2-.2-.5-.3-.8-.3,0,0-.2,0-.2,0,0,0-.1,0-.1.2,0,0,0,0,0,0h.5c0,.1.4.3.4.3h0s0,0,0,0h0c-.1-.2-.3-.2-.5-.3-.1,0-.1,0-.1,0,0,0,0,0,0,0" fill="#b38e5d"/>
  <path d="M10.6,14.2c0,0-.1.1-.2.2,0,0,0,.1,0,.2,0,.2.5.3.6.3h0s0,0,0,0c0,0,0,0,0,0h0s0,0,0,0c-.2,0-.3-.2-.5-.3,0,0,0-.1,0-.2,0,0,.1,0,.2,0,0,0,.2,0,.2,0h0s0,0,0,0c0,0,0,0,0,0,0,0-.1,0-.2-.1-.1,0-.2,0-.3,0" fill="#b38e5d"/>
  <path d="M10.9,14.4h0s0,0,0,0c0,0,0,0,0,0,.2,0,.3.2.5.2h0s0,0,0,0c0,0,0,0,0,0,0,0,0,0,0,0-.1,0-.3-.2-.5-.2" fill="#b38e5d"/>
  <path d="M11,15.8h0c0,0,.1,0,.2,0,.2,0,.5-.2.7-.2,0,0,0,0,0,0,0,0,0,0,0,0,0,0,0,0-.1,0-.2,0-.4,0-.7.1h0s0,0,0,0c0,0,0-.1,0-.1.2-.2.4-.4.7-.4,0,0,0,0,0,0,0,0,0,0,0,0-.4,0-.7.3-.9.6,0,0,0,.2,0,.3,0,0,.1.1.2,0" fill="#b38e5d"/>
  <path d="M11.5,15.2s0,0,0,0c0,0,0,0,.1,0,.1,0,.2,0,.3,0h0s0,0,0,0c0,0,0,0-.2,0-.1,0-.2,0-.3,0" fill="#b38e5d"/>
  <path d="M10.7,13.7s0,0,0-.1c0,0,0,0,.1,0h0s0,0,0,0c0-.1-.2-.2-.4-.2,0,0,0,0,0,0,0,.3.1.5.5.6h0s0,0,0,0h0s-.2-.2-.2-.2Z" fill="#b38e5d"/>
  <path d="M10.3,12.4h0c0,.3,0,.5.2.7,0,0,.2.1.3.1,0,0,0,0,0,0,0,0,0-.1,0-.2,0,0,0-.1-.1-.1,0,0,0,0,0,0,0,0-.2-.1-.2-.3,0-.1,0-.3-.2-.3" fill="#b38e5d"/>
  <path d="M11.2,13.4s0,0-.1,0h0s0,0,0,0h0c0,.5.2,1,.6,1.3,0,0,0,0,.1,0,.1,0,.2-.1.2-.2,0-.2,0-.3,0-.5,0,0,0,0,0,0,0,0,0,0,0,0,0,0,0,0,0,0v.2s0,0,0,0h0s0,0,0,0c0,0,0,0,0,0-.2-.2-.3-.5-.3-.8,0,0,0-.1,0-.1" fill="#b38e5d"/>
  <path d="M12.4,15.8s0,0,.2,0c0,0,.1,0,.1,0,0-.2.1-.4,0-.5h0c0,0,0-.1,0-.1h0s0,0,0,0v.3c0,0,0,.1,0,.1,0,0,0,0,0,0-.2-.3-.2-.7-.2-1,0-.1,0-.2-.1-.2s0,0,0,0c0,.5,0,1,.4,1.4h0Z" fill="#b38e5d"/>
  <path d="M12.5,15.2h0s0,0,0-.1v-.3c0,0,0,0-.1,0,0,0,0,0,0,0,0,.1,0,.3,0,.4,0,0,0,0,0,0" fill="#b38e5d"/>
  <path d="M11.5,14s0,0,0,0c0,0,0-.1,0-.2,0,0,0,0,0,0h0c0,.1,0,.2,0,.2,0,0,0,0,0,0" fill="#b38e5d"/>
  <path d="M13.5,5.1h0s0,0,0,0,0,0,.1,0c.2,0,.4,0,.5.3,0,0,0,0,0,.1,0,0,0,0-.1,0h0c0,0,0,0,.1,0,0,0,.1,0,.1,0,0,0,0-.1,0-.2,0-.3-.4-.4-.6-.4" fill="#b38e5d"/>
  <path d="M13.8,5.5s0,0,0,0c0,0,0-.1-.1-.1,0,0,0,0,0,0,0,0,0,0,0,.1,0,0,0,0,0,0" fill="#b38e5d"/>
  <path d="M13.9,5.9s0,0,0,0c0,0,0,0,0,0,.2,0,.3.2.3.5,0,.2,0,.1-.2.1,0,0-.1,0-.1,0,0,0,0,0,0,0,0,0,0,0,0,0,0,0,.2.1.3.1,0,0,0,0,0,0,0,0,.1-.2,0-.4,0-.3-.2-.4-.5-.4,0,0,0,0,0,0" fill="#b38e5d"/>
  <path d="M14,6.4s0,0,0,0c0-.1,0-.1,0-.2,0,0,0,0,0,0,0,0,0,0,0,0,0,0,0,0,0,0,0,0,0,0,.1,0" fill="#b38e5d"/>
  <path d="M14.1,8h0c.2-.1.4-.3.4-.6,0-.1,0-.2,0-.3,0,0-.2-.1-.4-.1h0c0,0-.1,0-.1,0,0,0,0,0,0,0h.2c0,0,.1.1.1.2,0,.1,0,.2,0,.3-.2.2-.2.2-.2.3,0,0,0,0,0,0" fill="#b38e5d"/>
  <path d="M14,7.5s0,0,0,0c0,0,0,0,0,0,0-.1,0-.1,0-.1,0,0,0,0-.1,0,0,0,0,0,0,0,0,0,0,0,0,0" fill="#b38e5d"/>
  <path d="M14.6,4.6h0c.1.1.3.2.5.2,0,0,.1,0,.1,0,0,0,0,0,0,0-.3-.6-1-.9-1.6-.9,0,0-.2,0-.3,0,0,0,0,0,0,0,0,0,.1.1.2.1,0,0,.2,0,.3,0,.4,0,.8.1,1,.4,0,0,0,.1,0,.2,0,0,0,0-.2,0" fill="#b38e5d"/>
  <path d="M14.2,4.2c0,0-.1,0-.2,0,0,0,0,0,0,0,0,0,0,0,0,0,0,0,.1,0,.2,0,0,0,0,0,.1,0,0,0,0,0,0,0,0,0,0,0,0,0,0,0-.1,0-.2,0" fill="#b38e5d"/>
  <path d="M15.7,4.4c0,0-.1,0-.2,0-.1-.2-.3-.3-.5-.4,0,0,0,0,0,0h0c.3.4.6.6,1,.7,0,0,0,0,0,0,0,0,0,0,0,0,0,0,0,0,0,0,0-.2-.2-.4-.4-.5,0,0,0,.1,0,.2,0,0,0,0,0,0" fill="#b38e5d"/>
  <path d="M16.4,20.2s0,0,0,0h0c0,0,0,0,0-.1,0-.1,0-.2.1-.3.6-.3.8-.6.7-1,0,0,0,0,0,0,0,0,0,0-.1,0,0,0-.1,0-.2.1,0,.2-.1.5-.3.6-.5.3-1.1.5-1.6.5-.2,0-.4.1-.5.3l-.2.5c0,.1-.1.2-.2.2h-.5c0,0,0,0-.1-.1,0,0,0,0,0-.1,0-.4,0-.8.2-1.2,0-.1,0-.3,0-.4,0,0,0,0,0,0s0,0,0,0c-.2.5-.3,1.1-.3,1.7,0,.2,0,.2.2.3h1.1c.2,0,.2,0,.2-.1,0-.5.2-.8.5-.8.2,0,.5,0,.8-.1,0,0,0,0,0,0,.1,0,.2,0,.2,0,0,0,.2,0,.3,0" fill="#b38e5d"/>
  <path d="M15.9,18.4h0c-.1,0-.2.1-.2.2,0,0,0,.1.1.1,0,0,0,0,0,0,0-.1.2-.2.3-.2,0,0-.2,0-.3,0" fill="#b38e5d"/>
  <path d="M15.6,19.4s0,0,0,0c.1,0,.2-.1.3-.2-.1,0-.3,0-.4,0h0c0,0-.1,0-.1,0,0,0,0,0,0,0,0,0,0,0,0,.1,0,0,0,0,.1,0" fill="#b38e5d"/>
  <path d="M15.2,18.6c0-.1.1-.2.2-.3,0,0,0,0,0,0,0,0-.2,0-.3,0,0,0-.1.1-.1.2,0,0,0,.1.1.1,0,0,0,0,.1,0" fill="#b38e5d"/>
  <path d="M13.9,20.3s0,0,.1,0c0-.1,0-.3.1-.4-.1,0-.2,0-.3.2,0,0,0,.1,0,.2,0,0,0,0,.1,0" fill="#b38e5d"/>
  <path d="M18.4,19.9c.1,0,.3-.1.5-.1-.1-.1-.3-.2-.5-.2-.4,0-.3.5,0,.4" fill="#b38e5d"/>
  <path d="M19,19.2c0-.1,0-.3,0-.4-.1,0-.2,0-.3.2,0,0,0,.1,0,.2,0,0,0,0,.2,0,0,0,.1,0,.1,0" fill="#b38e5d"/>
  <path d="M19.7,19s0,0,0,0c0,0-.2,0-.3,0,0,0-.1.1-.1.2,0,0,0,.1.1.1,0,0,0,0,.1,0,0-.1.1-.2.2-.3" fill="#b38e5d"/>
  <path d="M19.3,19.9s0,0,0,0c.1,0,.2-.1.3-.2-.1,0-.3,0-.4,0h0c0,0-.1,0-.1.1,0,0,0,0,0,0,0,0,0,0,0,.1,0,0,0,0,.2,0" fill="#b38e5d"/>
  <path d="M14.6,19.3c0,0,0,.1.1.1,0,0,.1,0,.2-.1,0-.1,0-.2,0-.3-.1,0-.2.2-.3.2,0,0,0,0,0,.1" fill="#b38e5d"/>
  <path d="M12.7,18.3c-.2,0-.3.1-.4.2.2,0,.3,0,.5.1.3.1.3-.4,0-.4" fill="#b38e5d"/>
  <path d="M11.7,18c0,0,.1,0,.1-.1,0,0,0-.2-.1-.2,0,0-.2,0-.3,0,0,0,0,0,0,0,.1,0,.2.2.3.3,0,0,0,0,.1,0" fill="#b38e5d"/>
  <path d="M11.1,18c0,0,0-.2-.2-.2-.1,0-.2,0-.3.1.1,0,.3,0,.4.2,0,0,0,0,0,0,0,0,.1,0,.1-.1" fill="#b38e5d"/>
  <path d="M11.2,18.5c-.1,0-.3.1-.5.1.1.1.3.2.4.2.4,0,.3-.5,0-.4" fill="#b38e5d"/>
  <path d="M11.8,18.5s0,0,.1,0c0,0,.1,0,.2-.1,0,0,0,0,0,0,0,0,0-.1-.1-.1,0,0,0,0,0,0,0,0-.1,0-.2,0,0,0-.2,0-.2,0,0,.1.2.2.3.3" fill="#b38e5d"/>
  <path d="M9,17.9s0,0,.1,0c0,0,.1,0,.1-.1,0,0,0,0,0,0,0,0,0-.1-.1-.1-.1,0-.2,0-.4,0,0,.1.1.2.2.3" fill="#b38e5d"/>
  <path d="M8,18s0,0,.1,0c0,0,.1,0,.1-.1,0,0,0,0,0,0,0,0,0-.1-.1-.1,0,0,0,0,0,0,0,0,0,0,0,0-.1,0-.2,0-.3,0,0,.1.1.2.2.3" fill="#b38e5d"/>
  <path d="M7.6,17.1s0,0,0,0c0,0-.2,0-.3,0,0,0,.2,0,.2.2h0s0,0,0,0c0,0,0,0,0,0,0,0,.1,0,.1-.1,0,0,0-.1-.2-.2" fill="#b38e5d"/>
  <path d="M5.8,15.9h0c0,0,0,.1.2.1,0,0,0,0,0,0,0,0,0-.1,0-.2,0-.1-.1-.2-.2-.3,0,0,0,.2,0,.3,0,0,0,0,0,.1" fill="#b38e5d"/>
  <path d="M5.5,15.6c0-.1-.1-.2-.2-.3,0,0,0,.2,0,.3,0,0,0,0,0,.1h0c0,0,0,.1.2.1,0,0,0,0,0,0,0,0,0-.1,0-.2" fill="#b38e5d"/>
  <path d="M5.4,16.1s0,0,0,0c-.1,0-.2,0-.3-.1,0,.1.1.3.2.4,0,0,0,0,.1,0,0,0,.1,0,.1-.1,0,0,0-.1,0-.2" fill="#b38e5d"/>
  <path d="M6,16.8s0,0,.1,0c0,0,.1,0,.1-.1,0,0,0-.1,0-.1,0,0,0,0,0,0-.1,0-.2,0-.3-.1,0,.1,0,.3.2.4" fill="#b38e5d"/>
  <path d="M13.3,17.8s0,0,0-.1c0-.1,0-.2,0-.3,0,0,0,0-.1,0,0,0,0,0,0,0-.2,0-.4.1-.5.4,0,.2,0,.5.2.6,0,0,0,0,0,0h0s0,0,0-.1c0,0,0-.1,0-.2,0,0,.2,0,.3-.1h0Z" fill="#b38e5d"/>
  <path d="M13.9,19.2h0s0,0,0,0h0c-.1-.1-.2-.2-.2-.3,0,0,0-.2.2-.2,0,0,0-.1,0-.2,0,0-.2-.2-.2-.3,0,0,0,0,0,0,0,0,0,0-.1,0-.2.1-.3.4-.2.6,0,.2.3.4.5.4" fill="#b38e5d"/>
  <path d="M17.5,19.1h0c0,0,.1,0,.2,0,.2,0,.4-.2.4-.3,0-.2,0-.5-.2-.6,0,0,0,0-.1,0,0,0,0,0,0,0,0,0-.1.2-.2.3,0,0,0,0,0,.1,0,0,0,0,0,0,0,0,.2.1.2.2,0,.1,0,.2-.2.3" fill="#b38e5d"/>
  <path d="M16.6,18.4c0,0,.1,0,.2,0,0,0,.1,0,.2,0,.2,0,.4-.3.5-.5,0-.1,0-.2,0-.3,0-.1-.2-.2-.4-.2,0,0,0,0,0,0-.2,0-.4-.1-.5-.3,0,0-.1-.1-.2-.2,0,0,0,0,0,0,0,0,0,0,0,0h0c0,.2.1.3.2.4.1,0,.3.2.4.3,0,0,.1.1.1.2,0,0,0,.1-.2.2,0,0,0,0,0,0,0,0-.2,0-.2-.2-.1-.2-.3-.4-.5-.6h0s0,0,0,0c0,0-.1,0-.2.1,0,0,0,0-.1,0,0,0,0,0,0,0,0,0,0,0,0,0-.3.2-.5.4-.7.6,0,0,0,0-.1,0h0s0,0,0,0h0s0,0,0,0c0,0,0-.1,0-.2.2-.1.4-.3.6-.5,0,0,0,0,0,0,0,0,0,0,0,0,0,0-.2,0-.2,0,0,0-.2,0-.3,0,0,0-.2,0-.2,0-.1,0-.3,0-.4,0,0,0,0,0-.1,0,0,0-.2,0-.2.1,0,0,0,0,0,.1,0,.1,0,.3,0,.4,0,0,0,0,0,.1,0,0,0,0,0,0,0,0,.1,0,.1,0,.1,0,.2-.2.2-.4,0,0,0-.1.1-.1.1,0,.3,0,.5,0,0,0,0,0,.1,0,0,0,0,0,.1,0,0,0,0,0,0,.1-.2.1-.4.2-.6.3-.1,0-.2.2-.2.4,0,0,.1.2.3.3.2,0,.3,0,.4-.1,0,0,0,0,0,0,0,0,0-.1.2-.2.2-.1.3-.2.4-.4,0,0,0,0,0,0,0,0,0,0,0,.1h0c0,.1,0,.2.1.2,0,0,.1,0,.2-.1,0,0,0,0,0,0h0s0,0,0,0c0,0,0,0,0,.1,0,0,0,0,0,0,0,0,0,0,0,0,0,0,.1,0,.1,0l.3.2Z" fill="#b38e5d"/>
  <path d="M13.9,16.1s0,0,0,0c0,0,0,0,0,0l.5.7c0,0,.1.1.2.1,0,0,0,0,.1,0,0,0,0-.1,0-.2,0,0,0,0,0,0h0c0,0,0,0-.1,0,0,0,0,0-.1,0l-.4-.6s0,0,0,0" fill="#b38e5d"/>
  <path d="M15.4,17.2s0,0,0,0c0,0,.1,0,.1-.2,0-.2,0-.4,0-.6l-.4-.9c0,0,0,0,0,0,0,0,0,0,0,0,0,.2,0,.3.1.4,0,0,.1.2.2.3h0c0,.2,0,.3,0,.4,0,0,0,0-.1,0,0,0-.1,0-.1,0l-.4-.6c0-.2-.2-.3-.4-.3,0,0,0,0-.1,0h0s0,0,0,0c.1.1.2.3.3.4h0c.2.4.4.6.7.8" fill="#b38e5d"/>
  <path d="M14.9,15.9h0c0,0,.3.6.3.6h0s0,0,0,0c0,0,0,0,0,0l-.3-.5h0s0,0,0,0Z" fill="#b38e5d"/>
  <path d="M14.4,16.5h0s0,0,0,0c0,0,0,0,0,0l-.2-.4h0s0,0,0,0h0c0,0,.2.5.2.5Z" fill="#b38e5d"/>
  <path d="M16.1,16.8s0,0,.1,0c0,0,0,0,0,0,0,0,0,0,0,0,0-.3-.1-.7-.2-1,0,0,0-.2,0-.3,0,0,0,0,0,0h0c0,.1,0,.3,0,.4l.2.5c0,0,0,.1,0,.2h0s0,0,0,0h0s0,0-.1,0c0-.1-.1-.3-.2-.5,0-.2-.1-.2-.2-.3h0s0,0,0,0h0c0,.5.3.9.6,1.1" fill="#b38e5d"/>
  <path d="M15.3,12.9s0,0,0,0c0,0,0,.1,0,.2.3.5.4,1.1.4,1.6,0,.2-.1.2-.1.2,0,0-.1,0-.2,0-.1-.2-.3-.5-.4-.7h0c0-.2-.2-.4-.3-.6,0,0,0,0,0,0,0,0,0,0,0,0,0,.1,0,.2,0,.3,0,.2.2.4.2.5h0c.1.3.3.6.5.9,0,0,0,0,.1,0,0,0,.1,0,.2-.1.1-.8,0-1.6-.3-2.3,0,0,0,0,0,0" fill="#b38e5d"/>
  <path d="M15.3,14.4s0,0,0,0c0-.4-.2-.9-.5-1.2,0,0,0,0,0,0,0,0,0,0,0,0,0,0,0,0,0,.1.2.3.4.7.5,1.1,0,0,0,0,0,0" fill="#b38e5d"/>
  <path d="M14.6,15.7s0,0,.1,0c0,0,.2,0,.2-.2,0-.6-.2-1.2-.5-1.8,0,0,0,0,0,0,0,0,0,0-.1,0,0,0,0,0,0,0,0,.2.1.4.2.6h0c.1.3.2.5.3.7,0,0,0,.1,0,.2,0,0,0,0,0,0,0,0-.1,0-.1,0-.2-.2-.4-.5-.6-.8h0c0-.2-.2-.3-.3-.5,0,0,0,0-.1,0h0c0,0,0,.1,0,.2.3.6.7,1.1,1.2,1.5" fill="#b38e5d"/>
  <path d="M13.5,13.6h0s0,0,0,0c.3.4.6.8.8,1.2h0s0,0,0,0c0,0,0,0,0-.1-.1-.5-.4-.9-.8-1.2h0Z" fill="#b38e5d"/>
  <path d="M13.8,15.8c.1,0,.2,0,.2-.3-.1-.5-.4-1-.8-1.4,0,0,0,0,0,0h0s0,0,0,0c.3.3.5.7.7,1,0,0,0,.2,0,.3,0,0,0,0-.1,0,0,0-.1,0-.1,0-.4-.5-.7-1-1.2-1.4,0,0,0,0,0,0h0c0,0,0,0,0,.1.4.5.9,1,1.3,1.5,0,0,.2.1.3.1" fill="#b38e5d"/>
  <path d="M12.5,13.9h0c0,0,0,.1,0,.1l1,1.2h0s0,0,0,0c0,0,0,0,0,0l-1-1.2h0Z" fill="#b38e5d"/>
  <path d="M16.4,4.8c.2.1.4.2.6.3,0,0,0,0,0,0,0,0,0-.1,0-.2,0-.1-.1-.2-.2-.2h0c0,0,0,.1,0,.1,0,0,0,0-.1,0,0,0-.2,0-.2-.2,0-.1,0-.2-.2-.3h0s0,0,0,0c0,0,0,.2,0,.3,0,0,0,0,0,.1" fill="#b38e5d"/>
  <path d="M15.2,5.5s0,0-.1,0h0s0,0,0,0c.1.1.3.2.4.2,0,0,.1,0,.2,0,0,0,0-.2,0-.4h0s0,0,0,0h0s0,0-.2-.2h0s0,0-.1,0c0,0-.1,0-.2,0,0,0-.1,0-.2,0h0c0,0,0,0,.1.1.4,0,.5.1.5.2,0,0,0,.2-.2.2" fill="#b38e5d"/>
  <path d="M15.3,6.1c.3,0,.3.3.3.4,0,0,0,.2-.2.2,0,0-.1,0-.2,0,0,0,0,0,0,.1,0,.2.3.3.5.3,0,0,.1,0,.1,0,0,0,0-.2,0-.3-.1-.2-.2-.5-.2-.7,0,0,0,0,0,0,0,0,0,0,0,0,0,0-.1,0-.2,0-.1,0-.2,0-.3,0h0c0,0,0,0,0,0h.2Z" fill="#b38e5d"/>
  <path d="M14.4,10.2c0,0,0,.1,0,.2.2.3.3.5.5.8h0c.1.3.2.4.3.6,0,0,0,0,0,0,0,0,0,0,0-.1,0-.7-.4-1.4-.8-1.9h0c0,0,0,.1,0,.2.2.3.4.7.6,1.1,0,0,0,0,0,.1h0s0,0,0,0h0s0,0-.1,0c-.1-.3-.3-.6-.5-.8h0s0,0,0,0Z" fill="#b38e5d"/>
  <path d="M13.9,11.3s0,0,0,0c0,0,0,.1,0,.2.2.4.4.9.7,1.3,0,.1.2.2.3.2.1,0,.2,0,.3-.2.1-.2.1-.5,0-.8-.2-.5-.5-1-.8-1.4,0,0,0,0,0,0,0,0,0,0,0,0,0,0,0,.1,0,.2.3.4.6.9.8,1.4,0,.1,0,.3,0,.4,0,0,0,0-.2,0,0,0-.1,0-.2-.1-.2-.4-.5-.8-.6-1.2,0,0,0,0,0,0" fill="#b38e5d"/>
  <path d="M14.6,12.2s0,0,0,0c0,0,0,0,0-.1l-.6-1s0,0,0,0c0,0,0,0,0,0,0,0,0,.2,0,.2l.6,1s0,0,0,0" fill="#b38e5d"/>
  <path d="M14,13.6c.1,0,.3,0,.3-.2,0-.2,0-.4,0-.6-.2-.4-.4-.8-.6-1.2,0,0,0-.1-.1-.1,0,0,0,0,0,0,0,0,0,0,0,0,.2.4.4.9.6,1.3,0,0,0,.2,0,.3,0,0-.1,0-.2,0,0,0-.2,0-.2-.1-.2-.2-.3-.5-.5-.7h0c0-.2-.2-.4-.3-.5,0,0,0,0,0,0,0,0,0,0,0,0,0,0,0,0,0,.1l.8,1.3c0,.1.2.2.4.2" fill="#b38e5d"/>
  <path d="M13.1,11.8l.6,1.1s0,0,.1,0h0s0,0,0-.2l-.7-1.2s0,0,0,0h0s0,0,0,0c0,0,0,0,0,0,0,0,0,0,0,.1" fill="#b38e5d"/>
  <path d="M13.3,13.9c0-.1,0-.3,0-.4-.2-.5-.4-.9-.7-1.3h0c0-.1,0-.1-.1-.1,0,0,0,0,0,0,0,0,0,0,0,0,.3.4.6.8.8,1.3,0,0,0,.1,0,.2,0,0,0,0-.1,0,0,0-.1,0-.1,0-.4-.4-.8-.9-1.1-1.4,0,0,0,0,0,0,0,0,0,0,0,0,0,0,0,0,0,.1.3.5.7,1,1.2,1.5,0,0,.2.1.3.1,0,0,.2,0,.2,0" fill="#b38e5d"/>
  <path d="M11.8,12c.2.5.5.9.9,1.2,0,0,0,0,0,0h0s0,0,0-.1c-.3-.4-.6-.8-.9-1.2h0s0,0,0,0" fill="#b38e5d"/>
  <path d="M12.2,13.9s0,0,0,0c0,0,0,0,0-.1-.3-.5-.6-1-1-1.4,0,0,0,0,0,0h0s0,0,0,0c.2.3.5.6.7.9,0,0,0,0,0,.1h0s0,0,0,0h0s0,0,0,0c0,0,0,0-.1,0-.4-.4-.7-.9-1.1-1.4,0,0,0,0,0,0,0,0,0,0,0,0,0,0,0,0,0,0h0c.4.7,1,1.5,1.6,1.7h0Z" fill="#b38e5d"/>
  <path d="M13.6,8.9s0,0,0,.1c0,.2,0,.2,0,.2h0s0,0,0,0c.2-.1.3-.4.3-.6v-1c0,0-.1,0-.1,0h0c0,0,0,.1,0,.2v.2c0,.1,0,.2,0,.3,0,.1,0,.2,0,.3,0,.1,0,.3,0,.4h0Z" fill="#b38e5d"/>
  <path d="M12.8,7.9s0,0,0,0c-.1.4-.2.8-.2,1.3,0,.1.1.3.3.2.2,0,.4-.2.5-.4,0-.4.1-.9,0-1.4,0,0,0-.1,0-.1h0c0,0,0,0,0,.1,0,.4,0,.8,0,1.3-.1.2-.2.3-.3.3,0,0-.1,0-.1-.2,0-.3,0-.7,0-1,0,0,0,0,0,0" fill="#b38e5d"/>
  <path d="M13,8.9c0-.4.1-.7,0-1.1,0,0,0,0,0,0,0,0,0,0,0,0v1.1s0,0,0,0,0,0,0,0" fill="#b38e5d"/>
  <path d="M11.7,9.5c0,0-.1,0-.1,0,0,0,0-.1,0-.3l.2-.8s0,0,0,0h0s0,0,0,0c0,.2-.1.4-.2.6,0,.1-.1.3-.2.4,0,0,0,.1,0,.2.1.1.3.2.4.1h0c.4,0,.6-.2.6-.5l.2-1.1s0,0,0-.1h0s0,0,0,0v.8c-.2.3-.4.5-.6.5" fill="#b38e5d"/>
  <path d="M12,8.1s0,0,0,0c0,.3,0,.6-.2.9,0,0,0,0,0,0h0s0,0,.1,0c0-.3.1-.6.1-.9,0,0,0,0,0,0" fill="#b38e5d"/>
  <path d="M10.5,9.5c0,0,.2,0,.2,0,.2,0,.3,0,.3-.2l.3-.9c0,0,0,0,0-.1,0,0,0,0,0,0-.1.3-.2.6-.4.8,0,0-.1.1-.2.1,0,0-.1,0-.1,0,0,0,0-.1,0-.2.1-.2.2-.5.3-.8,0,0,0,0,0,0,0,0,0,0,0,0-.1.3-.3.6-.4.8,0,0,0,.2,0,.3,0,0,0,.1.1.1" fill="#b38e5d"/>
  <path d="M11,8.4c0,.2-.2.5-.3.7,0,0,0,0,0,0h0s0,0,0,0c.1-.2.2-.4.3-.7,0,0,0,0,0,0,0,0,0,0,0,0" fill="#b38e5d"/>
  <path d="M10.6,8.3s0,0,0,0c0,.2-.2.4-.3.6,0,0,0,0,0,0h0s0,0,0,0c.2-.2.3-.4.3-.6,0,0,0,0,0,0" fill="#b38e5d"/>
  <path d="M9.8,9.2c0,0,.2.2.3.2,0,0,0,0,0,0h0s-.1-.1-.1-.1c0,0,0,0,0,0,0,0,0-.1,0-.2.1-.1.2-.3.3-.4,0,0,0,0,0-.1h0s0,0,0,0c-.1.2-.3.4-.4.5,0,0,0,.1,0,.2" fill="#b38e5d"/>
  <path d="M9.7,9.5c-.2.3-.3.7-.3,1.1,0,.2.1.3.2.5,0,0,0,.2.1.3,0,.1,0,.3,0,.5,0,0,0,0,.1,0,0,0,.1,0,.2,0,.1,0,.2,0,.3-.2,0,0,0-.2,0-.2-.3-.8-.4-1.3,0-1.7,0,0,0,0,0-.1,0,0,0,0,0,0,0,0,0,0,0,0-.2.2-.3.4-.3.7,0,.2,0,.4.1.5,0,.1,0,.3.1.4,0,0,0,0,0,.1,0,0,0,0,0,0,0,0,0,0-.1-.1,0-.1,0-.3-.1-.4h0c0-.2-.1-.4-.1-.6,0-.3,0-.6.2-.8h0s0,0,0-.1c0,0,0,0,0,0,0,0,0,0-.1,0" fill="#b38e5d"/>
  <path d="M10.4,11c0,.4.2.7.5,1,0,0,.2.1.3.1.2,0,.4-.1.4-.3,0,0,0-.2,0-.3,0,0,0,0,0-.1-.1-.4-.1-.9,0-1.4,0,0,0,0,0,0,0,0,0,0,0,0,0,0,0,0-.1,0-.2.5-.2,1,0,1.5,0,0,0,.2,0,.2,0,0,0,0-.2,0,0,0-.2,0-.2-.1-.4-.5-.5-1.2-.2-1.8,0,0,0,0,0-.1,0,0,0,0,0,0,0,0,0,0-.1,0-.2.4-.2.8-.1,1.2" fill="#b38e5d"/>
  <path d="M11.1,9.8s0,0,0,0c0,0,0,0,0,0-.2.5-.2,1.1,0,1.5,0,0,0,0,0,0h0s0,0,0-.1c-.2-.5-.2-1,0-1.4,0,0,0,0,0,0" fill="#b38e5d"/>
  <path d="M11.9,9.9s0,0,0,0c0,0,0,0-.1,0-.1.5-.1.9,0,1.4,0,.3.3.4.6.4.3,0,.5-.2.5-.5,0-.5-.1-1,0-1.5,0,0,0,0,0,0,0,0,0,0,0,0,0,0,0,0,0,0,0,.4-.1.8,0,1.2,0,0,0,0,0,0,0,.1,0,.2,0,.3,0,0,0,0-.2,0-.1,0-.2,0-.2-.2-.2-.4-.2-.9,0-1.3,0,0,0,0,0,0" fill="#b38e5d"/>
  <path d="M12.3,9.8h0s0,0,0,0c0,.4,0,.8,0,1.2,0,0,0,0,0,0,0,0,0,0,0-.1,0-.4,0-.8,0-1.2h0Z" fill="#b38e5d"/>
  <path d="M13.4,9.4c0,0,0,.2,0,.2.1.3.2.7.2,1.1,0,.1-.1.2-.2.2,0,0-.2,0-.2-.1,0-.3-.1-.7-.1-1,0,0,0,0-.1,0,0,0,0,0,0,0,0,0,0,0,0,0,0,.5,0,1,.2,1.4,0,0,.1.1.2.1.2,0,.3-.2.5-.4,0-.5,0-1-.3-1.4h0s0,0,0,0Z" fill="#b38e5d"/>
  <path d="M13.4,10.6s0,0,0,0c0-.3,0-.6-.1-.8,0,0,0,0,0,0,0,0,0,0,0,0,0,.3,0,.6.1.9h0Z" fill="#b38e5d"/>
  <path d="M14.1,8.9s0,0,0,0c0,.1,0,.2,0,.3h0c0,.1,0,.2,0,.4,0,0,0,.1-.1.1,0,0,0,0,0,0-.1,0-.2-.2-.2-.3,0,0,0,0,0,0,0,0,0,0,0,0,0,0,0-.3,0-.3,0,0,0,0,0,0,0,0,0,0-.1,0,0,0,0,0,0,.2,0,.3.2.5.3.7,0,0,0,0,0,0,0,0,0,0,.1,0,.2-.4.1-.8-.1-1.1,0,0,0,0,0,0" fill="#b38e5d"/>
  <path d="M14.5,8.8h0s0,0,0,0c0,0,0,0,0,0,0,0,0,0,.1.1,0,.1.2.2,0,.4,0,0,0,0,0,0,0,0,0,0,.1,0,0,0,0,0,.1,0l.2-.2h0c0,0,0,0,0,0-.1,0-.2-.1-.3-.2,0,0-.1-.2-.2-.2" fill="#b38e5d"/>
  <path d="M15.1,8.7s0,0,0,0l-.2-.2h0s0,0,0,0c0,0,0,0,0,0,.1.1.2.2.3.4,0,0,0,0,.1,0,0,0,0,0,0,0,0,0,.1-.1.2-.2.1,0,.2-.2.2-.3,0,0,0,0,0,0,0,0,0,0,0,0-.2,0-.4-.1-.5-.3h0s0,0,0,0c0,0,0,0,0,0l.2.2c0,0,0,.1,0,.2,0,0,0,0-.1,0" fill="#b38e5d"/>
  <path d="M15.6,7.8c0,0-.1,0-.2,0,0,0,0,0,0,0s0,0,0,0c-.1.1,0,.2,0,.2,0,.1.2.2.4.2,0,0,.2,0,.2-.2,0-.2.1-.4.1-.6,0,0,0,0,0,0,0,0,0,0,0,0h0s0,0,0,0c-.2,0-.3-.2-.4-.3h0c0,.1,0,.2,0,.2l.2.2c0,0,0,.2,0,.3,0,0,0,0-.1,0" fill="#b38e5d"/>
  <path d="M19.9,18.5c0,0,0-.2,0-.2,0,0,0,0-.1,0-.1,0-.3,0-.3-.3h0c0,0,0,0,0,0-.1,0-.2.1-.3.3,0,0,0,0,0,.1,0,0-.1,0-.2.1,0,0-.2,0-.2-.2,0,0,0,0,0,0,0,0,0,0,0,0,0,0,0,.2,0,.3,0,.2,0,.3,0,.5-.2.3-.4.5-.7.5,0,0-.1,0-.2,0h0s0,0,0,0c0,0,0,0,0,0,.1,0,.2,0,.4,0,.3,0,.5-.2.7-.4.3-.4.6-.9,1-.9,0,0,.2,0,.3,0h0c0,0,0,.1.2.1,0,0,0,0,0,0" fill="#b38e5d"/>
  <path d="M20.9,19.7c0,0-.2,0-.2,0,0,0,0-.2,0-.3h0s0,0,0,0c-.2,0-.3.1-.3.2,0,0,0,.2-.1.2-.4.2-.9.4-1.4.4-.4,0-.8,0-1.1-.2-.2,0-.4-.1-.6-.1-.1,0-.2,0-.2,0,0,0,0,0,0,0h.4c0,.2.2.2.3.4,0,.2.1.3.3.3h0s0,0,0,0h0s0,0,0,0h0c0,0,0-.1,0-.2,0,0,0,0,0,0,0,0,0,0,0,0,.3,0,.5,0,.8,0,.2,0,.3,0,.5,0,0,0,0,0,0,0,0,0,0,0,.1,0,.1,0,.3.2.4.2,0,0,.1,0,.2,0h0c0,0-.2,0-.2-.2,0-.1,0-.1.1-.1.2,0,.3-.1.5-.2,0,0,.1,0,.2,0h0c.3,0,.4,0,.4-.2h0s0,0,0,0h0s0,0,0,0" fill="#b38e5d"/>
  <path d="M20.9,18.6c-.1.2-.3.3-.5.3,0,0-.1,0-.2,0,0,0,0,0,0-.2,0-.1,0-.2.2-.4,0,0,.2-.1.3-.1,0,0,.2,0,.2.1,0,0,0,.2,0,.3M20.6,18.1c-.1,0-.2,0-.3.1-.4.3-.5.6-.3.9.1,0,.3.1.4.1.3,0,.5-.1.7-.3.1-.2.1-.3,0-.5,0-.2-.3-.3-.5-.3" fill="#b38e5d"/>
  <path d="M21.9,18.5c0,0,0,0,0,0h0c0,0-.2,0-.3,0,0,0,0,0,0,0,0,0,0,0,0,.1.1,0,.2,0,.3,0h0s0,0,0,0c0,0,0,0,0,0,0,0,0-.1,0-.2" fill="#b38e5d"/>
  <path d="M21.7,18.1c0,0-.1-.1-.2-.2,0,0,0,0,0,0s0,0,0,0c0,0-.1.1-.2.2,0,0,0,.1,0,.1,0,0,0,0,.1,0,.1,0,.2,0,.3-.1,0,0,0,0,0,0" fill="#b38e5d"/>
  <path d="M21.2,17.5s0,0,0,0c0,0,0,0,0,0,0,0,0,.1,0,.2,0,0,0,.1,0,.2,0,0,0,0,.1,0,0,0,0,0,0,0,0,0,.2,0,.2-.2h0c0,0,0,0,0,0,0,0-.1,0-.2-.1" fill="#b38e5d"/>
  <path d="M22.1,17.3c0,0-.2,0-.2.1,0,.1,0,.2-.2.3,0,0,0,.1,0,.1,0,0,0,.1.1.1h0c0,0,.2-.1.3-.1,0,0,0,0,.1,0,0,0,.1,0,.1,0,0,0,0-.2,0-.3,0,0-.1-.1-.2-.1" fill="#b38e5d"/>
  <path d="M11.2,19.5c0,0,0,.1-.2.2h0s0,0,.1,0c.1,0,.2,0,.3-.1,0,0,.2-.1.3-.1,0,0,.2,0,.3,0,.1,0,.2,0,.2.2,0,0,0,0,0,.1h0s0,0,0,0c0,0,0,0,0,0,.2,0,.3,0,.4-.3,0-.1.2-.2.3-.2,0,0,.1-.2.1-.3,0,0,0,0,0,0,0,0,0,0,0,0-.3.2-.6.3-1,.3-.7,0-1.3-.2-2-.5-.2,0-.3-.3-.2-.5l.3-.8c.1-.2.3-.4.6-.4.6,0,1.2.4,1.7.8h0s0,0,0,0c0,0,0-.1,0-.2l-.3-.2c0,0-.1-.2-.1-.2,0-.3-.1-.3-.2-.4h0s0,0,0,0v.2s0,0-.1,0h0c-.3,0-.5-.2-.7-.4,0-.1-.2-.2-.3-.2,0,0,0,0,0,0h0,0c0,.1,0,.2,0,.2,0,0,0,.1-.2.1,0,0-.1,0-.2,0,0,0,0,0-.1,0,0,0-.1,0-.2,0h0c0,0-.1,0-.2,0,0,0,0,0-.1,0h0s0,0,0,0c.2,0,.2.3.2.5l-.3.9c0,.2,0,.5.2.6.2,0,.3.2.3.3,0,0,0,.1-.2.2h0c0,0,.1,0,.2,0,0,0,.2,0,.3-.1,0,0,.1,0,.2,0,0,0,.1,0,.2,0,.3,0,.5.2.5.3" fill="#b38e5d"/>
  <path d="M9.5,17.5s0,0,0,0c0,0,0,0,0,0-.1-.2-.3-.3-.4-.4h0s0,0,0,0c0,0,0,0,0,0,.2.1.3.3.4.4h0Z" fill="#b38e5d"/>
  <path d="M6.5,17.5c0,.2,0,.4-.2.5h0,0c0,0,.2,0,.3,0,0,0,.1,0,.2,0,0,0,0,0,0,0,0,0,0,0,0,0l.6.3c0,0,.1,0,.1.1,0,0,0,0-.1.1,0,0,.1,0,.2,0,0,0,.2,0,.3-.1,0,0,0,0,.1,0,0,0,0,0,0,0,.1,0,.2,0,.3,0,.3,0,.5,0,.7,0,0,0,.1-.1,0-.2,0,0,0,0,0,0h0c-.2,0-.5.1-.7.1-.6,0-1.1-.2-1.6-.5-.1,0-.2-.2-.1-.4,0-.3.2-.5.4-.8,0,0,0,0,.1,0h0c0,0,.1,0,.2,0,.2,0,.2,0,.2-.1,0,0,0,0,0,0h0s0,0,0,0c-.1,0-.3,0-.4-.2,0,0-.1-.1-.2-.1h0s0,.1,0,.2c0,0,0,.1,0,.2-.3.3-.5.7-.5,1.2" fill="#b38e5d"/>
  <path d="M8.1,17h0c0-.2,0-.4,0-.6,0,0,.1-.1.2-.1,0,0,.2,0,.2.1,0,.1,0,.3,0,.4,0,.2-.2.3-.3.3,0,0-.1,0-.2,0M8.9,16.8c0-.2,0-.4,0-.5-.1-.1-.3-.2-.4-.2-.1,0-.2,0-.3.1-.1.1-.2.3-.1.5,0,.2,0,.4.3.6,0,0,.1,0,.2,0,.2,0,.4-.2.5-.5" fill="#b38e5d"/>
  <path d="M9,16.2c0,0,.2,0,.3-.1,0,0,0-.1,0-.1,0,0,0,0,0,0h-.1c0-.1,0-.1,0-.1,0,0,0,0,0,0,0,0,0,.1,0,.2,0,0,0,.1.1.1h0Z" fill="#b38e5d"/>
  <path d="M8.8,15.6h-.2c0,0,0,0,0,0h0s0,0,0,0v.2s0,0,.1,0c0,0,0,0,.1,0,0,0,0,0,.1-.1,0,0,0,0,0-.1,0,0,0,0,0,0" fill="#b38e5d"/>
  <path d="M8.3,15.6c0,0-.1,0-.2,0,0,0,0,0,0,0,0,0,0,0,0,.1,0,0,.1.2.2.2,0,0,0,0,0,0,0,0,0,0,0-.1h0c0-.2,0-.2,0-.2h0Z" fill="#b38e5d"/>
  <path d="M5.7,17.2s0,0,0,0c.1,0,.3,0,.4,0,0,0,0,0,.1,0,0,0,0,0,0,0,0,0,0,0,0,0-.7,0-1.4-.5-1.7-1.1,0-.1,0-.3,0-.5.2-.2.4-.4.6-.5,0,0,.1,0,.2,0,0,0,.2,0,.3,0,.4.4.7.8.9,1.4,0,0,0,.1,0,.1,0,0,0,0,0-.1v-.3c0,0,0-.2,0-.2.2-.2.2-.4,0-.6h0c0,.2-.1.2-.2.2,0,0-.1,0-.2-.1-.2-.2-.4-.4-.6-.6,0,0-.1-.1-.1-.2,0-.3-.1-.3-.3-.3h0s0,0,0,0c0,.2,0,.4-.3.4-.4.1-.7.4-.9.8,0,.1-.1.1-.2.1,0,0-.1,0-.2,0h0c0,.2,0,.3.2.4,0,0,.2,0,.2.1,0,.1.1.2.2.3,0,0,0,0,0,.1,0,0,0,0-.2,0h0c0,.1.2.2.4.1h0s0,0,.1,0l.3.2c0,0,.1,0,.1.1s0,.1-.2.2h0s0,0,0,0c0,0,.1,0,.2,0,0,0,.2,0,.2-.1,0,0,0,0,.1,0" fill="#b38e5d"/>
  <path d="M4.3,13.9c0,0,.2,0,.3.3,0,.2,0,.4,0,.4,0,0,0,0-.2,0h0s0,0,0,0c-.2,0-.3-.3-.4-.5,0-.1.1-.2.2-.3M3.9,13.9c0,.2,0,.3,0,.5.1.2.3.4.6.4h0c.1,0,.2,0,.3-.2,0-.2,0-.5,0-.7,0-.2-.3-.3-.5-.3-.2,0-.3.1-.4.3" fill="#b38e5d"/>
  <path d="M4.3,13.5s0,0,.1,0c0,0,0-.2,0-.2,0,0,0,0,0-.1,0,0,0,0-.1,0,0,0,0,0-.1,0,0,0,0,0,0,.1,0,.2,0,.3.2.3" fill="#b38e5d"/>
  <path d="M4,13.6c0-.1,0-.2,0-.3,0,0,0,0,0,0,0,0,0,0,0,0,0,0-.2,0-.2.1,0,0,0,0,0,.1,0,.2.2.2.2.2,0,0,0,0,0,0" fill="#b38e5d"/>
  <path d="M3.6,13.4c0,0-.2.1-.2.2,0,0,0,0,0,0,0,0,.2.1.3.1,0,0,0,0,.1,0,0,0,0-.2-.2-.3h0Z" fill="#b38e5d"/>
  <path d="M3.5,12.8c0,0,.1,0,.1.2,0,0,0,0,.1,0,0,0,0,0,0,0,0,0,0-.1,0-.2,0,0,0-.1,0-.2,0,0,0-.1,0-.2,0,0,0,0-.1,0-.1,0-.2,0-.3.2,0,.1,0,.2.2.2" fill="#b38e5d"/>
  <path d="M9.1,19.3s0,0-.1,0c0,0-.2,0-.2-.1,0,0,0-.2,0-.3,0,0,0,0,.1,0,0,0,.2,0,.2.1,0,0,0,.2,0,.3M9.3,19.3c0-.2,0-.3,0-.4,0,0-.2-.1-.3-.1-.1,0-.3,0-.4.2,0,.2,0,.3,0,.5,0,0,.2.2.3.2.2,0,.3-.1.4-.3" fill="#b38e5d"/>
  <path d="M7.1,20.8s0,0-.1,0c0,0-.2,0-.2-.1,0,0,0-.2,0-.3,0,0,0,0,.1,0,.1,0,.2.1.2.2,0,0,0,.1,0,.2M7,20.2c-.1,0-.3,0-.3.2,0,.2,0,.3,0,.5,0,0,.2.2.3.2h0c.2,0,.3-.1.4-.3,0-.2,0-.3,0-.4,0,0-.2-.1-.3-.1" fill="#b38e5d"/>
  <path d="M17.9,22.5s0,0-.1,0c0,0-.2,0-.2-.1,0,0,0-.2,0-.3,0,0,0,0,.1,0,.1,0,.2,0,.2.2,0,0,0,.2,0,.3M17.7,21.9c-.2,0-.3,0-.4.2,0,.2,0,.4,0,.5,0,.1.2.2.4.2.2,0,.3-.1.4-.3,0-.2,0-.3-.1-.5,0-.1-.2-.2-.4-.2" fill="#b38e5d"/>
  <path d="M10.2,20.5c-.3-.2-.6-.5-.9-.8,0,0,0,0,0,0,0,0,0,0,0,0,0,0,0,0,0,.1.2.4.6.7,1,.8,0,0,0,0,0,0,0,0,0,0,0,0" fill="#b38e5d"/>
  <path d="M10.2,22.1c-.3,0-.5-.1-.8-.1,0,0,0,0,0,0,0,0,0,0,0,0,.3,0,.6.2.8.3h0s0,0,0,0v-.2c0,0,0,0,0,0" fill="#b38e5d"/>
  <path d="M8.7,21.7c-.2,0-.4.1-.6.3,0,0,0,0,0,0,0,0,0,0,0,0,0,0,.1,0,.2,0,.1-.1.3-.2.4-.2h0c.1,0,.2,0,.2.1,0,0,0,.1-.1.1,0,0,0,0,0,0,0,0,0,0,0,0,0,0,0,0,0,0,0,0-.2,0-.3.1h0s0,0,0,0c0,0,0,0,0,0,0,0,0,0,0,0,.1,0,.3,0,.4,0,.1,0,.3,0,.4-.2,0-.1,0-.2,0-.3,0-.1-.2-.2-.4-.2" fill="#b38e5d"/>
  <path d="M5.6,18.5s0,0,0,0c0,0,0,.1.3.2.2,0,.4,0,.5.2,0,0,0,.2,0,.2,0,0,0,0-.1,0,0,0-.1,0-.1,0,0,0,0,0-.1-.1-.1,0-.2,0-.3,0,0,0,0,0-.1,0h0s0,0,0,0c0,0,0,0,0,0,.3.4.6.5.7.5.1,0,.2,0,.3-.2,0-.1,0-.3,0-.4-.2-.3-.6-.4-.9-.3" fill="#b38e5d"/>
  <path d="M19.3,20.9c-.2,0-.4-.1-.6-.1-.2,0-.3,0-.4.1,0,0-.1.2-.1.3,0,.2.1.4.5.4.2,0,.5,0,.7-.2,0,0,0,0,0,0,0,0,0,0,0,0,0,0,0,0-.1,0-.1,0-.3,0-.4,0,0,0-.1,0-.2,0,0,0,0,0,0,0,0,0-.1,0-.1-.1,0,0,0-.1.1-.2,0,0,.1,0,.2,0,.1,0,.3,0,.4,0,0,0,0,0,.1,0,.1,0,.2,0,.2,0,0,0,0,0,0,0" fill="#b38e5d"/>
  <path d="M17,21.3c.3,0,.5,0,.8-.2,0,0,0,0,0,0,0,0,0,0-.1,0,0,0,0,0,0,0-.3,0-.5.1-.8.1-.2,0-.4,0-.5,0,0,0-.1,0-.1,0,0,0,0,0,.2.1.3,0,.5,0,.7,0" fill="#b38e5d"/>
  <path d="M17,21.9s0,0,0,0c0,0,0,0,.1,0l.7-.2s0,0,0,0c0,0,0,0-.2,0h0c-.7.1-1.1.3-1.1.4,0,.1,0,.2.3.4,0,0,0,0,0,0,0,0,0,0,.1,0,0,0,0,0,0,0h0Z" fill="#b38e5d"/>
  <path d="M17,22.3l-.7.2s0,0,0,.1c0,0,0,.1.1.1h0s.6-.2.6-.2c0,0,0,0,0-.1,0,0,0-.1-.1-.1" fill="#b38e5d"/>
  <path d="M9.5,21.4c-.1-.4-.8-.7-1.8-.8,0,0-.1,0-.1,0,0,0,0,0,0,.1.5,0,1.1.3,1.5.5,0,0,.1.1.1.2,0,0,0,0,0,.1,0,0,0,0,0,.1,0,0,0,.1.1.1,0,0,0,0,0,0,.1,0,.2-.3.1-.4" fill="#b38e5d"/>
  <path d="M7.8,20.3c0-.1-.1-.5-1-.9h0s0,0,0,0c0,0,0,0,0,0,0,0,.1,0,.2.1,0,0,0,0,0,0,.2.1.3.2.5.4,0,0,0,0,0,.1,0,0,0,0,0,0,0,0,0,0,0,0,0,0,.1,0,.2,0,0,0,.1,0,.1,0" fill="#b38e5d"/>
  <path d="M7.9,19.8c.1,0,.2.1.4.2.1,0,.3.1.5.2h0c.1,0,.2,0,.2-.1,0,0,0-.2-.1-.2,0,0,0,0,0,0h0c0,0,0,.1-.1.1,0,0,0,0-.1,0-.6-.2-1.1-.5-1.7-.8,0,0,0,0,0,0,0,0,0,0,0,0h0c.4.3.7.5,1.1.7" fill="#b38e5d"/>
  <path d="M1.8,11.2h0c.1,0,.2.1.3.2,0,.1,0,.2,0,.3,0,0,0,.2,0,.2,0,0,0,0,0,0h-.7c0,0,0-.3,0-.3,0-.1,0-.1,0-.2,0,0,.1,0,.2,0h0s0-.1,0-.1h-.7c0,0,0,0,0,0h0c0,0,.1,0,.2,0,0,0,0,0,0,.2v.2s-.6,0-.6,0c0,0,0,0,0,0,0,0,0,0,0,0v-.3c0-.2,0-.2.1-.2,0,0,.2,0,.2,0h0s0-.1,0-.1h-.5c0,0-.2,1.2-.2,1.2h.1s0,0,0,0c0,0,0-.1,0-.1,0,0,0,0,0,0,0,0,0,0,0,0l1.3.2c.1,0,.2,0,.2,0,0,0,0,.1,0,.2h0s0,0,0,0l.2-1.3-.5-.2h0Z" fill="#b38e5d"/>
  <path d="M2.1,9.8c-.1,0-.2,0-.3,0-.1,0-.2.1-.3.2l-.2.2c0,0-.1,0-.2.1,0,0-.1,0-.2,0,0,0-.1,0-.2-.1,0,0,0-.1,0-.2,0,0,0-.1.2-.2.1,0,.3,0,.4,0h0c0,0-.7-.2-.7-.2h0c0,0,0,0,0,0,0,0,0,0,0,0,0,0,0,0,0,0,0,0,0,0,0,.1,0,0,0,.1,0,.2,0,.1,0,.3,0,.4,0,.1.2.2.3.2.1,0,.2,0,.3,0,0,0,.1,0,.2-.1h.2c0-.2.2-.3.2-.3,0,0,.2,0,.2,0,0,0,.2,0,.2.1,0,0,0,.1,0,.2,0,.1-.1.2-.3.3-.1,0-.2,0-.3,0h0s0,0,0,0h.7c0,0,0,0,0,0h0s0,0,0,0h0c0,0,0-.1,0-.1,0,0,0-.1.1-.2,0-.1,0-.3,0-.4,0-.1-.2-.2-.3-.2" fill="#b38e5d"/>
  <path d="M2.9,8.9c0,0,0,.1-.1.1,0,0-.1,0-.2,0l-1.3-.5h0c0-.2,0-.3.1-.3,0,0,.2,0,.3,0h0s0,0,0,0l-.5-.2-.5,1.2.5.2h0c0,0,0-.1,0-.1,0,0-.2-.1-.2-.2,0,0,0-.2,0-.2h0c0,0,1.3.4,1.3.4,0,0,.1,0,.2.1,0,0,0,0,0,.2h0s0,0,0,0l.3-.7h0s0,0,0,0Z" fill="#b38e5d"/>
  <path d="M2.8,7.5l-.2.4-.5-.5h.7ZM3.7,7.2s0,0,0,0c0,0-.1,0-.2,0l-1.7-.3h0c0,0,1,1.2,1,1.2,0,0,.2.2.3.3,0,0,0,0,0,.1h0s0,0,0,0l.2-.4h0s0,0,0,0c0,0,0,0,0,0,0,0,0,0,0,0,0,0,0,0,0,0,0,0-.1-.1-.2-.2l.3-.5h.3c0,0,0,0,.1,0,0,0,0,0,0,0,0,0,0,0,0,0,0,0,0,0,0,.1h0s0,0,0,0l.3-.6h0s0,0,0,0Z" fill="#b38e5d"/>
  <path d="M4.2,6.3c0,.2,0,.3-.1.4,0,0,0,0,0,0,0,0,0,0,0,0l-1.2-.9s0,0,0,0c0,0,0,0,0,0,0-.1.3-.2.4-.3,0,0,0,0,0,0,.2,0,.4,0,.6.2.2.1.4.4.4.6M4.3,5.7c0-.1-.2-.2-.3-.3-.2-.2-.6-.3-.9-.2-.2,0-.3.2-.4.4l-.4.5h0c0,0,0,0,0,0,0,0,.1,0,.1,0,0,0,.1,0,.2,0l1,.7c.1,0,.1.1.1.1,0,0,0,0,0,.1h0s0,0,0,0l.4-.5c0-.1.2-.3.2-.4,0,0,0-.2,0-.2,0-.1,0-.3-.1-.4" fill="#b38e5d"/>
  <path d="M5.3,5.3c0,0-.2.1-.4,0-.2,0-.4-.2-.6-.4-.2-.1-.3-.3-.4-.6,0-.1,0-.3,0-.4,0,0,.2-.1.3-.1,0,0,0,0,.1,0,.2,0,.4.2.6.4.2.1.3.3.4.6,0,.1,0,.3,0,.4M5.2,4.1c-.2-.2-.4-.3-.7-.4-.4,0-.7.2-.8.6,0,0,0,.1,0,.2,0,.3.2.5.4.7.2.2.4.3.7.4,0,0,0,0,0,0,.2,0,.4,0,.5-.2.1-.1.2-.4.2-.6,0-.3-.2-.5-.4-.7" fill="#b38e5d"/>
  <path d="M6.3,3.5c-.1,0-.2,0-.4,0h-.3c0,0-.1,0-.2,0,0,0-.1,0-.1-.1,0,0,0-.1,0-.2,0,0,0-.1,0-.1,0,0,.2,0,.2,0,.1,0,.3,0,.4.2h0s0,0,0,0l-.4-.5h0c0,0,0,0,0,0,0,0,0,0,0,0h0s0,0-.1,0c0,0-.1,0-.2,0-.1,0-.2.2-.2.3,0,.1,0,.3.1.4,0,0,.2.2.3.2,0,0,.1,0,.2,0h.3c0,0,.2,0,.3,0,0,0,.2,0,.2.1,0,0,0,.1,0,.2,0,0,0,.1,0,.2-.1,0-.2,0-.4,0-.1,0-.2,0-.3-.2h0s0,0,0,0l.5.5h0c0,0,0,0,0,0h0c0,0,0,0,0,0,0,0,0,0,.1,0,0,0,.2,0,.2-.1.1,0,.2-.2.2-.3,0-.1,0-.3-.1-.4,0,0-.1-.2-.2-.2" fill="#b38e5d"/>
  <path d="M8.4,1.5c0,0,0-.2,0-.3,0,0,0,0,.1-.1h0s0-.1,0-.1l-.5.3h0c0,0,0,0,0,0,0,0,.1,0,.2,0,0,0,0,0,.2.2l.3.7c0,.1.1.2.1.4,0,.2,0,.3-.2.3-.1,0-.3,0-.4,0,0,0-.1-.2-.2-.3l-.4-.8c0-.1,0-.2,0-.2,0,0,0,0,.1-.1h0s0-.1,0-.1l-.6.3h0c0,0,0,0,0,0,0,0,.1,0,.2,0,0,0,0,0,.1.2l.4.8c0,.1.1.3.3.4,0,0,.2.1.3.1,0,0,.2,0,.3,0,.2,0,.3-.3.3-.5,0-.2,0-.3-.1-.5l-.3-.7Z" fill="#b38e5d"/>
  <path d="M10.1.6c0,0,0,0,.1-.1h0s0-.1,0-.1l-.6.2h0c0,0,0,0,0,0,0,0,.1,0,.2,0,0,0,0,0,.1.3l.3.8-1.2-1h-.4c0,.1,0,.2,0,.2h0s0,0,0,0c0,0,0,0,0,0h0s.4,1.2.4,1.2c0,0,0,.2,0,.3,0,0,0,0-.1.1h0s0,.1,0,.1l.6-.2h0c0,0,0,0,0,0,0,0-.1,0-.2,0,0,0,0,0-.1-.3l-.3-1,1.4,1.1h0s-.5-1.5-.5-1.5c0,0,0-.2,0-.3" fill="#b38e5d"/>
  <path d="M11.5,2s0,0,0,0c0,0,0,0,0,0,0,0,0,0,0-.2l-.2-1.2c0-.1,0-.2,0-.2,0,0,0,0,.2,0h0s0-.1,0-.1h-.7c0,.1,0,.2,0,.2h0c0,0,.1,0,.2,0,0,0,0,0,0,.2l.2,1.2c0,.1,0,.2,0,.2,0,0,0,0-.2,0h0s0,.1,0,.1h.7c0-.1,0-.2,0-.2h0Z" fill="#b38e5d"/>
  <path d="M12.1,1.9s0,0,0,0c0,0,0,0,0,0V.3c-.1,0-.1,0-.1,0,0,0,0,0,0,0,0,0,0,0,0,0,.1,0,.3,0,.4.1.2.2.3.4.3.6,0,.2,0,.5-.2.7-.1,0-.3.2-.4.2h0ZM12.6.2c-.2,0-.4-.1-.5,0h-.6c0,0,0,.2,0,.2h0c0,0,.1,0,.1,0,0,0,0,0,0,.2v1.3c.1,0,.1.1,0,.2,0,0,0,0-.1,0h0s0,.1,0,.1h.7c.2,0,.3-.1.4-.2,0,0,.1,0,.2-.1,0-.1.2-.2.2-.4,0-.1,0-.3,0-.4,0-.3-.2-.6-.5-.8" fill="#b38e5d"/>
  <path d="M14.5,1c0,.2,0,.5-.2.6,0,.1-.2.2-.3.2-.1,0-.3,0-.3-.2,0-.2-.1-.4-.1-.7,0-.2,0-.4.2-.6,0-.1.2-.2.3-.2h0c.1,0,.3,0,.3.2,0,.2.1.4.1.7M14.1,0c-.2,0-.4,0-.5.2-.2.2-.3.5-.3.7,0,.3,0,.5.2.7.1.2.3.3.5.3h0c.2,0,.4,0,.5-.2.2-.2.3-.5.3-.7,0-.3,0-.5-.2-.8-.1-.2-.3-.3-.5-.3" fill="#b38e5d"/>
  <path d="M16.1.3s0,0,0,0h0s0,0,0,0c0,0,0,0-.1,0,0,0-.1,0-.2,0-.1,0-.3,0-.3,0,0,0-.2.2-.2.3,0,.1,0,.2,0,.3,0,0,0,.1.1.2l.2.2c0,0,.1.1.2.2,0,0,0,.2,0,.2,0,0,0,.2-.1.2,0,0-.1,0-.2,0-.1,0-.2-.1-.3-.2,0-.1,0-.2,0-.3h0s0,0,0,0v.7s0,0,0,0h0s0,0,0,0h0s0,0,.1,0c0,0,.1,0,.2,0,0,0,0,0,0,0,.1,0,.2,0,.3,0,.1,0,.2-.2.2-.4,0-.1,0-.2,0-.3,0-.1-.1-.2-.2-.3l-.2-.2c0,0,0-.1-.1-.2,0,0,0-.1,0-.2,0,0,0-.1,0-.2,0,0,0,0,.2,0,0,0,.2,0,.2.1,0,.1.1.3.1.4h0s.1,0,.1,0V.3c0,0,0,0,0,0h0Z" fill="#b38e5d"/>
  <path d="M18.9,3.2s0,0-.1-.1c0,0,0-.1,0-.2l.5-1.2c0-.1,0-.1.1-.2,0,0,.1,0,.2,0h0s0,0,0,0l-.5-.2-1,1.1V.9c0,0-.4-.2-.4-.2h0c0,0,0,.1,0,.1,0,0,.1,0,.1.1,0,0,0,.1,0,.2l-.5,1.1c0,0,0,.2-.1.2,0,0-.1,0-.2,0h0s0,0,0,0l.5.2h0c0,0,0-.1,0-.1,0,0-.1,0-.1-.1,0,0,0-.2,0-.3l.4-.9v1.5c0,0,0,0,0,0l1.1-1.2-.5,1c0,.1,0,.2-.1.2,0,0-.1,0-.2,0h0s0,0,0,0l.6.3h0c0,0,0-.1,0-.1Z" fill="#b38e5d"/>
  <path d="M20.3,3.6h0c0,0-.2.1-.3.2h0c-.1,0-.2,0-.3-.1,0,0-.1,0-.2-.1,0,0,0,0,0,0l.4-.6h.2c0,.2.1.2.1.3,0,0,0,.1,0,.2h0s0,0,0,0l.4-.6h0c0,0,0,0,0,0,0,0,0,.1-.2.1,0,0,0,0-.2,0h-.2c0-.1.3-.6.3-.6,0,0,0,0,0,0h0s.3.2.3.2c.1,0,.2.1.2.2,0,0,0,.2,0,.2h0s0,0,0,0l.2-.4-1.1-.7h0c0,0,0,0,0,0,0,0,0,0,0,.1,0,0,0,0,0,.2l-.7,1.1c0,.1-.1.1-.1.1,0,0-.1,0-.2,0h0s0,0,0,0l1.1.7.4-.4h0Z" fill="#b38e5d"/>
  <path d="M21.4,5s0,0,0-.1c0,0,0-.1,0-.2l.2-.9.6-.2c0,0,.2,0,.3,0,0,0,0,0,.1,0h0s0,0,0,0l-.5-.4h0c0,0,0,0,0,0,0,0,0,0,0,0,0,0,0,0,0,0h0c0,0,0,0-.1,0h-.4c0,.1,0-.3,0-.3,0,0,0,0,0,0,0,0,0,0,0,0,0,0,0,0,0,0,0,0,0,0,.1,0h0s0,0,0,0l-.6-.5h0c0,0,0,0,0,0,0,0,0,0,0,.2,0,.1,0,.3,0,.4v.5c0,0-.7.2-.7.2-.1,0-.2,0-.3,0,0,0,0,0-.1,0h0s0,0,0,0l.4.4h0c0,0,0,0,0,0,0,0,0,0,0,0,0,0,0,0,0,0,0,0,0,0,0,0,0,0,0,0,.1,0h.4c0,.2,0,.3-.1.4,0,0,0,0,0,.1h0s0,0-.1,0h0s0,0,0,0l.5.5h0c0,0,0,0,0,0Z" fill="#b38e5d"/>
  <path d="M21.9,5.3l.9-.9c0,0,.1-.1.2-.1,0,0,0,0,.1,0h0s0,0,0,0l-.5-.5h0c0,0,0,0,0,0,0,0,0,.1,0,.1,0,0,0,0-.1.2l-.9.9c0,0-.1.1-.2.1,0,0,0,0-.1,0h0s0,0,0,0l.5.5h0c0,0,0,0,0,0,0,0,0-.1,0-.1s0,0,.1-.2" fill="#b38e5d"/>
  <path d="M23,6.7h0s0-.1,0-.1h0c0,0-.2,0-.3,0-.1,0-.2,0-.3-.2,0-.1-.1-.3,0-.4,0-.2.2-.4.4-.5.2-.1.4-.2.6-.3.2,0,.3,0,.4.2,0,.1.1.3,0,.4,0,0,0,.2-.2.3h0s0,0,0,0l.5-.4h0c0,0,0,0,0,0,0,0,0,0,0,0h0c0,0,0-.1,0-.2,0,0,0-.2-.1-.2-.1-.2-.4-.3-.6-.3h0c-.3,0-.5.1-.7.3-.2.1-.3.3-.4.6,0,.2,0,.5.1.7,0,.1.2.2.4.2,0,0,.1,0,.2,0,0,0,0,0,0,0" fill="#b38e5d"/>
  <path d="M24.4,6.8l-.5.5-.2-.4h.7ZM23.7,8.2s0,0,0-.1c0,0,0-.1.1-.2l1.1-1.3h0c0,0-1.5.2-1.5.2-.1,0-.3,0-.4,0,0,0,0,0-.1,0h0s0,0,0,0l.3.4h0c0,0,0,0,0,0,0,0,0,0,0,0,0,0,0,0,0,0,0,0,0,0,0,0,0,0,.2,0,.3,0l.3.5-.2.2s0,0,0,0c0,0,0,0,0,0,0,0,0,0,0,0,0,0,0,0,0,0h0s0,0,0,0l.3.5h0c0,0,0,0,0,0Z" fill="#b38e5d"/>
  <path d="M25.8,9s0,0,.1.1h0s0,0,0,0l-.2-.5h0s0,0,0,0c0,0,0,.1,0,.2,0,0,0,0-.2.2l-.8.3.9-1.3-.2-.4h0s0,0,0,0c0,0,0,0,0,0,0,0,0,0,0,0h0s-1.2.5-1.2.5c0,0-.2,0-.3,0,0,0,0,0-.1-.1h0s0,0,0,0l.2.5h0s0,0,0,0c0,0,0-.1,0-.2,0,0,0,0,.2-.2l.9-.4-1,1.4h0s0,0,0,0l1.4-.6c0,0,.2,0,.3,0" fill="#b38e5d"/>
  <path d="M24.8,10.8c-.2,0-.3-.2-.3-.4,0,0,0-.1.1-.2.2-.1.4-.2.6-.3.1,0,.3,0,.4,0,0,0,.2,0,.3,0,.1,0,.2.1.3.3,0,.1,0,.3-.1.4-.4.3-.8.4-1.3.3M25.2,11.2c.1,0,.2,0,.3,0,.3,0,.5-.2.7-.4.1-.2.2-.4.1-.6,0-.2-.2-.4-.4-.5-.2-.1-.5-.1-.8,0-.3,0-.5.2-.7.4-.1.2-.2.4-.1.6,0,.2.2.4.4.5.1,0,.3.1.4.1" fill="#b38e5d"/>
  <path d="M26.7,12.1h0s0,0,0,0c0,0,0,0,0,0,0,0,0,0,0-.1,0,0,0-.1,0-.2,0-.1,0-.2-.2-.3-.1,0-.3,0-.4,0-.1,0-.2,0-.3.1,0,0,0,.1-.1.2v.2c-.2,0-.2.2-.3.2,0,0-.1,0-.2.1,0,0-.2,0-.2,0,0,0,0,0,0-.2,0-.1,0-.3.1-.3,0,0,.2-.1.3-.2h0s0-.1,0-.1l-.6.2h0c0,0,0,0,0,0h0s0,0,0,0c0,0,0,0,0,.1,0,0,0,.2,0,.2,0,.1,0,.3.2.3,0,0,.2.1.3,0,0,0,0,0,0,0,.1,0,.2,0,.3-.1,0,0,.2-.2.2-.3v-.2c.2,0,.2-.1.3-.2,0,0,.1,0,.2,0,0,0,.1,0,.2,0,0,0,0,0,0,.1,0,0,0,.2,0,.2,0,.1-.2.2-.3.2h0s0,.1,0,.1h.6c0-.1,0-.2,0-.2Z" fill="#b38e5d"/>
  <path d="M13,25.5c0,0-.1,0-.2-.1,0-.3,0-.5,0-.8,0,0,0-.1.2-.1,0,0,.2,0,.2.1,0,.3,0,.5,0,.8,0,0,0,.2-.2.2" fill="#b38e5d"/>
  <path d="M13.8,25.5c0,0-.2,0-.2-.1v-.7c0,0,0-.2,0-.2,0,0,0,0,.1,0,.1,0,.2,0,.2.2v.6c0,0,0,.1,0,.1,0,0,0,0-.2,0" fill="#b38e5d"/>
  <path d="M11.4,26s0,0-.1,0c0,0-.1,0-.1-.1,0,0,0-.1,0-.1,0,0,0,0,0,0,0,0,.1,0,.2,0,0,0,0,.1,0,.2,0,0,0,0-.1,0" fill="#b38e5d"/>
  <path d="M15.3,26s0,0-.1,0c0,0,0,0,0-.1,0,0,0-.1.2-.2h0c0,0,.1,0,.1.1,0,0,0,.2-.1.2,0,0,0,0-.1,0" fill="#b38e5d"/>
  <path d="M11.8,25.7s0,0,0,0h-.2c0-.1,0-.2,0-.2.3-.2.6-.4.9-.4h0c0,0,.1,0,.1.1,0,0,0,.2-.1.2-.2,0-.4.1-.5.2,0,0,0,0-.1,0" fill="#b38e5d"/>
  <path d="M14.9,25.7s0,0,0,0c-.2-.2-.4-.3-.6-.3,0,0,0,0,0,0,0-.2,0-.2,0-.2.4,0,.7.2.9.4h0c0,0,0,0,0,0h-.2c0,.1,0,.2,0,.2Z" fill="#b38e5d"/>
  <path d="M14.3,27.1s0,0-.1,0c-.2-.1-.5-.2-.7-.4,0,0,0-.1,0-.2,0,0,.1-.2.2-.2h0c.1,0,.3.1.4.2.1,0,.3.1.4.2,0,0,0,0,0,0,0,0,0,0,0,0h-.1c0,.2,0,.2-.1.2" fill="#b38e5d"/>
  <path d="M11.5,26.9h0s0,0,0-.1c0-.4.4-.6.8-.9.1,0,.3-.2.4-.3,0,0,0,0,.1,0,0,0,0,0,0,0h.2c0,.1,0,.1,0,.2,0,0,0,0,0,0-.1.1-.3.2-.4.3-.2.1-.5.3-.6.5-.1.1-.3.2-.4.3h0Z" fill="#b38e5d"/>
  <path d="M12.5,27.1s0,0,0,0h-.2c0-.2,0-.3,0-.4.2-.1.3-.3.5-.4.2-.1.4-.3.5-.4,0,0,.1-.1.2-.1h0s0,0,.1,0c0,0,.1,0,.1,0,0,0,0,.2,0,.2-.2.2-.4.4-.6.6-.2.1-.4.3-.5.5,0,0,0,0,0,0" fill="#b38e5d"/>
  <path d="M15.2,26.7s0,0-.1,0c0,0-.2,0-.2-.1,0,0-.2-.2-.3-.2,0,0-.2,0-.2-.1-.1,0-.2,0-.3-.1,0,0,0,0,0,0,0,0,0-.2.1-.2,0,0,0,0,0,0,0,0,0,0,0,0,.1,0,.2.1.4.2.3.1.7.3.9.6,0,0,0,0,0,0,0,0,0,0,0,0,0,0-.1,0-.2,0" fill="#b38e5d"/>
  <path d="M10,25.3c.2,0,.3,0,.3.1,0,0,0,.1,0,.2,0,0,0,.1,0,.1,0,0,0,0,0,0,0,0,.2-.1.3-.3,0,0,0-.1.2-.2,0,0,.1-.1.1-.2,0,0,0-.1,0-.1,0,0,0,0,0,0,0,0-.1.1-.2.1,0,0,0,0,0,0-.2,0-.3,0-.4-.2l-.2-.4s0,0,0,0h0s0,0,0,0c0,0,0,0,0,.1v.2c.1,0,.1,0,.1,0,0,0,0,0-.1,0h0c-.4,0-.7-.2-.9-.5,0,0,0,0-.1,0h0s0,0,0,0c0,0,0,0,0,.1v.2c.2,0,.2,0,.2,0,0,0,0,0,0,0-.3,0-.7-.1-.9-.3,0,0,0,0-.1,0,0,0,0,0,0,.1h0c0,.1,0,.2,0,.2,0,0,0,0,0,0h-.5c0,0-.1,0-.1.1s0,0,.2,0c.4,0,.8,0,1.1,0,0,0,0,0,0,0,0,0,0,0,0,0l-.2.2s0,0,0,.1c0,0,0,0,0,0,0,0,0,0,0,0,.2-.2.4-.3.7-.3,0,0,.1,0,.2,0,0,0,0,0,.1,0,0,0,0,0,0,.1v.2c-.1,0-.1.1-.1.1h0s0,0,0,0c.2-.2.4-.4.6-.4h0ZM9.9,26.3c0,0-.1,0-.1,0,0,0,0,0,0-.1l.2-.3s0,0,0-.1c0,0,0,0,0,0,0,0-.1,0-.2.1-.2.2-.5.4-.8.4,0,0-.1,0-.2,0,0,0-.1,0-.1-.1,0,0,0,0,0-.1l.2-.3c0,0,0-.1,0-.1h0s0,0,0,0c0,0,0,0,0,0l-.6.3c0,0-.1,0-.2,0-.1,0-.2,0-.3-.1,0,0,0,0,0,0h0c0-.1.2-.2.2-.3,0,0,0,0,0-.1,0,0,0,0-.1,0-.2,0-.4,0-.5,0-.2,0-.4,0-.6,0,0,0,0,0,0-.1,0,0,0-.1.2-.2l.6-.2s0,0,0,0c0,0,0,0,0-.1,0,0,0,0,0,0,0,0,0,0,0,0,0,0,.1,0,.2,0,.2,0,.5.1.6.3,0,0,0,0,0,0,0,0,0,0,0-.1v-.2c0,0,0,0,0-.1,0,0,0,0,0,0,.3,0,.5.1.9.5,0,0,0,0,.1,0h0c0,0,0-.2,0-.2v-.2c-.1,0-.1,0,0-.1,0,0,0,0,.1,0,0,0,0,0,.1,0,.2,0,.3,0,.4.2l.3.5c0,0,0,0,.2,0,0,0,.1,0,.2-.1,0,0,0,0,0,0,0,0,.2,0,.4.3,0,0,.2.1.3.1,0,0,.1,0,.2,0,.2-.1.5-.2.7-.2.1,0,.2,0,.3,0,0,0,.1,0,.1.1,0,0,0,0,0,0,0,0-.1.2-.3.2,0,0,0,0,0,0,0,0,0,0-.1,0-.3,0-.6.2-.8.4,0,0-.2,0-.2,0,0,0,0,0-.1,0,0,0-.2.1-.3.3-.2.3-.4.5-.8.5" fill="#b38e5d"/>
  <path d="M5.4,23.3c.1,0,.2,0,.3,0,0,0,0,0,0,0,0,0,0,.2.1.1h.4s0,0,0,0c0,0,0,0,0,0,0-.2-.1-.2-.2-.2h0s0,0-.1,0c-.2-.1-.3-.4-.2-.9,0,0,0,0,0-.1h0s0,0,0,.1v.3c0,.1,0,.1-.1.1,0,0,0,0,0,0-.2-.1-.4-.4-.4-.6,0-.1,0-.6-.2-.3,0,0-.2-.2-.3-.3,0,0,0,0,0,0,0,0,0,0,0,.1,0,0,0,.1,0,.1,0,0,0,0,0,0,0,0,0,0,.1,0,.2,0,.3.2.5.6,0,0,0,0,0,0h-.5s0,0,0,0c0,0,0,0,0,0,0,0,0,0,.1.1h.5c.2,0,.3.2.4.3,0,0,0,.1,0,.1,0,0,0,0,0,0-.2,0-.4.1-.6.1,0,0-.1,0-.1,0,0,0,0,0,.1,0,0,0,.1,0,.2,0,.1,0,.2,0,.3,0,0,0,.2,0,.3,0M7.2,24.2s0,0-.1,0c-.3-.3-.7-.4-1.1-.4-.2,0-.3,0-.5,0,0,0,0,0,0,0,0,0,0-.1,0-.2,0-.1,0-.1-.1-.1,0,0,0,0,0,0,0,0-.1,0-.2,0-.4,0-.8,0-1-.4,0,0,0,0,0,0,0,0,0,0,0,0h.7c0,0,0-.1,0-.1,0,0,0,0-.1-.1-.7-.1-1.1-.3-1.2-.6,0,0,0,0,0-.1,0,0,0,0,.1,0h.5c0,0,.1,0,.1,0,0,0,0,0,0-.1l-.5-.3s0,0,0-.1c0,0,0,0,.2,0,0,0,.1,0,.2,0,0,0,.1,0,.2,0,0,0,0-.2,0-.3v-.2c0-.1,0-.2,0-.2,0,0,.1,0,.3.3,0,0,.1.1.2.1,0,0,0-.1.1-.3,0,0,0,0,0,0,0,0,0,0,.1,0,.2.1.2.6.2,1.1,0,0,0,0,0,0,0,0,0,0,0,0,0,0,0,0,.1-.2v-.3c0,0,.1-.1.2-.1,0,0,.1,0,.2,0,.2.2.2.5.2,1.1,0,0,0,0,0,.1,0,0,0,0,0,0,0,0,.1,0,.2-.2,0,0,0,0,0,0,0,0,0,0,0,.1,0,.5.3,1,.8,1.3,0,0,0,0,0,.1,0,0,0,0,0,0" fill="#b38e5d"/>
  <path d="M7,23c0,0-.1,0-.1-.1,0,0,0-.1,0-.1,0,0,.1,0,.2,0,0,0,.1,0,.2,0,0,0,0,0,0,.1,0,0-.2.2-.3.1h0Z" fill="#b38e5d"/>
  <path d="M5.7,24.6s0,0,0,0c0,0-.1-.1-.1-.2,0,0,0-.1,0-.2,0,0,0,0,.1,0,.1,0,.2,0,.2.2,0,0,0,0,0,.1,0,0,0,0-.2,0" fill="#b38e5d"/>
  <path d="M7.5,24s-.1,0-.2-.2c0-.1-.2-.2-.3-.3,0,0-.1-.1-.1-.2,0,0,0-.1.1-.1h0c0,0,.2,0,.3,0,0,0,0,0,0,0,0,0,.1,0,.2,0,0,0,0,.1,0,.2,0,0-.1.2,0,.3,0,.2,0,.3,0,.3h0Z" fill="#b38e5d"/>
  <path d="M6.2,24.7c0,0-.1,0-.1-.1,0-.1,0-.2,0-.3,0,0,0-.2,0-.2,0,0,0,0,.1,0,0,0,0,0,.1,0,0,0,.2.1.3.1.1,0,.2,0,.3,0,0,0,0,0,0,0,0,0,0,0-.1,0h0c-.2,0-.3,0-.4.3,0,0-.1.1-.2.1" fill="#b38e5d"/>
  <path d="M2.4,20s0,0,0,0c0,0,0,0,0,0,0,0,0,0,0,0,.2,0,.4,0,.5,0,0,0,0,0,0,0h0c0,0,0-.1,0-.1,0-.1,0-.2,0-.4,0,0,0,0,0-.1h0s0,0,0,0c0,0,0,0,0,0,0,0,0,0-.1,0,0,0-.1,0-.2,0,0-.2,0-.3,0-.5,0-.2.2-.5.2-.7,0,0,0,0,0-.1h0s0,0,0,0c0,.1-.1.3-.1.4,0,.2-.1.3-.2.3,0,0-.2-.2-.3-.3-.1-.2-.1-.4,0-.6,0,0,0,0,0-.1h0s0,0,0,0c0,.1-.1.2-.1.2,0,0-.1,0-.2-.2,0,0,0,0,0,0,0,0,0,0,0,0,0,0,0,0,0,.1h0c0,.1.2.3.2.3h0c0,0-.2,0-.2,0h0s0,0,0,0c0,0,0,0,0,0,.5,0,.8.4.8.6,0,0,0,.1-.2.1-.1,0-.2,0-.3,0h0s0,0,0,0c0,0,0,0,.1,0,.5,0,.8.3.8.5,0,0-.1.1-.2.2h0ZM3.9,21.3s0,0,0,0c-.3-.1-.6-.3-.8-.6,0-.2-.3-.3-.5-.4-.3,0-.6-.2-.8-.4,0,0,0,0,0,0,0,0,0,0,0,0h.2c0,0,0,0,0,0,0,0,0,0-.1-.1-.6-.1-.9-.3-1-.5,0,0,0-.1,0-.1,0,0,0,0,.1,0,0,0,0,0,.1,0,0,0,0,0,0,0,0,0,0,0,0,0,0,0,0,0-.1-.1-.2,0-.4-.2-.5-.3,0,0,0-.1,0-.2,0,0,0,0,.1,0,0,0,0,0,0,0,0,0,0,0,.1,0,0,0,0,0,0,0,0,0,0-.1,0-.2,0,0,0-.1,0-.1,0,0,0,0,.1,0,0,0,0,0,.1,0,0,0,.2,0,.2-.1,0,0,0,0,0,0,0,0,.1,0,.1.1,0,0,0,.2.2.2,0,0,0,0,.1-.1,0-.1,0-.2.2-.2,0,0,0,0,.1,0,.1,0,.1.3,0,.7,0,0,0,0,0,.1h0s0,0,0,0c0,0,.1,0,.2-.2,0-.3.1-.4.3-.4,0,0,0,0,0,0,0,0,.2,0,.2.1,0,.3,0,.7,0,1,0,0,0,.1,0,.2,0,0,0,0,0,0,0,0,0,0,.1,0,0,0,0-.1.2-.1,0,0,0,0,0,0,0,.1,0,.3,0,.4-.4.5-.3,1.3.3,1.7,0,0,.1,0,.2,0,0,0,0,0,0,.2,0,0,0,0,0,0" fill="#b38e5d"/>
  <path d="M3.8,20.9s0,0,0,0c0-.2,0-.4-.2-.6,0,0,0-.1,0-.2,0,0,0,0,.1,0,0,0,0,0,0,0,.1,0,.3,0,.4,0,0,0,.1,0,.1.1,0,0,0,.1,0,.1-.2,0-.3.2-.3.4,0,0,0,0,0,0,0,.1,0,.2-.1.2" fill="#b38e5d"/>
  <path d="M4,19.8s0,0,0,0c-.1,0-.2,0-.2-.1,0,0,0-.2.1-.2,0,0,0,0,.1,0,0,0,.1,0,.2,0,0,0,0,.1,0,.2,0,0,0,.1-.2.1" fill="#b38e5d"/>
  <path d="M2.3,21.2c0,0-.1,0-.2,0,0,0,0-.2,0-.3,0,0,0,0,.1,0,0,0,.2,0,.2.1,0,0,0,.1,0,.2,0,0,0,0-.1,0" fill="#b38e5d"/>
  <path d="M2.7,21.5c0,0-.1,0-.1,0,0,0,0,0,0-.1,0-.1,0-.3,0-.4,0,0,0-.2.2-.2,0,0,.1,0,.2,0,0,.1.1.2.3.3.2.1.3.2.3.2,0,0,0,0,0,0,0,0,0,0,0,0,0,0-.2,0-.3,0,0,0-.1,0-.2,0,0,0-.1.1-.2.1" fill="#b38e5d"/>
  <path d="M.6,14.7s0,0,0,.1c.1.2.3.5.3.7,0,0,0,0-.1,0,0,0,0,0-.1,0,0,0,0,0,0,0,0,0,0,0,.1,0,.1,0,.2,0,.1.2v.2c0,0,.2.1.2.1,0,0,0,0,0,0,0,0,0-.2-.1-.2,0,0,0,0,0,0,0,0,0,0,.1-.2.2-.2.2-.3.2-.3h0s0,0,0,0c0,0,0,0,0,0,0,0,0,0,0,0-.1,0-.1,0-.2-.2,0-.2,0-.3.1-.3.2-.1.3-.2.3-.2,0,0,0,0-.2,0,0,0,0,0,0,0,0,0,0,0,0,0,0,0,0,0,0,0,0-.2.1-.4.3-.5,0,0,0-.1,0-.1,0,0,0,0-.1,0-.1,0-.2,0-.3.1,0,0,0,.2,0,.3v.4c0,0,0,.1-.1.1,0,0,0,0,0,0-.1-.1-.2-.1-.2-.1h0s0,0,0,0ZM1.6,17.5h0c-.1,0-.2-.2-.2-.3,0-.5-.2-.7-.4-.7-.2-.1-.3-.2-.3-.3,0-.2,0-.3-.2-.3-.2,0-.4-.2-.4-.4,0-.2,0-.2,0-.3,0,0,0,0,0,0,0,0,.2,0,.3,0,0,0,0,0,0,0,0,0,0,0,0,0,0,0,0,0,0-.2l-.2-.3c0-.1,0-.3,0-.4,0-.1.2-.2.2-.2,0,0,0,0,0,0,.1.2.2.2.2.2,0,0,0-.1,0-.2,0-.3,0-.7.3-.7,0,0,0,0,.1,0,0,0,.1,0,.2,0,.1,0,.2,0,.3-.2,0,0,0,0,.1,0,0,0,0,0,.1.1,0,.2,0,.5-.2.6,0,0,0,.1,0,.2,0,0,0,0,0,0,0,0,.2,0,.3-.1,0,0,0,0,0,0,0,0,0,0,0,.1,0,.3-.2.5-.6.7,0,0,0,0,0,.1,0,0,0,0,0,0,0,0,0,0,0,0,0,0,0,0,0,0,0,0,.2-.1.3-.1,0,0,.1,0,.1,0,0,0,0,.2-.2.4-.1.2-.2.2-.3.3,0,0,0,0,0,0,0,0,0,0,0,.1,0,0,0,.1,0,.2-.2.2-.2.5,0,1.1,0,0,0,.1,0,.2,0,0,0,0,0,0" fill="#b38e5d"/>
  <path d="M2.4,16.3c0,0-.1,0-.2,0,0,0,0-.1,0-.2,0,0,0-.1.2-.1.1,0,.2,0,.2,0,0,0,0,.1,0,.2,0,0-.1,0-.2,0" fill="#b38e5d"/>
  <path d="M.2,16.9s0,0-.1,0c0,0,0-.1,0-.2,0,0,0-.1.1-.2,0,0,0,0,0,0,0,0,0,0,.1,0,0,0,0,.2,0,.2,0,0,0,.1-.2.1" fill="#b38e5d"/>
  <path d="M1.2,17.3s0,0,0,0c-.1-.1-.2-.2-.4-.2,0,0,0,0-.1,0,0,0,0,0-.1,0,0,0-.1,0-.1,0,0,0,0,0,0-.1,0-.1.1-.3.2-.4,0,0,0,0,.1,0,0,0,.2,0,.2.2v.2c0,0,.3.3.3.3,0,0,0,0,0,.1h0Z" fill="#b38e5d"/>
  <path d="M1.9,17.2s0,0,0,0c0,0,0-.2,0-.3,0-.1,0-.2,0-.3,0,0,0-.1,0-.2,0,0,0,0,.1,0h0c.1,0,.2.1.4.2,0,0,.1,0,.1.2,0,0,0,.1-.2.1-.1,0-.2.1-.3.4,0,0,0,0,0,.1" fill="#b38e5d"/>
  <path d="M19.7,23.4c0,0-.1,0-.2,0,0,0,0,0,0-.1,0,0,0-.2-.1-.3,0,0-.1-.2,0-.3,0-.1.2-.2.3-.2.1,0,.2,0,.3.1,0,.1,0,.2,0,.4,0,0-.1.2,0,.3,0,0,0,.1,0,.2,0,0,0,0-.1,0" fill="#b38e5d"/>
  <path d="M23,20.4c0,0-.1,0-.1-.1,0,0,0,0,0,0,0,0,0-.2-.2-.2-.2,0-.2-.2-.2-.3,0-.2.2-.3.4-.3.2,0,.3,0,.3.3,0,0,0,.2,0,.2,0,0,0,.1,0,.2,0,0-.1.1-.2.1" fill="#b38e5d"/>
  <path d="M24.8,16.5c0,0-.1,0-.1,0,0,0-.1-.1-.2,0,0,0,0,0,0,0-.2,0-.3-.2-.3-.3,0-.2.1-.3.3-.3.1,0,.2,0,.3.2h0c0,.1,0,.2.1.2,0,0,.1.1.1.2,0,0,0,.2-.2.2" fill="#b38e5d"/>
  <path d="M20.5,24.7c-.1,0-.2,0-.3-.2,0,0,0-.2-.2-.2,0,0-.1,0-.1-.2,0,0,0-.2.2-.2,0,0,0,0,.1,0,0,0,.1,0,.2,0,0,0,0,0,.1,0,.2,0,.3,0,.3.2,0,.2-.1.4-.3.4" fill="#b38e5d"/>
  <path d="M24.3,21.1c0,0-.2,0-.2,0,0,0-.1,0-.2,0h0s0,0,0,0c0,0,0,0-.1,0,0,0,0,0,0-.1,0-.1,0-.2.2-.2h0s0,0,0,0c0,0,.1,0,.2-.1,0,0,.1,0,.2,0,0,0,.2,0,.2.1,0,.1,0,.3,0,.4,0,0-.1.1-.2.1" fill="#b38e5d"/>
  <path d="M26.2,16.8c0,0-.1,0-.2,0,0,0-.1,0-.2,0,0,0,0,0-.1,0,0,0,0,0,0,0,0,0-.2,0-.2-.1,0,0,0,0,0,0,0,0,0,0,0-.1,0,0,0,0,.1,0h0s0,0,0,0c0,0,.1,0,.2-.2,0,0,.1-.1.2-.1,0,0,.2,0,.2.1,0,.1,0,.3,0,.4,0,0-.1.1-.2.1" fill="#b38e5d"/>
  <path d="M16.6,25.7c0,0-.2,0-.3,0-.3-.1-.6-.3-.9-.4-.4-.2-.8-.3-1.2-.3,0,0-.1,0-.1-.2,0,0,0,0,0,0,0,0,0-.1.1-.2.5,0,.9.2,1.4.4,0,0,.2,0,.3,0,.1,0,.2,0,.3-.1h.2c.8-.5,1.6-.8,2.5-.9,0,0,.2,0,.3,0,0,0,.1,0,.1,0s0,0-.2,0c0,0,0,0,0,0-.2,0-.3,0-.5.1-.2.1-.4.2-.7.3-.3.2-.6.3-1,.4,0,0,0,0,0,0-.3,0-.5.1-.5.2,0,0,0,0,.2.1,0,0,.2,0,.2,0,.3,0,.7-.2,1-.3.5-.4,1.1-.6,1.7-.8h0s0,0,0,0c0,0,0,0,0,.1-.5.4-1.1.8-1.7,1-.2,0-.3.1-.4.2-.2,0-.4.2-.6.2" fill="#b38e5d"/>
  <path d="M17.4,26.2c-.6,0-.9,0-1.1-.4.1,0,.3,0,.4,0,.5,0,1-.3,1.5-.5.3-.2.6-.3.9-.3.1,0,.2,0,.2,0,0,0,0,0,0,0l-1.6.6c0,0-.1,0-.1.1,0,0,0,0,.1,0,.4-.1.7-.2,1-.4.2-.2.5-.3.8-.3,0,0,0,0,.1,0,0,0,0,0,0,0,0,0,0,0,0,0-.7.4-1.3.6-2,.9,0,0,0,0-.1,0" fill="#b38e5d"/>
  <path d="M16,24.9c-.2,0-.4,0-.4-.2h0c.3,0,.6-.2.9-.5.2-.1.3-.3.5-.4,0,0,.2,0,.2,0,.1,0,.2,0,.3-.1.2-.1.4-.2.6-.2.1,0,.2,0,.3,0,0,0,0,0,0,0,0,0,0,0,0,0,0,0,0,0-.1,0-.2,0-.5.1-.7.3l-.6.2c-.2,0-.3.1-.3.2,0,0,0,0,0,0h0s.3,0,.3,0c.1,0,.2,0,.3-.1.1,0,.3-.1.4-.2.1,0,.3,0,.4-.1,0,0,.1,0,.2,0h0s0,0,.1,0c0,0,0,0,0,0,0,0,0,.1,0,.1-.1,0-.2,0-.3,0-.2,0-.4,0-.6.2-.5.2-1,.4-1.5.7,0,0-.1,0-.2,0" fill="#b38e5d"/>
  <path d="M19.8,23.9c0,0-.1,0-.2,0,0,0,0-.1,0-.1,0,0,.2-.2.4-.3.4-.3.8-.6,1-1,.3-.4.7-.8,1.2-1.1.2-.2.4-.3.6-.5,0,0,.1,0,.1,0,0,0,0,0,0,0-.1.4-.4.7-.8.9-.5.3-.9.7-1.3,1.2,0,0,0,.1,0,.1h0s0,0,0,0c0,0,0,0,.2-.1.3-.4.6-.7,1-1,.4-.2.6-.6.8-1,0,0,0,0,0,0,0,0,0,.1,0,.2,0,.4-.3.8-.6,1-.4.5-.9.8-1.5,1.1-.4,0-.8.2-1.1.6,0,0,0,0-.2.1" fill="#b38e5d"/>
  <path d="M21.6,23.5c-.1,0-.3,0-.4,0-.1,0-.2,0-.4,0,0,0-.1,0-.1,0,0,0,0,0,0,0,.9-.3,1.7-.9,2.3-1.7,0,0,0,0,.1,0h0s0,0,0,0c-.3.5-.7.9-1.2,1.2h-.1c0,.2-.1.2-.1.3,0,0,0,0,0,0,0,0,0,0,0,0,.6-.4,1.1-.9,1.5-1.5,0,0,0,0,0,0,0,0,0,0,0,0,0,.2,0,.4-.4.7-.3.4-.6.7-1,.9-.2,0-.4,0-.6.1" fill="#b38e5d"/>
  <path d="M20.3,22.9s0,0,0,0c0,0,0,0,0-.1,0-.2.1-.4.1-.6,0-.3.2-.5.4-.7.4-.3.7-.7,1.1-1,0,0,0,0,0,0,0,0,0,0,0,.1,0,.2-.1.3-.4.5-.1.1-.3.3-.5.5l-.4.4c0,0,0,.1,0,.2h0s0,0,0,0c0,0,.1,0,.2-.1.2-.3.5-.6.8-.9,0,0,0,0,.1,0,0,0,0,0,0,.1,0,.2-.2.4-.4.5-.3.2-.5.5-.7.8-.1.2-.3.3-.4.4" fill="#b38e5d"/>
  <path d="M23.3,20.8s0,0,0,0c0,0,0-.1,0-.2.3-.4.5-.8.5-1.3v-.3c.3-.7.6-1.3,1-1.8,0,0,.1,0,.1,0,0,0,0,0,0,.1-.1.4-.3.8-.5,1.2-.1.3-.3.6-.4.9,0,0,0,.1,0,.2h0s0,0,0,0c0,0,0,0,.1,0,.3-.4.5-.9.6-1.4.1-.4.2-.7.4-1.1,0-.1.1-.1.1-.1,0,0,0,0,0,.2,0,.8-.3,1.6-.8,2.3,0,.1-.2.2-.3.3-.1,0-.2.2-.3.4-.1.3-.3.5-.5.7,0,0,0,0-.1,0" fill="#b38e5d"/>
  <path d="M23.5,19.7s0,0,0,0c-.6-.8,0-1.8.6-2.5,0,0,0,0,.1,0,0,0,0,0,0,0-.1.2-.2.4-.3.6,0,.2-.1.4-.2.6,0,0,0,.1-.1.2,0,.2,0,.3,0,.3h0s0,0,0,0c0,0,0,0,0,0,.2-.3.3-.6.4-.9,0-.3.2-.5.3-.7,0,0,0,0,0,0h0c0,0,0,0,0,.1-.2.5-.4.9-.6,1.4-.1.2-.2.4-.2.7,0,.2,0,.4-.1.4" fill="#b38e5d"/>
  <path d="M24.3,20h0s0,0,0-.1c.4-.3.7-.7.9-1.2,0-.4.3-.8.6-1,0,0,0,0,.2,0,0,0,0,0,0,.2-.2.2-.3.5-.4.8,0,.3-.2.5-.4.8,0,0,0,.1,0,.2h0s0,0,0,0c0,0,0,0,.1,0,.2-.2.3-.5.4-.7.1-.4.3-.7.5-1,0,0,.1,0,.1,0s0,0,0,.2c0,.2-.2.4-.2.6-.1.4-.3.8-.5,1.2-.1,0-.2.2-.3.2,0,0-.1,0-.2,0,0,0-.2,0-.2,0,0,0-.1,0-.2,0" fill="#b38e5d"/>
  <path d="M25.1,15.6s0,0,0,0c-.5-.4-.6-1.1-.4-2.1,0,0,0,0,0-.1h0c.1.2.2.4,0,.5,0,.4,0,.7,0,1.1,0,0,0,0,.1,0h0s0,0,0,0c0,0,0,0,0,0-.1-.3-.1-.6,0-.8,0,0,0-.2,0-.3,0,0,0,0,0,0h0s0,0,0,0c0,0,.1.2,0,.6,0,.2,0,.4,0,.6,0,.1,0,.3,0,.4,0,0,0,0,0,0" fill="#b38e5d"/>
  <path d="M25.2,16.7s0,0,0,0c0,0,0,0,0-.1,0-.2,0-.4.1-.7,0-.3.1-.5,0-.8-.1-.6,0-1.3.3-1.8,0,0,0,0,0,0,0,0,0,0,0,.1,0,.3,0,.5-.2.8-.1.3-.1.7-.1,1,0,0,0,0,0,.1,0,0,0,0,0,0,0,0,.1,0,.1-.2,0-.3,0-.7.1-1,.1-.2.1-.5,0-.7,0,0,0,0,0,0,0,0,0,0,0,0,0,0,.1.2.2.5,0,.4,0,.8-.2,1.2,0,.2-.2.3-.3.5-.1.2-.2.3-.3.5,0,.1,0,.3,0,.5,0,0,0,.1-.1.1" fill="#b38e5d"/>
  <path d="M25.6,16.1h0s0,0,0-.2l.5-.8c.2-.4.2-.9.2-1.4,0,0,0-.1,0-.1h0s0,0,0,0c0,0,.2.1.1.3v.7c-.1,0-.2.5-.2.5,0,0,0,0,0,.1h0s0,0,0,0c0,0,0,0,0-.1,0-.2,0-.4.1-.6,0-.3,0-.6,0-.9,0,0,0,0,0,0,0,0,0,0,0,0,.2.2.2.4.2.6,0,.1,0,.3,0,.4,0,.2,0,.4-.2.6l-.7.7c0,0-.1.1-.2.1" fill="#b38e5d"/>
  <path d="M32.3,6.1c0-2.4,2.6-4.1,5.5-4.1,1.5,0,2.9.4,4.2,1.1l.3.6c-.1.8-.5,2.4-.7,2.8-.7,0-1.4,0-2,0,0-.7-.2-1.5-.5-2.2-.5-.4-1.1-.5-1.7-.5-.5,0-1,0-1.4.3-.2.4-.3.8-.3,1.3,0,3.2,6.8,2.1,6.8,6.7s-2.2,3.8-5.3,3.8c-1.7,0-3.4-.3-4.9-1.1,0-1,0-2,0-3,.7-.1,1.4-.1,2.2,0,.1.7.4,1.5.6,2.2.6.3,1.3.5,2,.4.5,0,1,0,1.5-.2.3-.4.5-.9.4-1.4,0-2.5-6.8-1.7-6.8-6.3Z" fill="#fff"/>
  <path d="M46,13.7c.1-1.1.2-2.1.2-3.2v-3.3c0-1,0-2-.3-3-.4-.4-1-.7-1.5-.8l.2-1.1h5.2c2.4,0,4.3,0,5.8-.2.2.3.4.6.6.9-.1.9-.5,2.6-.7,3.2-.7,0-1.3,0-2,0l-.5-2.2c-.7-.1-1.3-.2-2-.2-.6,0-1.1,0-1.6,0,0,.6-.1,1.9-.1,3.3v1l4-.2.4.5c0,.5-.2,1.1-.3,1.6h-4c0-.1,0,.5,0,.5,0,1,0,2,.3,3,0,0,0,0,.1.1.5.2,1.1.3,1.7.3.6,0,1.2,0,1.8-.2l.7-2.3c.7,0,1.4,0,2.1,0,0,1.2,0,2.5,0,3.9h-11.5l-.2-1.1,1.6-.6Z" fill="#fff"/>
  <path d="M59.4,4.3c-.5-.3-1-.6-1.5-.8l.2-1.1c1.4,0,3,0,4.2,0,1.9,2.9,4,5.7,6.3,8.3,0-3.5-.2-5.8-.4-6.2-.6-.4-1.2-.6-1.9-.8l.2-1.1h5.8l.2,1.1-1.6.6c-.3,3.7-.4,7.4-.3,11.2l-2.5.2-1.7-2.4c-1.3-1.8-3.1-4-4.6-5.8,0,2.1,0,4.1.4,6.2.7.4,1.4.7,2.2.8l-.2,1.1h-6l-.2-1.1,1.6-.6c.1-1.6.2-3.3.2-4.9,0-2.5,0-4.2-.3-4.5Z" fill="#fff"/>
  <path d="M75.6,13.7c.1-1.1.2-2.1.2-3.2v-3.3c0-1,0-2-.3-3-.4-.4-1-.7-1.5-.8l.2-1.1h5.2c2.4,0,4.3,0,5.8-.2.2.3.4.6.6.9-.1.9-.5,2.6-.7,3.2-.7,0-1.3,0-2,0l-.5-2.2c-.7-.1-1.3-.2-2-.2-.6,0-1.1,0-1.6,0,0,.6-.1,1.9-.1,3.3v1l4-.2.4.5c0,.5-.2,1.1-.3,1.6h-4c0-.1,0,.5,0,.5,0,1,0,2,.3,3,0,0,0,0,.1.1.5.2,1.1.3,1.7.3.6,0,1.2,0,1.8-.2l.7-2.3c.7,0,1.4,0,2.1,0,0,1.2,0,2.5,0,3.9h-11.5l-.2-1.1,1.6-.6Z" fill="#fff"/>
  <path d="M89.2,13.7c.1-1.1.2-2.1.2-3.2v-3.3c0-1,0-2-.3-3-.4-.4-1-.7-1.5-.8l.2-1.1h3.2c.7,0,2.7-.1,3.7-.1,3.2,0,5.2,1.1,5.2,3.4-.1,1.6-1.1,2.9-2.5,3.5.8,1.5,1.7,3,2.6,4.5l1.2.7-.2,1.1c-1.3,0-2.4,0-3.9,0-.6-1.5-1.5-3.3-2.5-5.3h-2v.3c0,1,0,2,.3,3,.4.4,1,.7,1.5.8l-.2,1.1h-6.4l-.2-1.1,1.6-.6ZM92.6,8.3h2.8c.7-.5,1.1-1.4,1.1-2.3,0-.6-.1-1.2-.4-1.7-.5-.3-1.1-.5-1.8-.5-.5,0-1,0-1.5.2-.1,1.1-.2,2.1-.2,3.2v1.1Z" fill="#fff"/>
  <path d="M32.3,23.8c-.2,0-.3-.1-.5-.2l.2-.5c.1,0,.3.2.4.2.2,0,.3,0,.5,0,.1,0,.3,0,.4,0,0,0,.1-.1.1-.2,0,0,0-.1,0-.2,0,0-.1,0-.2-.1,0,0-.2,0-.3,0-.2,0-.4,0-.5-.2-.1,0-.3-.1-.3-.2-.1-.1-.2-.3-.1-.4,0-.2,0-.3.1-.4,0-.1.2-.3.4-.3.2,0,.4-.1.6-.1.2,0,.4,0,.5,0,.2,0,.3,0,.4.2l-.2.5c-.2-.1-.5-.2-.8-.2-.1,0-.3,0-.4,0,0,0-.1.1-.1.2,0,0,0,.2.2.2.1,0,.3.1.5.1.2,0,.4,0,.5.2.1,0,.3.1.3.2.1.1.2.3.1.4,0,.2,0,.3-.1.4-.1.1-.2.3-.4.3-.2,0-.4.1-.7.1-.2,0-.4,0-.6,0Z" fill="#b38e5d"/>
  <path d="M37.3,23.4v.5h-2.2v-2.8h2.1v.5h-1.5v.6h1.3v.5h-1.3v.6h1.5Z" fill="#b38e5d"/>
  <path d="M38.9,23.7c-.2-.1-.4-.3-.5-.5-.3-.5-.3-1,0-1.5.1-.2.3-.4.5-.5.2-.1.5-.2.8-.2.2,0,.4,0,.7.1.2,0,.4.2.5.4l-.4.4c-.2-.2-.4-.3-.7-.3-.2,0-.3,0-.5.1-.1,0-.2.2-.3.3-.2.3-.2.6,0,.9,0,.1.2.2.3.3.1,0,.3.1.5.1.3,0,.5-.1.7-.3l.4.4c-.1.2-.3.3-.5.4-.2,0-.4.1-.7.1-.3,0-.5,0-.8-.2Z" fill="#b38e5d"/>
  <path d="M43.6,23.9l-.5-.8h-.6v.8h-.6v-2.8h1.2c.2,0,.4,0,.6.1.4.1.6.5.6.9,0,.4-.2.7-.6.9l.6.9h-.7ZM43.4,21.7c-.1,0-.3-.1-.4-.1h-.5v1h.5c.2,0,.3,0,.4-.1.2-.2.2-.5,0-.7,0,0,0,0,0,0h0Z" fill="#b38e5d"/>
  <path d="M47.5,23.4v.5h-2.2v-2.8h2.1v.5h-1.5v.6h1.3v.5h-1.3v.6h1.5Z" fill="#b38e5d"/>
  <path d="M49.1,21.6h-.9v-.5h2.4v.5h-.9v2.3h-.6v-2.3Z" fill="#b38e5d"/>
  <path d="M53.3,23.3h-1.3l-.2.6h-.7l1.2-2.8h.6l1.3,2.8h-.7l-.2-.6ZM53.1,22.8l-.4-1.1-.4,1.1h.9Z" fill="#b38e5d"/>
  <path d="M56.8,23.9l-.5-.8h-.6v.8h-.6v-2.8h1.2c.2,0,.4,0,.6.1.4.1.6.5.6.9,0,.4-.2.7-.6.9l.6.9h-.7ZM56.6,21.7c-.1,0-.3-.1-.4-.1h-.5v1h.5c.2,0,.3,0,.4-.1.2-.2.2-.5,0-.7,0,0,0,0,0,0h0Z" fill="#b38e5d"/>
  <path d="M59,20.3h.7l-.7.6h-.5l.5-.6ZM58.5,21.1h.6v2.8h-.6v-2.8Z" fill="#b38e5d"/>
  <path d="M62.2,23.3h-1.3l-.2.6h-.7l1.2-2.8h.6l1.3,2.8h-.7l-.2-.6ZM62,22.8l-.4-1.1-.4,1.1h.9Z" fill="#b38e5d"/>
  <path d="M65.6,21.1h1.3c.3,0,.6,0,.8.2.2.1.4.3.5.5.3.5.3,1,0,1.5-.1.2-.3.4-.5.5-.3.1-.5.2-.8.2h-1.3v-2.8ZM66.9,23.3c.2,0,.5,0,.7-.2.3-.4.3-.9,0-1.3-.2-.2-.4-.2-.7-.2h-.6v1.7h.6Z" fill="#b38e5d"/>
  <path d="M71.7,23.4v.5h-2.2v-2.8h2.1v.5h-1.5v.6h1.3v.5h-1.3v.6h1.5Z" fill="#b38e5d"/>
  <path d="M76.6,23.4v.5h-2.2v-2.8h2.1v.5h-1.5v.6h1.3v.5h-1.3v.6h1.5Z" fill="#b38e5d"/>
  <path d="M80.2,21.1v2.8h-.5l-1.4-1.7v1.7h-.6v-2.8h.5l1.4,1.7v-1.7h.6Z" fill="#b38e5d"/>
  <path d="M83.6,23.4v.5h-2.2v-2.8h2.1v.5h-1.5v.6h1.3v.5h-1.3v.6h1.5Z" fill="#b38e5d"/>
  <path d="M86.4,23.9l-.5-.8h-.6v.8h-.6v-2.8h1.2c.2,0,.4,0,.6.1.4.1.6.5.6.9,0,.4-.2.7-.6.9l.6.9h-.7ZM86.2,21.7c-.1,0-.3-.1-.4-.1h-.5v1h.5c.2,0,.3,0,.4-.1.2-.2.2-.5,0-.7,0,0,0,0,0,0h0Z" fill="#b38e5d"/>
  <path d="M90,22.4h.6v1.1c-.2.1-.3.2-.5.3-.2,0-.4,0-.6,0-.3,0-.5,0-.8-.2-.2-.1-.4-.3-.5-.5-.3-.5-.3-1,0-1.5.1-.2.3-.4.6-.5.2-.1.5-.2.8-.2.2,0,.5,0,.7.1.2,0,.4.2.5.4l-.4.4c-.2-.2-.4-.3-.7-.3-.2,0-.3,0-.5.1-.1,0-.2.2-.3.3,0,.1-.1.3-.1.5,0,.2,0,.3.1.5,0,.1.2.2.3.3.1,0,.3.1.5.1.2,0,.3,0,.5-.1v-.8Z" fill="#b38e5d"/>
  <path d="M92.2,20.3h.7l-.7.6h-.5l.5-.6ZM91.7,21.1h.6v2.8h-.6v-2.8Z" fill="#b38e5d"/>
  <path d="M95.4,23.3h-1.3l-.2.6h-.7l1.2-2.8h.6l1.3,2.8h-.7l-.2-.6ZM95.2,22.8l-.4-1.1-.4,1.1h.9Z" fill="#b38e5d"/>
</svg>